<svg width="834" height="630" viewBox="0 0 834 630" fill="none" xmlns="http://www.w3.org/2000/svg">
<path d="M607.33 390.416C613.156 341.863 656.453 331.419 693.775 299.822C712.161 284.256 724.895 278.512 742.875 262.478C774.62 234.169 770.768 172.114 813.414 179.491C856.06 186.868 899.808 171.738 920.951 209.919C945.094 253.517 897.093 249.684 866.664 325.41C836.236 401.135 908.405 389.25 906.774 434.676C905.736 463.593 886.516 476.971 886.373 505.906C886.185 544.153 936.542 562.612 920.951 597.537C901.937 640.133 802.349 611.714 802.349 611.714C766.503 618.63 653.178 646.32 648.132 585.435C645.174 549.748 690.745 541.587 693.775 505.906C698.542 449.771 600.618 446.351 607.33 390.416Z" fill="#2667FF" fill-opacity="0.2"/>
<g clip-path="url(#clip0_5504_379)">
<path d="M795.943 419.117C754.958 422.979 732.896 471.493 760.045 504.619C772.592 519.986 793.543 527.587 814.193 522.301C825.257 519.466 834.822 513.175 841.636 504.99C871.394 469.434 843.363 414.622 795.943 419.117Z" fill="url(#paint0_radial_5504_379)"/>
<path d="M800.925 509.47C786.516 509.47 773.962 501.534 767.463 489.815C753.126 463.977 772.902 432.61 801.771 433.529C820.135 433.899 835.648 447.357 838.607 465.252C842.491 488.348 824.542 509.47 800.925 509.47Z" fill="url(#paint1_radial_5504_379)"/>
<g opacity="0.75">
<path d="M816.095 477.634C814.512 477.242 814.075 479.201 814.97 479.642C815.866 480.091 818.116 481.431 818.567 480.533C819.019 479.642 817.894 478.082 816.095 477.634Z" fill="#056DB1"/>
<path d="M831.82 461.106C830.287 461.455 828.452 462.224 830.021 463.343C831.598 464.461 834.063 464.012 834.292 462.673C834.514 461.327 834.743 460.436 831.82 461.106Z" fill="#056DB1"/>
<path d="M801.041 497.068C797.745 495.101 792.952 494.389 792.5 496.398C792.049 498.407 795.194 501.534 799.013 501.086C802.84 500.644 803.291 498.407 801.041 497.068Z" fill="#056DB1"/>
<path d="M811.786 507.91C808.813 508.787 805.689 509.314 802.457 509.435C803.195 504.783 807.645 506.25 810.024 506.892C810.719 507.084 811.299 507.461 811.786 507.91Z" fill="#056DB1"/>
<path d="M780.146 496.847C781.6 497.481 782.618 494.389 780.597 491.71C778.577 489.032 777.674 485.676 775.202 485.007C772.73 484.337 771.383 493.05 780.146 496.847Z" fill="#056DB1"/>
<path d="M770.257 485.897C769.462 486.04 769.132 487.685 770.931 487.906C772.729 488.134 772.729 485.455 770.257 485.897Z" fill="#056DB1"/>
<path d="M790.257 476.743C788.674 476.601 787.112 477.413 787.334 479.201C787.556 480.989 790.028 479.201 791.153 479.201C792.278 479.201 792.729 476.964 790.257 476.743Z" fill="#056DB1"/>
<path d="M805.761 455.969C804.399 455.328 804.184 458.206 805.309 458.648C806.434 459.097 809.58 457.75 805.761 455.969Z" fill="#056DB1"/>
</g>
<path d="M791.381 470.488C783.743 471.827 782.618 472.048 775.653 477.861C771.046 481.701 766.238 480.462 763.515 479.179C763.007 476.7 762.734 474.129 762.734 471.493C762.734 460.693 767.27 450.94 774.55 444.03C776.047 444.913 777.595 446.11 778.799 447.706C782.167 452.172 781.493 453.961 791.381 459.097C801.262 464.233 799.019 469.149 791.381 470.488Z" fill="url(#paint2_linear_5504_379)"/>
<path d="M835.446 455.222C828.395 453.754 823.587 461.683 818.786 461.106C813.169 460.436 814.745 452.173 810.023 443.46C807.659 439.1 807.494 436.079 807.917 434.156C820.119 436.393 830.28 444.4 835.446 455.222Z" fill="url(#paint3_linear_5504_379)"/>
<path d="M839.122 471.493C839.122 486.232 830.681 499.005 818.342 505.303C815.526 500.879 820.091 497.595 825.529 494.168C832.272 489.922 825.98 488.134 827.098 481.21C828.223 474.285 823.953 473.836 825.973 468.03C827.414 463.884 834.923 467.817 839.1 470.41C839.114 470.766 839.122 471.129 839.122 471.493Z" fill="url(#paint4_linear_5504_379)"/>
<path d="M803.289 482.998C799.204 484.259 796.998 479.422 791.831 480.54C786.665 481.659 782.395 490.813 789.359 490.592C796.324 490.371 798.123 489.474 803.289 493.05C808.455 496.626 814.524 494.168 816.322 488.583C818.114 482.998 816.989 478.752 803.289 482.998Z" fill="url(#paint5_linear_5504_379)"/>
<path d="M811.823 466.242C809.674 466.926 809.129 468.03 809.803 469.37C810.476 470.709 813.171 470.488 814.518 472.497C815.865 474.506 819.24 476.964 820.135 472.497C821.038 468.03 816.768 464.675 811.823 466.242Z" fill="url(#paint6_linear_5504_379)"/>
<path opacity="0.5" d="M803.963 454.623C803.562 457.601 800.818 454.623 796.325 453.733C791.832 452.842 790.034 450.156 792.054 448.368C794.075 446.58 796.769 445.241 799.47 446.801C802.165 448.368 804.407 451.275 803.963 454.623Z" fill="#056DB1"/>
<path d="M799.241 436.977C793.624 436.977 790.93 440.105 785.763 441.893C782.682 442.954 780.246 441.722 778.777 440.553C785.025 436.122 792.671 433.515 800.932 433.515C801.219 433.515 801.498 433.515 801.778 433.529C802.172 435.139 802.029 436.977 799.241 436.977Z" fill="url(#paint7_linear_5504_379)"/>
<path opacity="0.45" d="M837.303 483.112C834.186 492.765 827.286 500.736 818.344 505.303C816.259 506.364 814.066 507.241 811.788 507.917C808.814 508.794 805.69 509.321 802.459 509.442C801.95 509.463 801.441 509.47 800.925 509.47C786.516 509.47 773.962 501.534 767.463 489.815C765.643 486.538 764.296 482.962 763.515 479.179C763.007 476.7 762.734 474.128 762.734 471.493C762.734 466.905 763.551 462.509 765.049 458.441C769.369 471.272 779.257 487.828 801.735 490.898C806.12 491.497 810.219 491.575 814.045 491.247C823.431 490.428 831.156 487.165 837.303 483.112Z" fill="url(#paint8_linear_5504_379)"/>
<path opacity="0.45" d="M839.125 471.493C839.125 475.546 838.487 479.45 837.305 483.112C834.188 492.765 827.288 500.736 818.345 505.303C816.26 506.364 814.068 507.241 811.789 507.917C808.816 508.794 805.692 509.321 802.46 509.442C801.951 509.463 801.443 509.47 800.927 509.47C786.517 509.47 773.964 501.534 767.465 489.815C774.071 492.515 781.939 494.36 791.268 494.724C800.318 495.08 807.827 493.691 814.046 491.24C827.417 485.983 834.868 475.81 838.91 467.432C839.017 468.408 839.082 469.405 839.11 470.403C839.118 470.766 839.125 471.129 839.125 471.493Z" fill="url(#paint9_linear_5504_379)"/>
<path d="M838.616 465.273C838.616 465.273 833.178 445.469 808.171 438.95C793.181 435.039 782.777 438.566 776.852 442.014C795.775 426.654 824.716 432.752 835.449 455.221C837.943 460.429 838.437 464.547 838.616 465.273Z" fill="url(#paint10_linear_5504_379)"/>
</g>
<rect width="110.823" height="104.033" rx="15" transform="matrix(0.835813 0.549014 -0.549051 0.835789 719.551 106.213)" fill="#686767"/>
<rect width="110.823" height="2.26158" transform="matrix(0.835813 0.549014 -0.549051 0.835789 704.031 129.839)" fill="#595959"/>
<rect width="110.823" height="2.26158" transform="matrix(0.835813 0.549015 -0.549051 0.835789 697.82 139.29)" fill="#595959"/>
<ellipse cx="2.26171" cy="2.2616" rx="2.26171" ry="2.2616" transform="matrix(0.835813 0.549015 -0.549051 0.835789 712.453 123.196)" fill="#7D7D7D"/>
<ellipse cx="2.26167" cy="2.26157" rx="2.26167" ry="2.26157" transform="matrix(0.835811 0.549017 -0.549049 0.835791 793.738 176.589)" fill="#7D7D7D"/>
<ellipse cx="2.26169" cy="2.26157" rx="2.26169" ry="2.26157" transform="matrix(0.835813 0.549015 -0.549051 0.835789 698.176 144.933)" fill="#7D7D7D"/>
<ellipse cx="2.26171" cy="2.2616" rx="2.26171" ry="2.2616" transform="matrix(0.835813 0.549015 -0.549051 0.835789 779.457 198.327)" fill="#7D7D7D"/>
<rect width="21.4861" height="57.6704" rx="10" transform="matrix(0.999318 -0.0369264 0.0368827 0.99932 751.145 189.146)" fill="#D6D6D6"/>
<ellipse cx="7.35052" cy="7.35015" rx="7.35052" ry="7.35015" transform="matrix(0.999318 -0.0369266 0.0368825 0.99932 760.723 234.055)" fill="url(#paint11_radial_5504_379)"/>
<rect width="21.4861" height="57.6704" rx="10" transform="matrix(-0.294269 -0.955723 -0.95571 0.29431 716.473 167.909)" fill="#D6D6D6"/>
<ellipse cx="7.35052" cy="7.35015" rx="7.35052" ry="7.35015" transform="matrix(-0.294269 -0.955723 -0.95571 0.294311 671.574 173.812)" fill="url(#paint12_radial_5504_379)"/>
<path d="M731.36 236.412L683.156 204.748L657.604 243.646C654.571 248.261 655.855 254.461 660.471 257.494L662.186 258.62C666.802 261.652 673.002 260.368 676.035 255.752L687.23 238.711C689.158 235.774 693.102 234.958 696.039 236.887C698.975 238.815 699.792 242.759 697.863 245.695L686.668 262.737C683.636 267.353 684.919 273.553 689.535 276.585L691.959 278.177C696.575 281.209 702.775 279.925 705.808 275.309L731.36 236.412Z" fill="#D6D6D6"/>
<rect width="73.5052" height="71.2399" transform="matrix(0.835813 0.549014 -0.549051 0.835789 714.41 142.751)" fill="#E1E1E1"/>
<rect width="68.9818" height="20.3542" transform="matrix(0.835813 0.549014 -0.549051 0.835789 683.395 194.083)" fill="#E1E1E1"/>
<rect width="5.65425" height="71.2399" transform="matrix(0.835813 0.549015 -0.549051 0.835789 723.863 148.959)" fill="url(#paint13_linear_5504_379)"/>
<rect width="5.65425" height="71.2399" transform="matrix(0.835813 0.549014 -0.549052 0.835788 759.781 172.552)" fill="url(#paint14_linear_5504_379)"/>
<rect width="73.5052" height="2.26158" transform="matrix(0.835813 0.549014 -0.549051 0.835789 676.539 200.402)" fill="#9A9A9A"/>
<rect width="7.91597" height="18.0927" rx="3.95798" transform="matrix(0.835814 0.549014 -0.549052 0.835788 791.371 159.479)" fill="#D6D6D6"/>
<rect width="7.91594" height="18.0927" rx="3.95797" transform="matrix(0.835813 0.549015 -0.549051 0.835789 723.32 114.777)" fill="#D6D6D6"/>
<path d="M789.032 168.764C776.764 187.439 751.678 192.634 733.001 180.365C714.324 168.097 709.129 143.013 721.397 124.337C733.665 105.662 758.751 100.468 777.428 112.736C796.105 125.004 801.3 150.089 789.032 168.764Z" fill="#D6D6D6" stroke="#E1E1E1" stroke-width="0.5"/>
<path fill-rule="evenodd" clip-rule="evenodd" d="M788.564 169.816C775.816 187.081 751.639 191.557 733.482 179.63C715.323 167.702 709.83 143.733 720.618 125.177C720.172 125.781 719.74 126.401 719.323 127.036C706.979 145.826 712.206 171.066 730.998 183.41C749.791 195.754 775.032 190.528 787.376 171.737C787.792 171.104 788.188 170.463 788.564 169.816Z" fill="#DDDDDD"/>
<path fill-rule="evenodd" clip-rule="evenodd" d="M786.084 173.596C773.336 190.861 749.159 195.337 731.002 183.41C712.843 171.482 707.35 147.513 718.138 128.957C717.692 129.561 717.26 130.181 716.843 130.816C704.498 149.607 709.726 174.846 728.518 187.19C747.31 199.534 772.551 194.308 784.895 175.517C785.311 174.884 785.708 174.243 786.084 173.596Z" fill="#D6D6D6"/>
<path d="M793.139 155.228C787.074 139.745 756.031 118.001 736.238 113.117C721.416 124.352 713.596 141.219 720.397 158.858C724.173 168.652 729.408 173.41 738.411 178.808C745.071 182.802 749.511 184.841 757.273 185.11C775.493 185.741 790.859 165.907 793.139 155.228Z" fill="black"/>
<rect x="743.574" y="190.819" width="2.2617" height="1.1308" rx="0.565399" transform="rotate(13.3007 743.574 190.819)" fill="#C4C4C4"/>
<rect width="1.13089" height="1.13075" rx="0.565375" transform="matrix(0.973176 0.230061 -0.230062 0.973176 748.594 191.412)" fill="#C4C4C4"/>
<mask id="mask0_5504_379" style="mask-type:alpha" maskUnits="userSpaceOnUse" x="717" y="113" width="77" height="73">
<path d="M793.139 155.23C787.074 139.746 756.031 118.002 736.238 113.119C721.416 124.353 713.596 141.221 720.397 158.859C724.173 168.653 729.408 173.411 738.411 178.809C745.071 182.803 749.511 184.842 757.273 185.111C775.493 185.743 790.859 165.909 793.139 155.23Z" fill="black"/>
</mask>
<g mask="url(#mask0_5504_379)">
<rect width="11.3081" height="62.6584" transform="matrix(0.369765 0.929126 -0.929149 0.369707 766.586 116.875)" fill="#484848"/>
<rect width="6.38071" height="66.0547" transform="matrix(0.369764 0.929126 -0.929149 0.369707 778.281 132.228)" fill="#484848"/>
</g>
<ellipse cx="7.35051" cy="7.35014" rx="7.35051" ry="7.35014" transform="matrix(0.835813 0.549015 -0.549051 0.835789 737.145 118.447)" fill="#828282" fill-opacity="0.5"/>
<ellipse cx="3.95799" cy="3.95776" rx="3.95799" ry="3.95776" transform="matrix(0.835814 0.549013 -0.549053 0.835788 746.594 124.656)" fill="#828282" fill-opacity="0.5"/>
<ellipse cx="2.82711" cy="2.82698" rx="2.82711" ry="2.82698" transform="matrix(0.835812 0.549016 -0.54905 0.83579 730.934 127.898)" fill="#828282" fill-opacity="0.5"/>
<ellipse cx="2.82712" cy="2.82698" rx="2.82712" ry="2.82698" transform="matrix(0.835813 0.549015 -0.549051 0.835789 752.129 107.996)" fill="#BC0D0D"/>
<ellipse cx="2.82714" cy="2.82699" rx="2.82714" ry="2.82699" transform="matrix(0.835814 0.549013 -0.549053 0.835788 765.008 111.044)" fill="#BC0D0D"/>
<rect width="30.5329" height="15.8311" rx="5" transform="matrix(0.835813 0.549015 -0.549051 0.835789 711.559 184.17)" fill="#273AE7"/>
<path d="M726.382 196.614L718.805 197.556L722.973 199.449L712.612 201.098" stroke="#D2CB15"/>
<path d="M102.62 358.474C73.6331 317.254 7.20874 227.101 -59.2756 259.545C-125.76 291.99 -66.2498 280.82 -64.1223 319.381C-61.9948 357.942 -58.5376 366.718 -68.6432 390.121C-88.4349 435.954 -89.5328 492.507 -71.2429 517.771C-52.953 543.034 63.3214 634.783 101.35 629.198C139.379 623.614 131.667 557.661 109.594 522.823C87.5217 487.986 -9.54663 536.104 49.4927 483.198C69.9699 464.849 119.434 502.878 131.667 502.878C143.9 502.878 186.849 472.949 150.283 422.033C111.13 367.516 131.607 399.694 102.62 358.474Z" fill="#2767FF" fill-opacity="0.2"/>
<g clip-path="url(#clip1_5504_379)">
<path d="M-54.8164 1.09593C-226.241 17.3645 -318.485 221.567 -204.953 361.033C-152.505 425.732 -64.8782 457.743 21.5097 435.463C67.8009 423.515 107.785 397.064 136.281 362.611C260.738 212.888 143.526 -17.8402 -54.8164 1.09593Z" fill="url(#paint15_radial_5504_379)"/>
<path d="M137.182 220.853C137.182 230.847 136.319 240.653 134.667 250.159C133.766 255.269 132.677 260.303 131.363 265.263C124.079 292.465 110.263 316.962 91.7169 337.025C84.9966 344.314 77.6381 351.002 69.7164 357.013C62.433 362.574 54.6613 367.571 46.5144 371.929C35.4766 377.828 23.7255 382.524 11.4112 385.906C-2.968 389.851 -18.0982 391.917 -33.7163 391.917C-40.8871 391.917 -47.9453 391.466 -54.8533 390.602C-112.746 383.464 -161.702 347.32 -186.707 297.161C-196.468 277.624 -202.587 255.983 -204.202 233.102C-204.502 229.044 -204.652 224.948 -204.652 220.853C-204.652 195.041 -198.946 170.582 -188.734 148.64C-179.611 129.028 -166.846 111.444 -151.378 96.7537C-137.074 83.1528 -120.404 71.994 -102.046 63.9912C-81.1339 54.8612 -58.007 49.7891 -33.7539 49.7891C39.9442 49.7891 102.755 96.4532 126.745 161.903C132.714 178.209 136.281 195.643 137.032 213.865C137.145 216.157 137.182 218.486 137.182 220.853Z" fill="url(#paint16_radial_5504_379)"/>
<path d="M86.2369 291.977C72.3833 303.549 55.7889 306.517 49.2188 298.589C48.8809 298.176 48.5806 297.763 48.3178 297.312C43.287 289.084 49.294 274.318 62.4342 263.385C75.7998 252.226 91.6807 249.07 98.7014 255.945C98.9642 256.208 99.2269 256.471 99.4522 256.734C106.022 264.662 100.128 280.442 86.2369 291.977Z" fill="#BCBCBC"/>
<path d="M-13.704 197.108C-27.7078 208.191 -41.9369 214.316 -50.0838 204.021C-50.8723 203.044 -51.5105 201.992 -52.0736 200.865C-57.2547 190.42 -52.1487 175.279 -39.459 165.247C-25.4552 154.163 -6.3455 148.941 6.68214 165.435C6.75722 165.548 6.86984 165.66 6.90739 165.773C14.5663 175.955 0.187122 186.137 -13.704 197.108Z" fill="#BCBCBC"/>
<path d="M21.0615 331.126C21.099 336.461 13.8531 342.097 2.43985 342.586C-18.4344 343.487 -30.3358 339.467 -33.1515 332.028C-33.4519 331.239 -33.6396 330.412 -33.7522 329.511C-34.7659 320.456 -15.6562 321.996 -5.59453 321.47C13.2899 320.456 21.0239 325.641 21.0615 331.126Z" fill="#BCBCBC"/>
<path d="M84.3217 211.085C82.0316 214.504 77.6014 216.833 71.8572 216.833C53.7612 216.833 29.6207 203.758 32.6617 191.66C32.9996 190.27 33.5253 189.068 34.126 188.091C38.7814 180.576 50.5325 184.221 61.8332 186.625C84.4344 191.435 89.2775 203.758 84.3217 211.085Z" fill="#BCBCBC"/>
<path d="M25.5657 122.227C25.3404 121.701 25.2277 121.1 25.1526 120.461C24.7021 115.314 29.7706 107.8 39.6445 105.094C46.0645 103.329 54.737 103.554 60.1057 106.86C62.471 108.326 64.1604 110.355 64.7987 113.135C66.3004 120.048 28.7569 130.23 25.5657 122.227Z" fill="#BCBCBC"/>
<path d="M112.029 169.53C111.24 169.906 110.302 169.981 109.288 169.718C105.083 168.629 99.6017 162.166 97.9498 152.435C97.0112 146.724 99.8645 141.239 103.581 139.51C107.711 137.557 112.93 140.262 115.032 152.435C116.271 159.348 116.083 167.501 112.029 169.53Z" fill="#BCBCBC"/>
<path d="M91.7186 337.025C78.7661 351.039 63.4858 362.874 46.5161 371.892C44.6014 370.952 42.8744 369.562 42.1986 367.571C41.5979 365.805 41.8607 363.551 43.7003 360.695C50.721 349.611 57.7792 332.516 73.8479 331.502C78.5408 331.201 82.2576 331.765 85.2236 332.817C88.0769 333.869 90.1794 335.372 91.7186 337.025Z" fill="#BCBCBC"/>
<path d="M11.3739 385.868C-3.00533 389.813 -18.1355 391.88 -33.7536 391.88C-40.9244 391.88 -47.9826 391.429 -54.8906 390.565C-54.8906 388.536 -54.5152 386.357 -53.2762 384.516C-52.0748 382.75 -50.085 381.322 -46.8187 380.796C-34.7672 378.767 -28.7227 370.727 -11.6404 371.741C-2.78009 372.267 3.41464 376.588 7.28163 380.608C9.19636 382.637 10.5104 384.516 11.3739 385.868Z" fill="#BCBCBC"/>
<path d="M137.182 220.853C137.182 230.847 136.318 240.654 134.666 250.159C133.202 249.596 131.701 248.581 130.124 247.003C120.062 236.934 127.683 222.657 130.124 217.81C132.827 212.4 135.53 212.888 137.032 213.827C137.144 216.157 137.182 218.486 137.182 220.853Z" fill="#9B9B9B"/>
<path d="M33.6375 231.899C27.8183 231.185 24.5895 235.919 33.6375 239.939C42.6855 243.997 41.6719 232.914 33.6375 231.899Z" fill="#9B9B9B"/>
<path d="M9.49656 354.684C7.31903 355.172 6.49302 358.704 12.5 360.733C18.5445 362.724 18.5446 352.655 9.49656 354.684Z" fill="#9B9B9B"/>
<path d="M91.9417 197.709C89.4263 199.663 93.9691 210.784 97.9863 209.77C102.003 208.755 100.99 190.646 91.9417 197.709Z" fill="#9B9B9B"/>
<path d="M11.0754 268.231C10.6249 269.959 10.0618 271.65 9.49868 273.153C6.57027 281.006 -10.7374 284.086 -15.3177 280.48C-15.4303 280.404 -15.543 280.292 -15.6556 280.179C-19.6728 276.159 -15.7682 266.052 -13.6282 261.055C-10.6247 254.029 4.46783 248.994 9.49868 250.986C13.5534 252.676 13.0277 260.905 11.0754 268.231Z" fill="#BCBCBC"/>
<path d="M-24.7044 162.467C-43.4011 168.929 -51.2852 187.264 -52.0736 200.865C-57.2547 190.42 -52.1487 175.279 -39.459 165.247C-25.4552 154.163 -6.3455 148.941 6.68214 165.435C6.75722 165.548 6.86984 165.66 6.90739 165.773C1.27584 161.415 -8.97361 157.056 -24.7044 162.467Z" fill="#9B9B9B"/>
<path d="M11.075 268.231C10.8873 260.942 9.08517 252.714 1.46382 255.043C-6.34525 257.448 -15.2055 271.613 -15.2806 280.48C-15.3932 280.404 -15.5058 280.292 -15.6185 280.179C-19.6356 276.159 -15.7311 266.052 -13.5911 261.055C-10.5876 254.029 4.50494 248.994 9.53579 250.986C13.553 252.676 13.0272 260.905 11.075 268.231Z" fill="#9B9B9B"/>
<path d="M84.3213 211.085C86.6114 197.822 65.3617 193.539 54.7369 189.669C44.2247 185.836 37.0163 187.189 34.0879 188.091C38.7433 180.576 50.4945 184.221 61.7951 186.625C84.4339 191.435 89.277 203.758 84.3213 211.085Z" fill="#9B9B9B"/>
<path d="M25.5673 122.227C25.3421 121.701 25.2294 121.1 25.1543 120.462C31.4992 124.67 47.7556 121.251 56.7285 117.193C63.1484 114.262 62.0972 109.979 60.1074 106.898C62.4726 108.363 64.1621 110.392 64.8003 113.173C66.3021 120.048 28.7585 130.23 25.5673 122.227Z" fill="#9B9B9B"/>
<path d="M21.0615 331.126C19.4471 327.106 14.5665 325.453 6.45705 325.453H-21.7007C-32.4757 325.453 -33.1515 331.69 -33.1515 331.99C-33.4519 331.201 -33.6396 330.375 -33.7522 329.473C-34.7659 320.418 -15.6562 321.958 -5.59453 321.432C13.2899 320.456 21.0239 325.641 21.0615 331.126Z" fill="#9B9B9B"/>
<path d="M7.28163 380.646C9.19636 382.599 10.5104 384.516 11.3739 385.868C-3.00533 389.813 -18.1355 391.88 -33.7536 391.88C-40.9244 391.88 -47.9826 391.429 -54.8906 390.565C-54.8906 388.536 -54.5152 386.357 -53.2762 384.516C-19.8624 392.406 -0.602524 385.079 7.28163 380.646Z" fill="#9B9B9B"/>
<path d="M91.7173 337.025C78.7647 351.039 63.4845 362.874 46.5148 371.892C44.6 370.952 42.8731 369.562 42.1973 367.571C70.2423 357.051 82.3689 338.002 85.2222 332.854C88.0755 333.869 90.178 335.372 91.7173 337.025Z" fill="#9B9B9B"/>
<path d="M98.7014 255.945C96.4488 255.156 80.4175 250.685 61.7584 272.139C52.3349 282.997 49.0687 291.413 48.3178 297.312C43.287 289.083 49.294 274.318 62.4342 263.384C75.7998 252.263 91.6807 249.07 98.7014 255.945Z" fill="#9B9B9B"/>
<path d="M109.288 169.68C105.083 168.591 99.6017 162.128 97.9498 152.397C97.0112 146.686 99.8645 141.201 103.581 139.473C101.967 141.614 100.465 144.883 100.953 149.392C101.817 156.681 104.557 163.969 109.288 169.68Z" fill="#9B9B9B"/>
<path opacity="0.45" d="M69.7164 357.013C62.433 362.574 54.6613 367.571 46.5144 371.929C35.4765 377.828 23.7255 382.524 11.4112 385.906C-2.96802 389.851 -18.0982 391.917 -33.7163 391.917C-40.8871 391.917 -47.9453 391.466 -54.8533 390.602C-112.746 383.464 -161.702 347.32 -186.707 297.161C-196.468 277.624 -202.587 255.983 -204.202 233.101C-204.502 229.044 -204.652 224.948 -204.652 220.853C-204.652 195.041 -198.946 170.582 -188.734 148.64C-179.611 129.028 -166.846 111.444 -151.378 96.7537C-199.058 324.326 -23.6921 355.848 69.7164 357.013Z" fill="url(#paint17_linear_5504_379)"/>
<path d="M137.183 220.853C137.183 230.847 136.319 240.653 134.667 250.159C133.766 255.269 132.678 260.304 131.364 265.263C125.432 127.675 32.3236 49.4509 -102.045 63.9912C-81.1331 54.8612 -58.0063 49.7891 -33.7532 49.7891C39.9449 49.7891 102.755 96.4532 126.746 161.903C132.715 178.209 136.282 195.643 137.033 213.865C137.145 216.157 137.183 218.486 137.183 220.853Z" fill="url(#paint18_linear_5504_379)"/>
</g>
<defs>
<radialGradient id="paint0_radial_5504_379" cx="0" cy="0" r="1" gradientUnits="userSpaceOnUse" gradientTransform="translate(800.98 471.418) scale(45.6415 45.3784)">
<stop stop-color="#90DD6F"/>
<stop offset="1" stop-color="#B8FFA9" stop-opacity="0"/>
</radialGradient>
<radialGradient id="paint1_radial_5504_379" cx="0" cy="0" r="1" gradientUnits="userSpaceOnUse" gradientTransform="translate(802.821 456.631) scale(46.3552 46.088)">
<stop stop-color="#00B3DC"/>
<stop offset="1" stop-color="#056DB0"/>
</radialGradient>
<linearGradient id="paint2_linear_5504_379" x1="775.829" y1="412.942" x2="784.491" y2="522.18" gradientUnits="userSpaceOnUse">
<stop stop-color="#F2F236"/>
<stop offset="1" stop-color="#F2F236" stop-opacity="0"/>
</linearGradient>
<linearGradient id="paint3_linear_5504_379" x1="818.688" y1="409.544" x2="827.35" y2="518.781" gradientUnits="userSpaceOnUse">
<stop stop-color="#F2F236"/>
<stop offset="1" stop-color="#F2F236" stop-opacity="0"/>
</linearGradient>
<linearGradient id="paint4_linear_5504_379" x1="822.092" y1="409.274" x2="830.754" y2="518.511" gradientUnits="userSpaceOnUse">
<stop stop-color="#F2F236"/>
<stop offset="1" stop-color="#F2F236" stop-opacity="0"/>
</linearGradient>
<linearGradient id="paint5_linear_5504_379" x1="795.328" y1="411.396" x2="803.99" y2="520.634" gradientUnits="userSpaceOnUse">
<stop stop-color="#F2F236"/>
<stop offset="1" stop-color="#F2F236" stop-opacity="0"/>
</linearGradient>
<linearGradient id="paint6_linear_5504_379" x1="810.119" y1="410.223" x2="818.781" y2="519.461" gradientUnits="userSpaceOnUse">
<stop stop-color="#F2F236"/>
<stop offset="1" stop-color="#F2F236" stop-opacity="0"/>
</linearGradient>
<linearGradient id="paint7_linear_5504_379" x1="788.302" y1="411.953" x2="796.964" y2="521.191" gradientUnits="userSpaceOnUse">
<stop stop-color="#F2F236"/>
<stop offset="1" stop-color="#F2F236" stop-opacity="0"/>
</linearGradient>
<linearGradient id="paint8_linear_5504_379" x1="795.119" y1="520.657" x2="800.783" y2="468.715" gradientUnits="userSpaceOnUse">
<stop stop-color="#00ACD8"/>
<stop offset="1" stop-color="#0983BD"/>
</linearGradient>
<linearGradient id="paint9_linear_5504_379" x1="798.973" y1="518.424" x2="805.303" y2="464.136" gradientUnits="userSpaceOnUse">
<stop stop-color="#056EB1"/>
<stop offset="1" stop-color="#00A9D7" stop-opacity="0.3"/>
</linearGradient>
<linearGradient id="paint10_linear_5504_379" x1="828.667" y1="412.599" x2="804.847" y2="459.844" gradientUnits="userSpaceOnUse">
<stop stop-color="#E2FFB5"/>
<stop offset="1" stop-color="#FFFFB3" stop-opacity="0"/>
</linearGradient>
<radialGradient id="paint11_radial_5504_379" cx="0" cy="0" r="1" gradientUnits="userSpaceOnUse" gradientTransform="translate(9.0468 9.04634) rotate(-156.802) scale(4.30611 4.30596)">
<stop stop-color="white"/>
<stop offset="1" stop-color="#DDDDDD"/>
</radialGradient>
<radialGradient id="paint12_radial_5504_379" cx="0" cy="0" r="1" gradientUnits="userSpaceOnUse" gradientTransform="translate(9.0468 9.04633) rotate(-156.802) scale(4.30611 4.30596)">
<stop stop-color="white"/>
<stop offset="1" stop-color="#DDDDDD"/>
</radialGradient>
<linearGradient id="paint13_linear_5504_379" x1="2.82712" y1="0" x2="2.82712" y2="71.2399" gradientUnits="userSpaceOnUse">
<stop stop-color="#3BB094"/>
<stop offset="1" stop-color="#232030"/>
</linearGradient>
<linearGradient id="paint14_linear_5504_379" x1="2.82713" y1="0" x2="2.82713" y2="71.2399" gradientUnits="userSpaceOnUse">
<stop stop-color="#3BB094"/>
<stop offset="1" stop-color="#232030"/>
</linearGradient>
<radialGradient id="paint15_radial_5504_379" cx="0" cy="0" r="1" gradientUnits="userSpaceOnUse" gradientTransform="translate(-33.7368 221.248) scale(204.734 204.888)">
<stop stop-color="#F8F8F8"/>
<stop offset="1" stop-color="white" stop-opacity="0"/>
</radialGradient>
<radialGradient id="paint16_radial_5504_379" cx="0" cy="0" r="1" gradientUnits="userSpaceOnUse" gradientTransform="translate(-41.2839 130.289) scale(261.006 261.201)">
<stop stop-color="#E8E8E8"/>
<stop offset="1" stop-color="#DFDFDF"/>
</radialGradient>
<linearGradient id="paint17_linear_5504_379" x1="-66.7712" y1="468.264" x2="-68.4413" y2="44.3351" gradientUnits="userSpaceOnUse">
<stop/>
<stop offset="1" stop-opacity="0.2"/>
</linearGradient>
<linearGradient id="paint18_linear_5504_379" x1="118.295" y1="49.7136" x2="14.2173" y2="164.943" gradientUnits="userSpaceOnUse">
<stop stop-color="#B7B7B7"/>
<stop offset="0.557292" stop-color="#AEAEAE" stop-opacity="0.2"/>
</linearGradient>
<clipPath id="clip0_5504_379">
<rect width="105.808" height="105.117" fill="white" transform="translate(748.078 418.857)"/>
</clipPath>
<clipPath id="clip1_5504_379">
<rect width="442.519" height="442.519" fill="white" transform="translate(-255)"/>
</clipPath>
</defs>
</svg>
