<svg width="430" height="613" viewBox="0 0 430 613" fill="none" xmlns="http://www.w3.org/2000/svg">
<path d="M332.141 136.314C334.627 115.594 353.104 111.137 369.032 97.6522C376.879 91.0092 382.313 88.5579 389.986 81.7152C403.534 69.634 401.89 43.1516 420.09 46.2996C438.289 49.4477 456.959 42.991 465.982 59.2853C476.285 77.8911 455.8 76.2553 442.815 108.572C429.829 140.889 460.628 135.817 459.932 155.203C459.489 167.543 451.287 173.253 451.226 185.601C451.145 201.923 472.636 209.801 465.982 224.706C457.868 242.884 415.368 230.756 415.368 230.756C400.07 233.707 351.707 245.524 349.554 219.541C348.291 204.311 367.739 200.828 369.032 185.601C371.067 161.645 329.276 160.185 332.141 136.314Z" fill="#2667FF" fill-opacity="0.2"/>
<g clip-path="url(#clip0_5504_380)">
<path d="M412.634 148.563C395.143 150.211 385.728 170.915 397.314 185.052C402.669 191.61 411.61 194.853 420.422 192.598C425.144 191.388 429.226 188.703 432.134 185.21C444.833 170.036 432.871 146.644 412.634 148.563Z" fill="url(#paint0_radial_5504_380)"/>
<path d="M414.759 187.122C408.61 187.122 403.252 183.735 400.479 178.734C394.36 167.707 402.8 154.321 415.12 154.713C422.957 154.871 429.578 160.614 430.84 168.251C432.498 178.108 424.838 187.122 414.759 187.122Z" fill="url(#paint1_radial_5504_380)"/>
<g opacity="0.75">
<path d="M421.234 173.535C420.559 173.368 420.372 174.204 420.754 174.393C421.137 174.584 422.097 175.156 422.289 174.773C422.482 174.393 422.002 173.727 421.234 173.535Z" fill="#056DB1"/>
<path d="M427.945 166.482C427.291 166.631 426.508 166.959 427.178 167.437C427.85 167.914 428.902 167.722 429 167.151C429.095 166.576 429.193 166.196 427.945 166.482Z" fill="#056DB1"/>
<path d="M414.808 181.829C413.401 180.99 411.356 180.686 411.163 181.543C410.97 182.401 412.313 183.735 413.943 183.544C415.575 183.355 415.768 182.401 414.808 181.829Z" fill="#056DB1"/>
<path d="M419.395 186.456C418.126 186.83 416.793 187.055 415.414 187.107C415.729 185.122 417.628 185.748 418.643 186.022C418.94 186.104 419.187 186.265 419.395 186.456Z" fill="#056DB1"/>
<path d="M405.893 181.735C406.514 182.006 406.948 180.686 406.086 179.543C405.224 178.4 404.838 176.968 403.784 176.682C402.729 176.396 402.154 180.115 405.893 181.735Z" fill="#056DB1"/>
<path d="M401.672 177.062C401.332 177.123 401.192 177.825 401.959 177.919C402.727 178.017 402.727 176.874 401.672 177.062Z" fill="#056DB1"/>
<path d="M410.206 173.155C409.53 173.095 408.863 173.441 408.958 174.204C409.053 174.967 410.108 174.204 410.588 174.204C411.068 174.204 411.261 173.25 410.206 173.155Z" fill="#056DB1"/>
<path d="M416.822 164.29C416.241 164.016 416.149 165.245 416.629 165.433C417.109 165.625 418.451 165.05 416.822 164.29Z" fill="#056DB1"/>
</g>
<path d="M410.686 170.486C407.427 171.058 406.947 171.152 403.974 173.633C402.008 175.271 399.956 174.742 398.794 174.195C398.577 173.137 398.461 172.04 398.461 170.915C398.461 166.306 400.397 162.144 403.503 159.195C404.142 159.572 404.803 160.082 405.317 160.763C406.754 162.67 406.466 163.433 410.686 165.625C414.903 167.817 413.946 169.914 410.686 170.486Z" fill="url(#paint2_linear_5504_380)"/>
<path d="M429.49 163.971C426.481 163.345 424.429 166.728 422.381 166.482C419.983 166.196 420.656 162.67 418.641 158.952C417.632 157.091 417.561 155.802 417.742 154.981C422.949 155.936 427.285 159.353 429.49 163.971Z" fill="url(#paint3_linear_5504_380)"/>
<path d="M431.062 170.915C431.062 177.205 427.46 182.656 422.194 185.344C420.993 183.456 422.94 182.054 425.261 180.592C428.139 178.78 425.454 178.017 425.931 175.062C426.411 172.107 424.589 171.915 425.451 169.437C426.065 167.668 429.27 169.346 431.053 170.453C431.059 170.605 431.062 170.76 431.062 170.915Z" fill="url(#paint4_linear_5504_380)"/>
<path d="M415.768 175.825C414.025 176.363 413.083 174.299 410.878 174.776C408.673 175.253 406.851 179.16 409.823 179.066C412.795 178.971 413.563 178.588 415.768 180.115C417.972 181.641 420.562 180.592 421.33 178.208C422.094 175.825 421.614 174.013 415.768 175.825Z" fill="url(#paint5_linear_5504_380)"/>
<path d="M419.412 168.674C418.494 168.966 418.262 169.437 418.55 170.009C418.837 170.58 419.987 170.486 420.562 171.343C421.136 172.201 422.577 173.25 422.959 171.343C423.344 169.437 421.522 168.005 419.412 168.674Z" fill="url(#paint6_linear_5504_380)"/>
<path opacity="0.5" d="M416.055 163.716C415.884 164.986 414.712 163.716 412.795 163.336C410.878 162.955 410.11 161.809 410.973 161.046C411.835 160.283 412.985 159.712 414.138 160.377C415.287 161.046 416.244 162.287 416.055 163.716Z" fill="#056DB1"/>
<path d="M414.042 156.185C411.644 156.185 410.495 157.519 408.29 158.283C406.975 158.736 405.935 158.21 405.309 157.711C407.975 155.82 411.238 154.707 414.764 154.707C414.886 154.707 415.005 154.707 415.124 154.713C415.293 155.4 415.231 156.185 414.042 156.185Z" fill="url(#paint7_linear_5504_380)"/>
<path opacity="0.45" d="M430.284 175.873C428.954 179.993 426.009 183.395 422.193 185.344C421.303 185.797 420.367 186.171 419.395 186.459C418.126 186.833 416.793 187.058 415.414 187.11C415.197 187.119 414.98 187.122 414.759 187.122C408.61 187.122 403.253 183.735 400.479 178.734C399.702 177.336 399.128 175.809 398.794 174.195C398.577 173.137 398.461 172.04 398.461 170.915C398.461 168.957 398.81 167.081 399.449 165.345C401.293 170.82 405.512 177.886 415.105 179.196C416.976 179.452 418.725 179.485 420.358 179.345C424.364 178.996 427.66 177.603 430.284 175.873Z" fill="url(#paint8_linear_5504_380)"/>
<path opacity="0.45" d="M431.062 170.915C431.062 172.644 430.79 174.311 430.285 175.873C428.955 179.993 426.011 183.395 422.194 185.344C421.304 185.797 420.369 186.17 419.396 186.459C418.127 186.833 416.794 187.058 415.415 187.11C415.198 187.119 414.981 187.122 414.761 187.122C408.611 187.122 403.254 183.735 400.48 178.734C403.3 179.886 406.657 180.674 410.639 180.829C414.501 180.981 417.705 180.388 420.36 179.342C426.066 177.098 429.246 172.757 430.97 169.182C431.016 169.598 431.044 170.024 431.056 170.449C431.059 170.604 431.062 170.76 431.062 170.915Z" fill="url(#paint9_linear_5504_380)"/>
<path d="M430.843 168.26C430.843 168.26 428.522 159.809 417.85 157.027C411.453 155.358 407.013 156.863 404.484 158.334C412.56 151.779 424.911 154.382 429.492 163.971C430.556 166.193 430.767 167.95 430.843 168.26Z" fill="url(#paint10_linear_5504_380)"/>
</g>
<rect width="47.2951" height="44.3972" rx="15" transform="matrix(0.835813 0.549014 -0.549051 0.835789 380.035 15.0276)" fill="#686767"/>
<rect width="47.2951" height="0.965157" transform="matrix(0.835813 0.549014 -0.549051 0.835789 373.414 25.1108)" fill="#595959"/>
<rect width="47.295" height="0.965156" transform="matrix(0.835813 0.549015 -0.549051 0.835789 370.762 29.1438)" fill="#595959"/>
<ellipse cx="0.965211" cy="0.965162" rx="0.965211" ry="0.965162" transform="matrix(0.835813 0.549015 -0.549051 0.835789 377.008 22.2756)" fill="#7D7D7D"/>
<ellipse cx="0.965194" cy="0.965152" rx="0.965194" ry="0.965152" transform="matrix(0.835811 0.549017 -0.549049 0.835791 411.699 45.062)" fill="#7D7D7D"/>
<ellipse cx="0.965202" cy="0.965153" rx="0.965202" ry="0.965153" transform="matrix(0.835813 0.549015 -0.549051 0.835789 370.914 31.5525)" fill="#7D7D7D"/>
<ellipse cx="0.965211" cy="0.965162" rx="0.965211" ry="0.965162" transform="matrix(0.835813 0.549015 -0.549051 0.835789 405.602 54.3389)" fill="#7D7D7D"/>
<rect width="9.16945" height="24.6115" rx="4.58472" transform="matrix(0.999318 -0.0369264 0.0368827 0.99932 393.516 50.4199)" fill="#D6D6D6"/>
<ellipse cx="3.13692" cy="3.13676" rx="3.13692" ry="3.13676" transform="matrix(0.999318 -0.0369266 0.0368825 0.99932 397.605 69.5857)" fill="url(#paint11_radial_5504_380)"/>
<rect width="9.16945" height="24.6115" rx="4.58473" transform="matrix(-0.294269 -0.955723 -0.95571 0.29431 378.719 41.3564)" fill="#D6D6D6"/>
<ellipse cx="3.13692" cy="3.13676" rx="3.13692" ry="3.13676" transform="matrix(-0.294269 -0.955723 -0.95571 0.294311 359.559 43.8762)" fill="url(#paint12_radial_5504_380)"/>
<path d="M385.072 70.5914L364.5 57.0786L353.835 73.3126C352.409 75.4846 353.013 78.4019 355.185 79.8286C357.357 81.2553 360.274 80.6512 361.701 78.4792L366.238 71.5725C367.062 70.3194 368.745 69.9709 369.998 70.794C371.251 71.6171 371.599 73.3002 370.776 74.5532L366.338 81.3087C364.857 83.5642 365.484 86.5938 367.74 88.0754C369.995 89.557 373.025 88.9296 374.506 86.6741L385.072 70.5914Z" fill="#D6D6D6"/>
<rect width="31.3692" height="30.4024" transform="matrix(0.835813 0.549014 -0.549051 0.835789 377.836 30.6201)" fill="#E1E1E1"/>
<rect width="29.4388" height="8.68641" transform="matrix(0.835813 0.549014 -0.549051 0.835789 364.602 52.5273)" fill="#E1E1E1"/>
<rect width="2.41301" height="30.4025" transform="matrix(0.835813 0.549015 -0.549051 0.835789 381.871 33.2695)" fill="url(#paint13_linear_5504_380)"/>
<rect width="2.41302" height="30.4024" transform="matrix(0.835813 0.549014 -0.549052 0.835788 397.199 43.3384)" fill="url(#paint14_linear_5504_380)"/>
<rect width="31.3692" height="0.965156" transform="matrix(0.835813 0.549014 -0.549051 0.835789 361.676 55.2241)" fill="#9A9A9A"/>
<rect width="3.37823" height="7.72126" rx="1.68912" transform="matrix(0.835814 0.549014 -0.549052 0.835788 410.68 37.7598)" fill="#D6D6D6"/>
<rect width="3.37822" height="7.72126" rx="1.68911" transform="matrix(0.835813 0.549015 -0.549051 0.835789 381.641 18.6831)" fill="#D6D6D6"/>
<path d="M409.564 41.6434C404.372 49.5472 393.755 51.7454 385.851 46.5533C377.946 41.3612 375.748 30.7449 380.94 22.8411C386.132 14.9373 396.749 12.7391 404.653 17.9312C412.558 23.1233 414.757 33.7396 409.564 41.6434Z" fill="#D6D6D6" stroke="#E1E1E1" stroke-width="0.5"/>
<path fill-rule="evenodd" clip-rule="evenodd" d="M409.484 42.1737C404.043 49.5392 393.727 51.448 385.979 46.3589C378.229 41.2679 375.885 31.0371 380.491 23.1177C380.3 23.3764 380.115 23.6419 379.936 23.914C374.668 31.9332 376.899 42.7045 384.919 47.9725C392.938 53.2404 403.71 51.01 408.978 42.9909C409.155 42.7215 409.324 42.449 409.484 42.1737Z" fill="#DDDDDD"/>
<path fill-rule="evenodd" clip-rule="evenodd" d="M408.421 43.7877C402.98 51.1532 392.664 53.062 384.917 47.9729C377.166 42.8819 374.823 32.6512 379.429 24.7317C379.237 24.9904 379.052 25.2559 378.874 25.528C373.606 33.5472 375.836 44.3185 383.856 49.5865C391.876 54.8544 402.648 52.6241 407.916 44.6049C408.093 44.3355 408.261 44.063 408.421 43.7877Z" fill="#D6D6D6"/>
<path d="M411.437 35.9461C408.848 29.3383 395.601 20.0589 387.154 17.9747C380.828 22.7692 377.491 29.9677 380.393 37.4951C382.005 41.6749 384.239 43.7054 388.081 46.0091C390.923 47.7134 392.818 48.5836 396.13 48.6984C403.906 48.9679 410.464 40.5035 411.437 35.9461Z" fill="black"/>
<rect x="390.281" y="51.1348" width="0.965207" height="0.482581" rx="0.241291" transform="rotate(13.3007 390.281 51.1348)" fill="#C4C4C4"/>
<rect width="0.482619" height="0.482561" rx="0.24128" transform="matrix(0.973176 0.230061 -0.230062 0.973176 392.426 51.3877)" fill="#C4C4C4"/>
<mask id="mask0_5504_380" style="mask-type:alpha" maskUnits="userSpaceOnUse" x="379" y="17" width="33" height="32">
<path d="M411.433 35.9466C408.844 29.3388 395.597 20.0594 387.15 17.9752C380.824 22.7696 377.487 29.9682 380.389 37.4956C382.001 41.6754 384.235 43.7059 388.077 46.0096C390.919 47.7139 392.814 48.584 396.126 48.6988C403.902 48.9684 410.46 40.504 411.433 35.9466Z" fill="black"/>
</mask>
<g mask="url(#mask0_5504_380)">
<rect width="4.82585" height="26.7402" transform="matrix(0.369765 0.929126 -0.929149 0.369707 400.102 19.5786)" fill="#484848"/>
<rect width="2.72304" height="28.1896" transform="matrix(0.369764 0.929126 -0.929149 0.369707 405.094 26.1306)" fill="#484848"/>
</g>
<ellipse cx="3.13692" cy="3.13676" rx="3.13692" ry="3.13676" transform="matrix(0.835813 0.549015 -0.549051 0.835789 387.539 20.2488)" fill="#828282" fill-opacity="0.5"/>
<ellipse cx="1.68912" cy="1.68902" rx="1.68912" ry="1.68902" transform="matrix(0.835814 0.549013 -0.549053 0.835788 391.574 22.8984)" fill="#828282" fill-opacity="0.5"/>
<ellipse cx="1.2065" cy="1.20645" rx="1.2065" ry="1.20645" transform="matrix(0.835812 0.549016 -0.54905 0.83579 384.891 24.2825)" fill="#828282" fill-opacity="0.5"/>
<ellipse cx="1.20651" cy="1.20645" rx="1.20651" ry="1.20645" transform="matrix(0.835813 0.549015 -0.549051 0.835789 393.934 15.7886)" fill="#BC0D0D"/>
<ellipse cx="1.20652" cy="1.20645" rx="1.20652" ry="1.20645" transform="matrix(0.835814 0.549013 -0.549053 0.835788 399.434 17.0896)" fill="#BC0D0D"/>
<rect width="13.0303" height="6.7561" rx="3.37805" transform="matrix(0.835813 0.549015 -0.549051 0.835789 376.617 48.2969)" fill="#273AE7"/>
<path d="M382.946 53.6077L379.712 54.0096L381.491 54.8174L377.069 55.5214" stroke="#D2CB15"/>
<path d="M77.7922 478.217C63.3811 457.724 30.358 412.904 -2.69489 429.034C-35.7478 445.164 -6.16214 439.611 -5.10445 458.782C-4.04675 477.952 -2.32799 482.315 -7.35203 493.95C-17.1915 516.736 -17.7373 544.851 -8.64445 557.412C0.448439 569.972 58.2546 615.585 77.1609 612.808C96.0671 610.032 92.233 577.243 81.2594 559.924C70.2859 542.604 22.028 566.526 51.3797 540.224C61.56 531.101 86.1513 550.008 92.233 550.008C98.3147 550.008 119.667 535.128 101.488 509.815C82.0229 482.712 92.2032 498.71 77.7922 478.217Z" fill="#2767FF" fill-opacity="0.2"/>
<g clip-path="url(#clip1_5504_380)">
<path d="M-0.478058 300.545C-85.7021 308.633 -131.562 410.153 -75.1191 479.489C-49.0442 511.654 -5.48029 527.568 37.4677 516.492C60.4816 510.552 80.3598 497.402 94.5264 480.273C156.401 405.838 98.1288 291.131 -0.478058 300.545Z" fill="url(#paint15_radial_5504_380)"/>
<path d="M94.9755 409.798C94.9755 414.766 94.5462 419.642 93.7249 424.367C93.277 426.908 92.7357 429.411 92.0824 431.876C88.4614 445.4 81.5927 457.578 72.3722 467.553C69.0312 471.177 65.3729 474.502 61.4346 477.49C57.8136 480.255 53.9499 482.739 49.8996 484.906C44.4121 487.838 38.5701 490.173 32.448 491.854C25.2993 493.816 17.7773 494.843 10.0127 494.843C6.44769 494.843 2.9387 494.619 -0.495651 494.189C-29.277 490.64 -53.6161 472.671 -66.0469 447.735C-70.8998 438.022 -73.9422 427.263 -74.7448 415.887C-74.8941 413.87 -74.9688 411.834 -74.9688 409.798C-74.9688 396.965 -72.1317 384.805 -67.0548 373.897C-62.5192 364.147 -56.1732 355.405 -48.4832 348.101C-41.3719 341.34 -33.0846 335.792 -23.9575 331.813C-13.5611 327.274 -2.06355 324.753 9.994 324.753C46.6333 324.753 77.8597 347.952 89.7866 380.491C92.7543 388.597 94.5275 397.264 94.9008 406.324C94.9568 407.463 94.9755 408.621 94.9755 409.798Z" fill="url(#paint16_radial_5504_380)"/>
<path d="M0.681648 433.277C0.569656 433.968 0.327034 434.622 -0.0275993 435.22C-2.73402 440.076 -12.1598 442.467 -22.6682 440.655C-31.814 439.068 -39.112 434.734 -41.4638 430.027C-42.1544 428.645 -42.4157 427.244 -42.173 425.843C-41.1091 419.716 -30.8247 418.241 -18.9912 420.314C-7.15761 422.35 1.74555 427.151 0.681648 433.277Z" fill="#BCBCBC"/>
<path d="M69.649 445.157C62.7617 450.91 54.5117 452.386 51.2454 448.445C51.0774 448.239 50.9281 448.034 50.7974 447.81C48.2963 443.719 51.2827 436.378 57.8155 430.943C64.4602 425.395 72.3554 423.826 75.8458 427.244C75.9764 427.375 76.1071 427.506 76.219 427.636C79.4854 431.578 76.555 439.423 69.649 445.157Z" fill="#BCBCBC"/>
<path d="M19.9618 397.993C12.9998 403.503 5.92572 406.548 1.87543 401.43C1.48346 400.944 1.16616 400.421 0.886188 399.861C-1.68957 394.668 0.848859 387.14 7.15761 382.153C14.1196 376.643 23.6201 374.046 30.0968 382.247C30.1342 382.303 30.1901 382.359 30.2088 382.415C34.0165 387.477 26.8678 392.539 19.9618 397.993Z" fill="#BCBCBC"/>
<path d="M37.2467 464.62C37.2653 467.273 33.663 470.075 27.9889 470.318C17.6112 470.766 11.6944 468.767 10.2945 465.069C10.1452 464.676 10.0518 464.266 9.99584 463.817C9.49189 459.316 18.9923 460.081 23.9945 459.82C33.383 459.316 37.228 461.893 37.2467 464.62Z" fill="#BCBCBC"/>
<path d="M68.6957 404.941C67.5571 406.641 65.3546 407.799 62.4989 407.799C53.5024 407.799 41.5009 401.299 43.0127 395.284C43.1807 394.593 43.442 393.996 43.7407 393.51C46.0551 389.774 51.8973 391.586 57.5154 392.782C68.7517 395.172 71.1595 401.299 68.6957 404.941Z" fill="#BCBCBC"/>
<path d="M39.4847 360.766C39.3727 360.504 39.3167 360.205 39.2794 359.888C39.0554 357.329 41.5752 353.593 46.4841 352.248C49.6758 351.37 53.9873 351.482 56.6564 353.126C57.8323 353.854 58.6722 354.863 58.9895 356.245C59.7361 359.682 41.0712 364.744 39.4847 360.766Z" fill="#BCBCBC"/>
<path d="M82.4718 384.282C82.0798 384.469 81.6132 384.507 81.1092 384.376C79.0187 383.834 76.2937 380.621 75.4724 375.783C75.0058 372.944 76.4243 370.217 78.2722 369.358C80.3253 368.387 82.9197 369.732 83.9649 375.783C84.5809 379.22 84.4876 383.274 82.4718 384.282Z" fill="#BCBCBC"/>
<path d="M72.3757 467.553C65.9363 474.52 58.3397 480.404 49.9031 484.887C48.9512 484.42 48.0927 483.729 47.7567 482.739C47.4581 481.861 47.5887 480.74 48.5033 479.321C51.9936 473.81 55.5026 465.311 63.4912 464.807C65.8243 464.658 67.6722 464.938 69.1467 465.461C70.5652 465.984 71.6105 466.731 72.3757 467.553Z" fill="#BCBCBC"/>
<path d="M32.4319 491.836C25.2832 493.797 17.7612 494.824 9.99662 494.824C6.43162 494.824 2.92263 494.6 -0.511719 494.17C-0.511719 493.162 -0.325055 492.078 0.290888 491.163C0.888166 490.285 1.87741 489.575 3.50126 489.314C9.4927 488.305 12.4977 484.308 20.9903 484.812C25.3952 485.074 28.4749 487.222 30.3974 489.221C31.3493 490.229 32.0026 491.163 32.4319 491.836Z" fill="#BCBCBC"/>
<path d="M21.5691 336.875C21.1398 339.005 17.5375 339.771 15.8017 338.967C15.4284 338.799 15.1484 338.556 14.9991 338.258C13.9912 336.259 20.5799 332.523 21.4944 335.755C21.6064 336.166 21.6251 336.539 21.5691 336.875Z" fill="#BCBCBC"/>
<path d="M-4.49297 449.304C-6.73276 448.183 -8.48729 447.305 -7.98333 451.807C-7.47938 456.308 -3.98904 457.317 -0.983984 457.317C2.0024 457.317 -2.49582 450.312 -4.49297 449.304Z" fill="#9B9B9B"/>
<path d="M94.9725 409.798C94.9725 414.766 94.5431 419.642 93.7219 424.367C92.994 424.087 92.2474 423.583 91.4634 422.798C86.4612 417.792 90.2502 410.694 91.4634 408.285C92.8073 405.595 94.1512 405.838 94.8978 406.305C94.9538 407.463 94.9725 408.621 94.9725 409.798Z" fill="#9B9B9B"/>
<path d="M43.4951 415.289C40.602 414.935 38.9968 417.288 43.4951 419.287C47.9933 421.304 47.4894 415.794 43.4951 415.289Z" fill="#9B9B9B"/>
<path d="M7.00512 357.777C5.51193 358.281 3.51478 359.776 7.00512 360.28C10.4955 360.766 8.49832 357.273 7.00512 357.777Z" fill="#9B9B9B"/>
<path d="M15.4989 357.777C13.6697 356.712 13.5017 361.774 14.9949 363.773C16.4881 365.772 21.4903 361.27 15.4989 357.777Z" fill="#9B9B9B"/>
<path d="M31.4946 476.332C30.4121 476.575 30.0014 478.331 32.9878 479.339C35.9929 480.329 35.9929 475.323 31.4946 476.332Z" fill="#9B9B9B"/>
<path d="M-9.49243 411.292C-12.0309 411.423 -6.48737 414.785 -4.99418 415.289C-3.50098 415.794 0.997261 410.788 -9.49243 411.292Z" fill="#9B9B9B"/>
<path d="M72.4844 398.292C71.2339 399.263 73.4923 404.792 75.4895 404.288C77.4866 403.783 76.9827 394.78 72.4844 398.292Z" fill="#9B9B9B"/>
<path d="M32.2799 433.352C32.0559 434.211 31.776 435.052 31.496 435.799C30.0402 439.703 21.4356 441.235 19.1585 439.441C19.1025 439.404 19.0465 439.348 18.9905 439.292C16.9933 437.293 18.9345 432.269 19.9984 429.784C21.4916 426.291 28.9949 423.788 31.496 424.778C33.5118 425.619 33.2505 429.71 32.2799 433.352Z" fill="#BCBCBC"/>
<path d="M0.681648 433.277C0.569656 433.968 0.327034 434.622 -0.0275993 435.22C-0.232914 434.361 -2.08075 427.617 -10.4986 424.797C-19.2338 421.883 -30.9927 419.287 -37.9921 424.797C-40.2319 426.553 -41.1838 428.365 -41.4638 430.008C-42.1544 428.626 -42.4157 427.225 -42.173 425.824C-41.1091 419.698 -30.8247 418.222 -18.9912 420.295C-7.15761 422.35 1.74555 427.15 0.681648 433.277Z" fill="#9B9B9B"/>
<path d="M14.4929 380.771C5.19778 383.984 1.27815 393.099 0.886188 399.861C-1.68957 394.668 0.848859 387.14 7.15761 382.153C14.1196 376.643 23.6201 374.046 30.0968 382.247C30.1342 382.303 30.1901 382.359 30.2088 382.415C27.4091 380.248 22.3135 378.081 14.4929 380.771Z" fill="#9B9B9B"/>
<path d="M32.2808 433.352C32.1874 429.728 31.2915 425.638 27.5025 426.796C23.6202 427.991 19.2153 435.033 19.178 439.441C19.122 439.404 19.066 439.348 19.01 439.292C17.0129 437.293 18.954 432.269 20.0179 429.784C21.5111 426.291 29.0145 423.788 31.5156 424.778C33.5127 425.619 33.2513 429.71 32.2808 433.352Z" fill="#9B9B9B"/>
<path d="M68.6963 404.941C69.8349 398.348 59.2705 396.218 53.9884 394.294C48.7622 392.389 45.1785 393.062 43.7227 393.51C46.0371 389.774 51.8792 391.586 57.4974 392.782C68.7523 395.172 71.1601 401.299 68.6963 404.941Z" fill="#9B9B9B"/>
<path d="M39.4866 360.766C39.3746 360.504 39.3186 360.205 39.2812 359.888C42.4356 361.98 50.5175 360.28 54.9785 358.263C58.1702 356.806 57.6475 354.676 56.6583 353.145C57.8342 353.873 58.6741 354.882 58.9914 356.264C59.738 359.682 41.0731 364.744 39.4866 360.766Z" fill="#9B9B9B"/>
<path d="M21.5691 336.875C21.4011 336.016 20.7292 335.194 18.5081 335.755C16.6976 336.203 16.007 337.585 15.8017 338.967C15.4284 338.799 15.1484 338.556 14.9991 338.258C13.9912 336.259 20.5799 332.523 21.4944 335.755C21.6064 336.166 21.6251 336.539 21.5691 336.875Z" fill="#9B9B9B"/>
<path d="M37.2467 464.62C36.4441 462.622 34.0177 461.8 29.986 461.8H15.9873C10.6305 461.8 10.2945 464.901 10.2945 465.05C10.1452 464.658 10.0518 464.247 9.99584 463.799C9.49189 459.297 18.9923 460.063 23.9945 459.801C33.383 459.316 37.228 461.893 37.2467 464.62Z" fill="#9B9B9B"/>
<path d="M30.3974 489.239C31.3493 490.211 32.0026 491.163 32.4319 491.836C25.2832 493.797 17.7612 494.824 9.99662 494.824C6.43162 494.824 2.92263 494.6 -0.511719 494.17C-0.511719 493.162 -0.325055 492.078 0.290888 491.163C16.9027 495.086 26.4778 491.443 30.3974 489.239Z" fill="#9B9B9B"/>
<path d="M72.373 467.553C65.9336 474.52 58.3369 480.404 49.9004 484.887C48.9485 484.42 48.0899 483.729 47.7539 482.739C61.6966 477.509 67.7254 468.039 69.1439 465.48C70.5624 465.984 71.6077 466.731 72.373 467.553Z" fill="#9B9B9B"/>
<path d="M75.8458 427.244C74.7259 426.852 66.7559 424.629 57.4794 435.295C52.7945 440.693 51.1707 444.877 50.7974 447.809C48.2963 443.719 51.2827 436.378 57.8155 430.942C64.4602 425.413 72.3554 423.826 75.8458 427.244Z" fill="#9B9B9B"/>
<path d="M81.1092 384.357C79.0187 383.816 76.2937 380.603 75.4724 375.765C75.0058 372.926 76.4243 370.199 78.2722 369.339C77.4696 370.404 76.7229 372.029 76.9656 374.271C77.3949 377.894 78.7574 381.518 81.1092 384.357Z" fill="#9B9B9B"/>
<path opacity="0.45" d="M61.4346 477.49C57.8136 480.255 53.9499 482.739 49.8996 484.906C44.4121 487.838 38.5701 490.173 32.448 491.854C25.2993 493.816 17.7773 494.843 10.0127 494.843C6.44768 494.843 2.93869 494.619 -0.495659 494.189C-29.277 490.64 -53.6161 472.671 -66.0469 447.735C-70.8998 438.022 -73.9422 427.263 -74.7448 415.887C-74.8941 413.87 -74.9688 411.834 -74.9688 409.798C-74.9688 396.965 -72.1317 384.805 -67.0548 373.897C-62.5192 364.147 -56.1732 355.405 -48.4832 348.101C-72.1877 461.24 14.9963 476.911 61.4346 477.49Z" fill="url(#paint17_linear_5504_380)"/>
<path d="M94.9759 409.798C94.9759 414.766 94.5466 419.642 93.7254 424.367C93.2774 426.908 92.7361 429.411 92.0828 431.876C89.1338 363.474 42.8448 324.585 -23.957 331.813C-13.5607 327.274 -2.06309 324.753 9.99445 324.753C46.6337 324.753 77.8601 347.952 89.787 380.491C92.7548 388.597 94.528 397.264 94.9013 406.324C94.9573 407.463 94.9759 408.621 94.9759 409.798Z" fill="url(#paint18_linear_5504_380)"/>
</g>
<defs>
<radialGradient id="paint0_radial_5504_380" cx="0" cy="0" r="1" gradientUnits="userSpaceOnUse" gradientTransform="translate(414.784 170.883) scale(19.478 19.3657)">
<stop stop-color="#90DD6F"/>
<stop offset="1" stop-color="#B8FFA9" stop-opacity="0"/>
</radialGradient>
<radialGradient id="paint1_radial_5504_380" cx="0" cy="0" r="1" gradientUnits="userSpaceOnUse" gradientTransform="translate(415.568 164.572) scale(19.7826 19.6686)">
<stop stop-color="#00B3DC"/>
<stop offset="1" stop-color="#056DB0"/>
</radialGradient>
<linearGradient id="paint2_linear_5504_380" x1="404.049" y1="145.928" x2="407.746" y2="192.546" gradientUnits="userSpaceOnUse">
<stop stop-color="#F2F236"/>
<stop offset="1" stop-color="#F2F236" stop-opacity="0"/>
</linearGradient>
<linearGradient id="paint3_linear_5504_380" x1="422.339" y1="144.477" x2="426.035" y2="191.096" gradientUnits="userSpaceOnUse">
<stop stop-color="#F2F236"/>
<stop offset="1" stop-color="#F2F236" stop-opacity="0"/>
</linearGradient>
<linearGradient id="paint4_linear_5504_380" x1="423.794" y1="144.362" x2="427.491" y2="190.98" gradientUnits="userSpaceOnUse">
<stop stop-color="#F2F236"/>
<stop offset="1" stop-color="#F2F236" stop-opacity="0"/>
</linearGradient>
<linearGradient id="paint5_linear_5504_380" x1="412.371" y1="145.268" x2="416.067" y2="191.886" gradientUnits="userSpaceOnUse">
<stop stop-color="#F2F236"/>
<stop offset="1" stop-color="#F2F236" stop-opacity="0"/>
</linearGradient>
<linearGradient id="paint6_linear_5504_380" x1="418.684" y1="144.767" x2="422.381" y2="191.386" gradientUnits="userSpaceOnUse">
<stop stop-color="#F2F236"/>
<stop offset="1" stop-color="#F2F236" stop-opacity="0"/>
</linearGradient>
<linearGradient id="paint7_linear_5504_380" x1="409.373" y1="145.506" x2="413.07" y2="192.124" gradientUnits="userSpaceOnUse">
<stop stop-color="#F2F236"/>
<stop offset="1" stop-color="#F2F236" stop-opacity="0"/>
</linearGradient>
<linearGradient id="paint8_linear_5504_380" x1="412.282" y1="191.896" x2="414.699" y2="169.73" gradientUnits="userSpaceOnUse">
<stop stop-color="#00ACD8"/>
<stop offset="1" stop-color="#0983BD"/>
</linearGradient>
<linearGradient id="paint9_linear_5504_380" x1="413.927" y1="190.943" x2="416.628" y2="167.775" gradientUnits="userSpaceOnUse">
<stop stop-color="#056EB1"/>
<stop offset="1" stop-color="#00A9D7" stop-opacity="0.3"/>
</linearGradient>
<linearGradient id="paint10_linear_5504_380" x1="426.597" y1="145.781" x2="416.432" y2="165.944" gradientUnits="userSpaceOnUse">
<stop stop-color="#E2FFB5"/>
<stop offset="1" stop-color="#FFFFB3" stop-opacity="0"/>
</linearGradient>
<radialGradient id="paint11_radial_5504_380" cx="0" cy="0" r="1" gradientUnits="userSpaceOnUse" gradientTransform="translate(3.86082 3.86063) rotate(-156.802) scale(1.83768 1.83762)">
<stop stop-color="white"/>
<stop offset="1" stop-color="#DDDDDD"/>
</radialGradient>
<radialGradient id="paint12_radial_5504_380" cx="0" cy="0" r="1" gradientUnits="userSpaceOnUse" gradientTransform="translate(3.86082 3.86063) rotate(-156.802) scale(1.83768 1.83762)">
<stop stop-color="white"/>
<stop offset="1" stop-color="#DDDDDD"/>
</radialGradient>
<linearGradient id="paint13_linear_5504_380" x1="1.20651" y1="0" x2="1.20651" y2="30.4025" gradientUnits="userSpaceOnUse">
<stop stop-color="#3BB094"/>
<stop offset="1" stop-color="#232030"/>
</linearGradient>
<linearGradient id="paint14_linear_5504_380" x1="1.20651" y1="0" x2="1.20651" y2="30.4024" gradientUnits="userSpaceOnUse">
<stop stop-color="#3BB094"/>
<stop offset="1" stop-color="#232030"/>
</linearGradient>
<radialGradient id="paint15_radial_5504_380" cx="0" cy="0" r="1" gradientUnits="userSpaceOnUse" gradientTransform="translate(10.0017 409.994) scale(101.784 101.861)">
<stop stop-color="#F8F8F8"/>
<stop offset="1" stop-color="white" stop-opacity="0"/>
</radialGradient>
<radialGradient id="paint16_radial_5504_380" cx="0" cy="0" r="1" gradientUnits="userSpaceOnUse" gradientTransform="translate(6.25041 364.774) scale(129.76 129.857)">
<stop stop-color="#E8E8E8"/>
<stop offset="1" stop-color="#DFDFDF"/>
</radialGradient>
<linearGradient id="paint17_linear_5504_380" x1="-6.42065" y1="532.799" x2="-7.25099" y2="322.041" gradientUnits="userSpaceOnUse">
<stop/>
<stop offset="1" stop-opacity="0.2"/>
</linearGradient>
<linearGradient id="paint18_linear_5504_380" x1="85.5858" y1="324.715" x2="33.8431" y2="382.002" gradientUnits="userSpaceOnUse">
<stop stop-color="#B7B7B7"/>
<stop offset="0.557292" stop-color="#AEAEAE" stop-opacity="0.2"/>
</linearGradient>
<clipPath id="clip0_5504_380">
<rect width="45.1549" height="44.8598" fill="white" transform="translate(392.207 148.452)"/>
</clipPath>
<clipPath id="clip1_5504_380">
<rect width="220" height="220" fill="white" transform="translate(-100 300)"/>
</clipPath>
</defs>
</svg>
