<svg width="1728" height="1082" viewBox="0 0 1728 1082" fill="none" xmlns="http://www.w3.org/2000/svg">
<g style="mix-blend-mode:difference">
<g filter="url(#filter0_f_5503_378)">
<circle cx="1464.33" cy="193.758" r="2.52314" fill="white"/>
</g>
<circle cx="1464.33" cy="193.758" r="2.52314" fill="white"/>
<g filter="url(#filter1_f_5503_378)">
<circle cx="317.562" cy="234.128" r="2.52314" fill="white"/>
</g>
<circle cx="317.562" cy="234.128" r="2.52314" fill="white"/>
<g filter="url(#filter2_f_5503_378)">
<circle cx="50.1091" cy="201.327" r="2.52314" fill="white"/>
</g>
<circle cx="50.1091" cy="201.327" r="2.52314" fill="white"/>
<g filter="url(#filter3_f_5503_378)">
<circle cx="1241.03" cy="162.218" r="2.52314" fill="white"/>
</g>
<circle cx="1241.03" cy="162.218" r="2.52314" fill="white"/>
<g filter="url(#filter4_f_5503_378)">
<circle cx="1073.24" cy="208.897" r="2.52314" fill="white"/>
</g>
<circle cx="1073.24" cy="208.897" r="2.52314" fill="white"/>
<g filter="url(#filter5_f_5503_378)">
<circle cx="1712.86" cy="208.897" r="2.52314" fill="white"/>
</g>
<circle cx="1712.86" cy="208.897" r="2.52314" fill="white"/>
<g filter="url(#filter6_f_5503_378)">
<circle cx="813.361" cy="167.264" r="2.52314" fill="white"/>
</g>
<circle cx="813.361" cy="167.264" r="2.52314" fill="white"/>
<g filter="url(#filter7_f_5503_378)">
<circle cx="1174.17" cy="395.609" r="2.52314" fill="white"/>
</g>
<circle cx="1174.17" cy="395.609" r="2.52314" fill="white"/>
<g filter="url(#filter8_f_5503_378)">
<circle cx="1372.24" cy="641.616" r="2.52314" fill="white"/>
</g>
<circle cx="1372.24" cy="641.616" r="2.52314" fill="white"/>
<g filter="url(#filter9_f_5503_378)">
<circle cx="1598.06" cy="1060.46" r="2.52314" fill="white"/>
</g>
<circle cx="1598.06" cy="1060.46" r="2.52314" fill="white"/>
<g filter="url(#filter10_f_5503_378)">
<circle cx="1614.46" cy="697.125" r="2.52314" fill="white"/>
</g>
<circle cx="1614.46" cy="697.125" r="2.52314" fill="white"/>
<g filter="url(#filter11_f_5503_378)">
<circle cx="1717.91" cy="964.578" r="2.52314" fill="white"/>
</g>
<circle cx="1717.91" cy="964.578" r="2.52314" fill="white"/>
<g filter="url(#filter12_f_5503_378)">
<circle cx="1725.48" cy="528.074" r="2.52314" fill="white"/>
</g>
<circle cx="1725.48" cy="528.074" r="2.52314" fill="white"/>
<g filter="url(#filter13_f_5503_378)">
<circle cx="759.113" cy="714.787" r="2.52314" fill="white"/>
</g>
<circle cx="759.113" cy="714.787" r="2.52314" fill="white"/>
<g filter="url(#filter14_f_5503_378)">
<circle cx="974.841" cy="697.125" r="2.52314" fill="white"/>
</g>
<circle cx="974.841" cy="697.125" r="2.52314" fill="white"/>
<g filter="url(#filter15_f_5503_378)">
<circle cx="1148.94" cy="866.175" r="2.52314" fill="white"/>
</g>
<circle cx="1148.94" cy="866.175" r="2.52314" fill="white"/>
<g filter="url(#filter16_f_5503_378)">
<circle cx="1725.48" cy="766.511" r="2.52314" fill="white"/>
</g>
<circle cx="1725.48" cy="766.511" r="2.52314" fill="white"/>
<g filter="url(#filter17_f_5503_378)">
<circle cx="1445.41" cy="724.879" r="2.52314" fill="white"/>
</g>
<circle cx="1445.41" cy="724.879" r="2.52314" fill="white"/>
<g filter="url(#filter18_f_5503_378)">
<circle cx="407.134" cy="164.741" r="2.52314" fill="white"/>
</g>
<circle cx="407.134" cy="164.741" r="2.52314" fill="white"/>
<g filter="url(#filter19_f_5503_378)">
<circle cx="13.5231" cy="386.778" r="2.52314" fill="white"/>
</g>
<circle cx="13.5231" cy="386.778" r="2.52314" fill="white"/>
<g filter="url(#filter20_f_5503_378)">
<circle cx="1078.29" cy="509.151" r="2.52314" fill="white"/>
</g>
<circle cx="1078.29" cy="509.151" r="2.52314" fill="white"/>
<g filter="url(#filter21_f_5503_378)">
<circle cx="600.156" cy="388.04" r="2.52314" fill="white"/>
</g>
<circle cx="600.156" cy="388.04" r="2.52314" fill="white"/>
<g filter="url(#filter22_f_5503_378)">
<circle cx="683.418" cy="516.72" r="2.52314" fill="white"/>
</g>
<circle cx="683.418" cy="516.72" r="2.52314" fill="white"/>
<g filter="url(#filter23_f_5503_378)">
<circle cx="960.963" cy="1047.84" r="2.52314" fill="white"/>
</g>
<circle cx="960.963" cy="1047.84" r="2.52314" fill="white"/>
<g filter="url(#filter24_f_5503_378)">
<circle cx="619.078" cy="785.435" r="2.52314" fill="white"/>
</g>
<circle cx="619.078" cy="785.435" r="2.52314" fill="white"/>
<g filter="url(#filter25_f_5503_378)">
<circle cx="670.802" cy="987.286" r="2.52314" fill="white"/>
</g>
<circle cx="670.802" cy="987.286" r="2.52314" fill="white"/>
<g filter="url(#filter26_f_5503_378)">
<circle cx="323.871" cy="1055.41" r="2.52314" fill="white"/>
</g>
<circle cx="323.871" cy="1055.41" r="2.52314" fill="white"/>
<g filter="url(#filter27_f_5503_378)">
<circle cx="369.287" cy="523.028" r="2.52314" fill="white"/>
</g>
<circle cx="369.287" cy="523.028" r="2.52314" fill="white"/>
<g filter="url(#filter28_f_5503_378)">
<circle cx="86.6931" cy="784.174" r="2.52314" fill="white"/>
</g>
<circle cx="86.6931" cy="784.174" r="2.52314" fill="white"/>
<g filter="url(#filter29_f_5503_378)">
<circle cx="154.82" cy="943.132" r="2.52314" fill="white"/>
</g>
<circle cx="154.82" cy="943.132" r="2.52314" fill="white"/>
</g>
<path d="M1225.48 612.874C1233.9 542.666 1296.51 527.564 1350.48 481.874C1377.06 459.365 1395.48 451.059 1421.48 427.874C1467.38 386.938 1461.81 297.207 1523.48 307.874C1585.14 318.54 1648.4 296.663 1678.98 351.874C1713.89 414.916 1644.48 409.374 1600.48 518.874C1556.48 628.374 1660.84 611.187 1658.48 676.874C1656.98 718.688 1629.18 738.033 1628.98 779.874C1628.7 835.179 1701.52 861.871 1678.98 912.374C1651.48 973.967 1507.48 932.874 1507.48 932.874C1455.64 942.874 1291.77 982.914 1284.48 894.874C1280.2 843.27 1346.1 831.469 1350.48 779.874C1357.37 698.703 1215.77 693.757 1225.48 612.874Z" fill="#2667FF" fill-opacity="0.2"/>
<g clip-path="url(#clip0_5503_378)">
<path d="M1498.21 654.376C1438.95 659.959 1407.05 730.111 1446.3 778.013C1464.45 800.233 1494.74 811.224 1524.6 803.58C1540.6 799.481 1554.43 790.384 1564.29 778.548C1607.32 727.134 1566.78 647.876 1498.21 654.376Z" fill="url(#paint0_radial_5503_378)"/>
<path d="M1505.41 785.028C1484.58 785.028 1466.43 773.552 1457.03 756.606C1436.3 719.243 1464.89 673.886 1506.64 675.215C1533.19 675.751 1555.62 695.21 1559.9 721.087C1565.52 754.484 1539.56 785.028 1505.41 785.028Z" fill="url(#paint1_radial_5503_378)"/>
<g opacity="0.75">
<path d="M1527.35 738.991C1525.06 738.424 1524.43 741.257 1525.72 741.896C1527.02 742.545 1530.27 744.482 1530.92 743.184C1531.58 741.896 1529.95 739.64 1527.35 738.991Z" fill="#056DB1"/>
<path d="M1550.09 715.092C1547.87 715.597 1545.22 716.709 1547.49 718.326C1549.77 719.944 1553.33 719.295 1553.67 717.358C1553.99 715.411 1554.32 714.124 1550.09 715.092Z" fill="#056DB1"/>
<path d="M1505.58 767.093C1500.81 764.25 1493.88 763.22 1493.23 766.125C1492.58 769.03 1497.12 773.552 1502.65 772.903C1508.18 772.264 1508.83 769.03 1505.58 767.093Z" fill="#056DB1"/>
<path d="M1521.12 782.772C1516.82 784.039 1512.3 784.801 1507.63 784.976C1508.7 778.249 1515.13 780.371 1518.57 781.299C1519.58 781.577 1520.42 782.123 1521.12 782.772Z" fill="#056DB1"/>
<path d="M1475.37 766.774C1477.47 767.691 1478.94 763.22 1476.02 759.346C1473.1 755.473 1471.79 750.621 1468.22 749.653C1464.64 748.685 1462.7 761.283 1475.37 766.774Z" fill="#056DB1"/>
<path d="M1461.07 750.94C1459.92 751.146 1459.44 753.526 1462.04 753.845C1464.64 754.175 1464.64 750.302 1461.07 750.94Z" fill="#056DB1"/>
<path d="M1489.99 737.703C1487.7 737.497 1485.44 738.672 1485.76 741.257C1486.08 743.843 1489.65 741.257 1491.28 741.257C1492.91 741.257 1493.56 738.023 1489.99 737.703Z" fill="#056DB1"/>
<path d="M1512.41 707.665C1510.44 706.737 1510.13 710.899 1511.75 711.538C1513.38 712.187 1517.93 710.24 1512.41 707.665Z" fill="#056DB1"/>
</g>
<path d="M1491.61 728.659C1480.57 730.595 1478.94 730.915 1468.87 739.321C1462.21 744.873 1455.26 743.081 1451.32 741.226C1450.58 737.642 1450.19 733.923 1450.19 730.111C1450.19 714.494 1456.75 700.392 1467.27 690.4C1469.44 691.677 1471.68 693.408 1473.42 695.715C1478.29 702.174 1477.31 704.76 1491.61 712.187C1505.9 719.614 1502.66 726.722 1491.61 728.659Z" fill="url(#paint2_linear_5503_378)"/>
<path d="M1555.33 706.583C1545.14 704.461 1538.19 715.926 1531.24 715.092C1523.12 714.123 1525.4 702.174 1518.57 689.575C1515.15 683.271 1514.91 678.903 1515.53 676.122C1533.17 679.356 1547.86 690.935 1555.33 706.583Z" fill="url(#paint3_linear_5503_378)"/>
<path d="M1560.65 730.111C1560.65 751.425 1548.44 769.895 1530.6 779.001C1526.53 772.604 1533.13 767.855 1540.99 762.9C1550.74 756.761 1541.65 754.175 1543.26 744.162C1544.89 734.149 1538.71 733.5 1541.64 725.105C1543.72 719.109 1554.58 724.796 1560.62 728.545C1560.64 729.06 1560.65 729.586 1560.65 730.111Z" fill="url(#paint4_linear_5503_378)"/>
<path d="M1508.83 746.748C1502.93 748.571 1499.74 741.577 1492.26 743.194C1484.79 744.811 1478.62 758.049 1488.69 757.729C1498.76 757.41 1501.36 756.112 1508.83 761.283C1516.3 766.454 1525.08 762.9 1527.68 754.824C1530.27 746.748 1528.64 740.608 1508.83 746.748Z" fill="url(#paint5_linear_5503_378)"/>
<path d="M1521.17 722.519C1518.07 723.508 1517.28 725.105 1518.25 727.041C1519.23 728.978 1523.12 728.659 1525.07 731.564C1527.02 734.469 1531.9 738.023 1533.19 731.564C1534.5 725.105 1528.32 720.253 1521.17 722.519Z" fill="url(#paint6_linear_5503_378)"/>
<path opacity="0.5" d="M1509.81 705.718C1509.23 710.024 1505.26 705.718 1498.76 704.43C1492.27 703.142 1489.67 699.259 1492.59 696.673C1495.51 694.087 1499.41 692.151 1503.31 694.407C1507.21 696.673 1510.45 700.876 1509.81 705.718Z" fill="#056DB1"/>
<path d="M1502.98 680.201C1494.86 680.201 1490.96 684.724 1483.49 687.309C1479.04 688.844 1475.51 687.062 1473.39 685.373C1482.42 678.965 1493.48 675.195 1505.43 675.195C1505.84 675.195 1506.24 675.195 1506.65 675.215C1507.22 677.544 1507.01 680.201 1502.98 680.201Z" fill="url(#paint7_linear_5503_378)"/>
<path opacity="0.45" d="M1558.02 746.913C1553.51 760.871 1543.53 772.398 1530.6 779.001C1527.59 780.536 1524.42 781.803 1521.12 782.782C1516.82 784.049 1512.3 784.811 1507.63 784.986C1506.9 785.017 1506.16 785.027 1505.41 785.027C1484.58 785.027 1466.43 773.552 1457.03 756.606C1454.4 751.867 1452.45 746.696 1451.32 741.226C1450.58 737.641 1450.19 733.923 1450.19 730.111C1450.19 723.477 1451.37 717.121 1453.54 711.239C1459.78 729.792 1474.08 753.732 1506.58 758.172C1512.93 759.037 1518.85 759.151 1524.38 758.677C1537.96 757.492 1549.13 752.774 1558.02 746.913Z" fill="url(#paint8_linear_5503_378)"/>
<path opacity="0.45" d="M1560.65 730.111C1560.65 735.972 1559.73 741.618 1558.02 746.913C1553.51 760.871 1543.53 772.398 1530.6 779.001C1527.59 780.536 1524.42 781.803 1521.12 782.782C1516.82 784.049 1512.31 784.811 1507.63 784.986C1506.9 785.017 1506.16 785.027 1505.42 785.027C1484.58 785.027 1466.43 773.552 1457.03 756.606C1466.58 760.51 1477.96 763.178 1491.45 763.704C1504.53 764.219 1515.39 762.21 1524.39 758.666C1543.72 751.064 1554.5 736.354 1560.34 724.239C1560.49 725.651 1560.59 727.093 1560.63 728.535C1560.64 729.06 1560.65 729.586 1560.65 730.111Z" fill="url(#paint9_linear_5503_378)"/>
<path d="M1559.91 721.118C1559.91 721.118 1552.05 692.48 1515.89 683.055C1494.21 677.399 1479.17 682.498 1470.6 687.484C1497.97 665.275 1539.81 674.092 1555.33 706.583C1558.94 714.113 1559.65 720.067 1559.91 721.118Z" fill="url(#paint10_linear_5503_378)"/>
</g>
<rect width="160.252" height="150.433" rx="15" transform="matrix(0.835813 0.549014 -0.549051 0.835789 1387.75 201.911)" fill="#686767"/>
<rect width="160.252" height="3.27028" transform="matrix(0.835813 0.549014 -0.549051 0.835789 1365.31 236.076)" fill="#595959"/>
<rect width="160.252" height="3.27027" transform="matrix(0.835813 0.549015 -0.549051 0.835789 1356.33 249.742)" fill="#595959"/>
<ellipse cx="3.27046" cy="3.2703" rx="3.27046" ry="3.2703" transform="matrix(0.835813 0.549015 -0.549051 0.835789 1377.49 226.47)" fill="#7D7D7D"/>
<ellipse cx="3.2704" cy="3.27026" rx="3.2704" ry="3.27026" transform="matrix(0.835811 0.549017 -0.549049 0.835791 1495.03 303.677)" fill="#7D7D7D"/>
<ellipse cx="3.27043" cy="3.27026" rx="3.27043" ry="3.27026" transform="matrix(0.835813 0.549015 -0.549051 0.835789 1356.84 257.902)" fill="#7D7D7D"/>
<ellipse cx="3.27046" cy="3.2703" rx="3.27046" ry="3.2703" transform="matrix(0.835813 0.549015 -0.549051 0.835789 1474.38 335.11)" fill="#7D7D7D"/>
<rect width="31.0692" height="83.392" rx="10" transform="matrix(0.999318 -0.0369264 0.0368827 0.99932 1433.44 321.835)" fill="#D6D6D6"/>
<ellipse cx="10.6289" cy="10.6284" rx="10.6289" ry="10.6284" transform="matrix(0.999318 -0.0369266 0.0368825 0.99932 1447.29 386.774)" fill="url(#paint11_radial_5503_378)"/>
<rect width="31.0692" height="83.392" rx="10" transform="matrix(-0.294269 -0.955723 -0.95571 0.29431 1383.3 291.125)" fill="#D6D6D6"/>
<ellipse cx="10.6289" cy="10.6284" rx="10.6289" ry="10.6284" transform="matrix(-0.294269 -0.955723 -0.95571 0.294311 1318.38 299.662)" fill="url(#paint12_radial_5503_378)"/>
<path d="M1404.82 390.182L1335.12 344.396L1295.72 404.369C1292.69 408.985 1293.97 415.185 1298.59 418.217L1308.52 424.743C1313.14 427.776 1319.34 426.492 1322.37 421.876L1341.01 393.506C1343.8 389.26 1349.5 388.079 1353.75 390.868C1357.99 393.657 1359.17 399.36 1356.39 403.606L1337.75 431.976C1334.72 436.591 1336 442.791 1340.62 445.824L1351.58 453.023C1356.19 456.055 1362.39 454.771 1365.42 450.155L1404.82 390.182Z" fill="#D6D6D6"/>
<rect width="106.289" height="103.014" transform="matrix(0.835813 0.549014 -0.549051 0.835789 1380.32 254.747)" fill="#E1E1E1"/>
<rect width="99.7485" height="29.4325" transform="matrix(0.835813 0.549014 -0.549051 0.835789 1335.47 328.974)" fill="#E1E1E1"/>
<rect width="8.17611" height="103.014" transform="matrix(0.835813 0.549015 -0.549051 0.835789 1393.98 263.725)" fill="url(#paint13_linear_5503_378)"/>
<rect width="8.17612" height="103.014" transform="matrix(0.835813 0.549014 -0.549052 0.835788 1445.92 297.84)" fill="url(#paint14_linear_5503_378)"/>
<rect width="106.289" height="3.27027" transform="matrix(0.835813 0.549014 -0.549051 0.835789 1325.55 338.112)" fill="#9A9A9A"/>
<rect width="11.4466" height="26.1622" rx="5.72329" transform="matrix(0.835814 0.549014 -0.549052 0.835788 1491.6 278.936)" fill="#D6D6D6"/>
<rect width="11.4465" height="26.1622" rx="5.72327" transform="matrix(0.835813 0.549015 -0.549051 0.835789 1393.2 214.297)" fill="#D6D6D6"/>
<path d="M1488.31 292.425C1470.53 319.481 1434.19 327.006 1407.13 309.233C1380.07 291.459 1372.55 255.117 1390.32 228.061C1408.09 201.005 1444.44 193.479 1471.5 211.253C1498.56 229.027 1506.08 265.369 1488.31 292.425Z" fill="#D6D6D6" stroke="#E1E1E1" stroke-width="0.5"/>
<path fill-rule="evenodd" clip-rule="evenodd" d="M1487.55 293.88C1469.11 318.848 1434.15 325.322 1407.89 308.075C1381.64 290.828 1373.69 256.171 1389.29 229.339C1388.65 230.211 1388.02 231.106 1387.42 232.023C1369.57 259.195 1377.13 295.692 1404.3 313.541C1431.48 331.391 1467.98 323.833 1485.83 296.662C1486.43 295.745 1487 294.817 1487.55 293.88Z" fill="#DDDDDD"/>
<path fill-rule="evenodd" clip-rule="evenodd" d="M1483.95 299.347C1465.52 324.315 1430.56 330.789 1404.3 313.542C1378.05 296.295 1370.1 261.638 1385.7 234.806C1385.05 235.678 1384.43 236.573 1383.83 237.49C1365.98 264.662 1373.54 301.159 1400.71 319.008C1427.88 336.858 1464.38 329.3 1482.23 302.129C1482.84 301.212 1483.41 300.284 1483.95 299.347Z" fill="#D6D6D6"/>
<path d="M1494.16 272.79C1485.39 250.401 1440.5 218.959 1411.88 211.897C1390.45 228.142 1379.14 252.533 1388.97 278.039C1394.43 292.201 1402 299.081 1415.02 306.887C1424.65 312.662 1431.07 315.61 1442.29 315.999C1468.64 316.912 1490.86 288.232 1494.16 272.79Z" fill="black"/>
<rect x="1422.48" y="324.255" width="3.27044" height="1.63515" rx="0.817574" transform="rotate(13.3007 1422.48 324.255)" fill="#C4C4C4"/>
<rect width="1.63528" height="1.63508" rx="0.817539" transform="matrix(0.973176 0.230061 -0.230062 0.973176 1429.74 325.113)" fill="#C4C4C4"/>
<mask id="mask0_5503_378" style="mask-type:alpha" maskUnits="userSpaceOnUse" x="1385" y="211" width="110" height="106">
<path d="M1494.16 272.792C1485.39 250.402 1440.5 218.96 1411.88 211.898C1390.45 228.144 1379.14 252.535 1388.97 278.04C1394.43 292.202 1402 299.083 1415.02 306.888C1424.65 312.663 1431.07 315.611 1442.29 316C1468.64 316.914 1490.86 288.233 1494.16 272.792Z" fill="black"/>
</mask>
<g mask="url(#mask0_5503_378)">
<rect width="16.3516" height="90.6049" transform="matrix(0.369765 0.929126 -0.929149 0.369707 1455.76 217.331)" fill="#484848"/>
<rect width="9.22658" height="95.5158" transform="matrix(0.369764 0.929126 -0.929149 0.369707 1472.67 239.532)" fill="#484848"/>
</g>
<ellipse cx="10.6289" cy="10.6284" rx="10.6289" ry="10.6284" transform="matrix(0.835813 0.549015 -0.549051 0.835789 1413.19 219.604)" fill="#828282" fill-opacity="0.5"/>
<ellipse cx="5.72329" cy="5.72298" rx="5.72329" ry="5.72298" transform="matrix(0.835814 0.549013 -0.549053 0.835788 1426.85 228.581)" fill="#828282" fill-opacity="0.5"/>
<ellipse cx="4.08804" cy="4.08785" rx="4.08804" ry="4.08785" transform="matrix(0.835812 0.549016 -0.54905 0.83579 1404.21 233.27)" fill="#828282" fill-opacity="0.5"/>
<ellipse cx="4.08805" cy="4.08785" rx="4.08805" ry="4.08785" transform="matrix(0.835813 0.549015 -0.549051 0.835789 1434.85 204.491)" fill="#BC0D0D"/>
<ellipse cx="4.08808" cy="4.08786" rx="4.08808" ry="4.08786" transform="matrix(0.835814 0.549013 -0.549053 0.835788 1453.48 208.899)" fill="#BC0D0D"/>
<rect width="44.151" height="22.8919" rx="5" transform="matrix(0.835813 0.549015 -0.549051 0.835789 1376.19 314.639)" fill="#273AE7"/>
<path d="M1397.63 332.634L1386.67 333.996L1392.7 336.733L1377.72 339.118" stroke="#D2CB15"/>
<path d="M410.377 661.983C355.877 584.483 230.989 414.983 105.989 475.983C-19.011 536.983 92.8766 515.983 96.8766 588.483C100.877 660.983 107.377 677.483 88.3766 721.483C51.1655 807.656 49.1013 913.983 83.4889 961.483C117.877 1008.98 336.489 1181.48 407.989 1170.98C479.489 1160.48 464.989 1036.48 423.489 970.983C381.989 905.483 199.487 995.953 310.489 896.483C348.989 861.983 441.989 933.483 464.989 933.483C487.989 933.483 568.74 877.213 499.989 781.483C426.377 678.983 464.877 739.483 410.377 661.983Z" fill="#2767FF" fill-opacity="0.2"/>
<g clip-path="url(#clip1_5503_378)">
<path d="M114.374 -9.93949C-207.928 20.6477 -381.361 404.578 -167.905 666.794C-69.2945 788.437 95.4564 848.622 257.878 806.733C344.912 784.269 420.088 734.538 473.664 669.761C707.661 388.26 487.287 -45.5422 114.374 -9.93949Z" fill="url(#paint15_radial_5503_378)"/>
<path d="M475.358 403.235C475.358 422.026 473.735 440.463 470.629 458.335C468.935 467.942 466.888 477.408 464.417 486.732C450.723 537.876 424.747 583.933 389.877 621.655C377.242 635.359 363.407 647.933 348.513 659.236C334.819 669.691 320.207 679.086 304.89 687.28C284.137 698.37 262.043 707.201 238.891 713.558C211.856 720.975 183.409 724.861 154.044 724.861C140.562 724.861 127.292 724.013 114.304 722.388C5.45813 708.967 -86.5879 641.011 -133.599 546.706C-151.952 509.973 -163.457 469.284 -166.493 426.264C-167.057 418.635 -167.34 410.935 -167.34 403.235C-167.34 354.706 -156.611 308.719 -137.411 267.465C-120.258 230.591 -96.2583 197.531 -67.1763 169.911C-40.2825 144.339 -8.94174 123.359 25.5755 108.312C64.8927 91.1468 108.374 81.6104 153.974 81.6104C292.537 81.6104 410.63 169.346 455.735 292.401C466.958 323.059 473.664 355.836 475.076 390.096C475.288 394.405 475.358 398.785 475.358 403.235Z" fill="url(#paint16_radial_5503_378)"/>
<path d="M118.752 492.03C118.328 494.644 117.411 497.116 116.069 499.377C105.834 517.743 70.1876 526.785 30.4469 519.933C-4.14094 513.929 -31.7407 497.54 -40.6347 479.739C-43.2464 474.511 -44.2346 469.213 -43.3169 463.915C-39.2934 440.745 -0.399796 435.165 44.3526 443.006C89.105 450.706 122.775 468.86 118.752 492.03Z" fill="#BCBCBC"/>
<path d="M23.5298 338.882L23.4591 338.953C14.5651 352.374 -13.1757 340.083 -45.4341 318.961C-71.7632 301.725 -90.5395 284.56 -91.8101 271.491C-92.0925 268.524 -91.4571 265.699 -89.8336 263.156C-80.9395 249.593 -45.6459 248.674 -13.3169 269.866C19.0122 291.059 32.4238 325.319 23.5298 338.882Z" fill="#BCBCBC"/>
<path d="M379.572 536.958C353.526 558.715 322.326 564.295 309.973 549.39C309.338 548.613 308.773 547.836 308.279 546.988C298.82 531.518 310.114 503.757 334.82 483.2C359.949 462.22 389.808 456.286 403.007 469.213C403.502 469.708 403.996 470.202 404.419 470.697C416.772 485.602 405.69 515.271 379.572 536.958Z" fill="#BCBCBC"/>
<path d="M191.669 358.591C165.34 379.43 138.587 390.944 123.27 371.589C121.787 369.752 120.588 367.774 119.529 365.655C109.788 346.017 119.388 317.549 143.246 298.688C169.575 277.849 205.504 268.03 229.998 299.041C230.139 299.253 230.351 299.465 230.422 299.677C244.821 318.821 217.786 337.964 191.669 358.591Z" fill="#BCBCBC"/>
<path d="M86.4926 649.629C82.6809 653.302 75.1279 655.351 63.2693 654.785C19.7874 652.878 -27.4355 599.898 -14.2357 582.874C-14.0239 582.591 -13.8122 582.379 -13.6004 582.167C0.0935593 566.697 34.399 594.529 51.9047 603.713C80.7749 618.83 96.5866 639.951 86.4926 649.629Z" fill="#BCBCBC"/>
<path d="M257.033 610.565C257.103 620.595 243.48 631.191 222.022 632.11C182.775 633.805 160.399 626.247 155.105 612.26C154.54 610.776 154.187 609.222 153.975 607.527C152.069 590.503 187.998 593.399 206.916 592.41C242.421 590.503 256.962 600.251 257.033 610.565Z" fill="#BCBCBC"/>
<path d="M375.971 384.869C371.665 391.297 363.336 395.677 352.536 395.677C318.513 395.677 273.125 371.094 278.843 348.348C279.478 345.734 280.466 343.474 281.596 341.637C290.349 327.509 312.443 334.361 333.689 338.882C376.183 347.924 385.289 371.094 375.971 384.869Z" fill="#BCBCBC"/>
<path d="M265.502 217.805C265.079 216.816 264.867 215.686 264.726 214.485C263.879 204.807 273.408 190.679 291.973 185.593C304.043 182.273 320.349 182.697 330.443 188.913C334.89 191.668 338.066 195.482 339.266 200.71C342.09 213.708 271.502 232.851 265.502 217.805Z" fill="#BCBCBC"/>
<path d="M71.5294 187.712C69.1294 189.125 66.3059 188.701 63.2707 185.664C42.4474 164.825 40.6121 130.776 51.9061 125.125C56.3531 122.864 60.2355 122.158 63.5531 122.511C86.1411 125.054 83.6704 180.366 71.5294 187.712Z" fill="#BCBCBC"/>
<path d="M428.065 306.741C426.583 307.447 424.818 307.589 422.912 307.094C415.006 305.046 404.701 292.896 401.595 274.6C399.83 263.862 405.195 253.549 412.183 250.299C419.947 246.626 429.759 251.712 433.712 274.6C436.041 287.597 435.688 302.926 428.065 306.741Z" fill="#BCBCBC"/>
<path d="M389.878 621.655C365.525 648.004 336.796 670.255 304.89 687.209C301.29 685.443 298.043 682.829 296.773 679.085C295.643 675.765 296.137 671.527 299.596 666.158C312.796 645.319 326.067 613.178 356.278 611.271C365.101 610.706 372.089 611.765 377.666 613.743C383.031 615.721 386.984 618.547 389.878 621.655Z" fill="#BCBCBC"/>
<path d="M238.821 713.488C211.786 720.905 183.339 724.79 153.975 724.79C140.493 724.79 127.222 723.942 114.234 722.318C114.234 718.503 114.94 714.406 117.27 710.945C119.528 707.624 123.27 704.94 129.411 703.951C152.069 700.137 163.434 685.02 195.551 686.927C212.21 687.916 223.857 696.039 231.127 703.598C234.727 707.413 237.198 710.945 238.821 713.488Z" fill="#BCBCBC"/>
<path d="M197.738 127.456C196.115 135.509 182.491 138.405 175.927 135.368C174.515 134.732 173.456 133.813 172.891 132.683C169.08 125.125 193.997 110.997 197.456 123.217C197.879 124.772 197.95 126.184 197.738 127.456Z" fill="#BCBCBC"/>
<path d="M99.1968 552.64C90.7263 548.401 84.091 545.081 85.9969 562.105C87.9028 579.13 101.103 582.944 112.467 582.944C123.761 582.944 106.75 556.454 99.1968 552.64Z" fill="#9B9B9B"/>
<path d="M475.356 403.235C475.356 422.026 473.732 440.463 470.627 458.335C467.874 457.275 465.05 455.368 462.086 452.401C443.168 433.469 457.497 406.626 462.086 397.514C467.168 387.341 472.25 388.26 475.074 390.026C475.285 394.405 475.356 398.785 475.356 403.235Z" fill="#9B9B9B"/>
<path d="M280.677 424.004C269.736 422.661 263.666 431.562 280.677 439.121C297.689 446.75 295.783 425.911 280.677 424.004Z" fill="#9B9B9B"/>
<path d="M142.68 206.502C137.033 208.41 129.48 214.061 142.68 215.968C155.879 217.805 148.327 204.595 142.68 206.502Z" fill="#9B9B9B"/>
<path d="M174.797 206.502C167.879 202.476 167.244 221.619 172.891 229.178C178.538 236.736 197.455 219.712 174.797 206.502Z" fill="#9B9B9B"/>
<path d="M235.289 654.856C231.195 655.774 229.642 662.415 240.936 666.229C252.3 669.973 252.3 651.042 235.289 654.856Z" fill="#9B9B9B"/>
<path d="M70.8219 686.997C65.1749 688.905 59.4573 692.648 70.8219 696.463C82.1865 700.207 76.4689 685.09 70.8219 686.997Z" fill="#9B9B9B"/>
<path d="M80.2797 408.887C70.6798 409.381 91.6443 422.096 97.2913 424.004C102.938 425.911 119.95 406.979 80.2797 408.887Z" fill="#9B9B9B"/>
<path d="M390.299 359.721C385.569 363.394 394.111 384.304 401.663 382.396C409.216 380.489 407.31 346.441 390.299 359.721Z" fill="#9B9B9B"/>
<path d="M238.256 492.313C237.409 495.562 236.35 498.741 235.291 501.567C229.786 516.331 197.245 522.123 188.633 515.342C188.421 515.2 188.21 514.988 187.998 514.777C180.445 507.218 187.786 488.216 191.81 478.821C197.457 465.611 225.833 456.145 235.291 459.889C242.915 463.068 241.926 478.538 238.256 492.313Z" fill="#BCBCBC"/>
<path d="M-91.8101 271.562C-92.0925 268.595 -91.4571 265.769 -89.8336 263.226C-80.9395 249.664 -45.6459 248.745 -13.3169 269.937C19.0122 291.129 32.4238 325.39 23.5298 338.953L23.4591 339.023C23.9532 330.759 20.4945 319.174 8.42406 302.997C-23.0579 260.966 -80.4455 246.485 -91.8101 271.562Z" fill="#9B9B9B"/>
<path d="M118.752 492.03C118.328 494.644 117.411 497.116 116.069 499.377C115.293 496.127 108.305 470.626 76.4699 459.959C43.435 448.94 -1.03514 439.121 -27.5054 459.959C-35.9759 466.6 -39.5759 473.452 -40.6347 479.668C-43.2464 474.441 -44.2346 469.143 -43.3169 463.845C-39.2934 440.675 -0.399796 435.094 44.3526 442.935C89.105 450.706 122.775 468.86 118.752 492.03Z" fill="#9B9B9B"/>
<path d="M170.987 293.461C135.834 305.611 121.011 340.083 119.529 365.655C109.788 346.017 119.388 317.549 143.246 298.688C169.575 277.849 205.504 268.03 229.998 299.041C230.139 299.253 230.351 299.465 230.422 299.677C219.833 291.483 200.563 283.289 170.987 293.461Z" fill="#9B9B9B"/>
<path d="M238.256 492.313C237.903 478.609 234.514 463.138 220.185 467.518C205.503 472.039 188.844 498.671 188.703 515.342C188.492 515.2 188.28 514.988 188.068 514.777C180.515 507.218 187.856 488.216 191.88 478.821C197.527 465.611 225.903 456.145 235.362 459.889C242.915 463.068 241.926 478.538 238.256 492.313Z" fill="#9B9B9B"/>
<path d="M375.971 384.869C380.277 359.933 340.325 351.88 320.348 344.604C300.584 337.399 287.031 339.942 281.525 341.637C290.278 327.509 312.372 334.361 333.619 338.882C376.183 347.924 385.289 371.094 375.971 384.869Z" fill="#9B9B9B"/>
<path d="M265.503 217.805C265.08 216.816 264.868 215.686 264.727 214.485C276.656 222.396 307.22 215.968 324.091 208.339C336.161 202.829 334.185 194.776 330.443 188.984C334.89 191.739 338.067 195.553 339.267 200.781C342.09 213.708 271.503 232.851 265.503 217.805Z" fill="#9B9B9B"/>
<path d="M71.5294 187.712C69.1294 189.125 66.3059 188.701 63.2707 185.664C42.4474 164.825 40.6121 130.776 51.9061 125.125C56.3531 122.864 60.2355 122.158 63.5531 122.511C58.9649 123.359 51.9061 127.385 51.9061 144.056C51.9061 163.271 61.1531 179.023 71.5294 187.712Z" fill="#9B9B9B"/>
<path d="M197.738 127.456C197.103 124.206 194.562 121.098 186.162 123.217C179.315 124.913 176.703 130.14 175.927 135.368C174.515 134.732 173.456 133.813 172.891 132.683C169.08 125.125 193.997 110.997 197.456 123.217C197.879 124.772 197.95 126.184 197.738 127.456Z" fill="#9B9B9B"/>
<path d="M86.4933 649.629C84.8698 639.457 75.5523 629.567 59.4584 620.737C38.6351 609.364 23.5293 598.061 10.3295 588.596C3.41194 583.651 -6.11735 582.309 -13.5996 582.167C0.0943422 566.697 34.3998 594.529 51.9055 603.713C80.7757 618.83 96.5873 639.951 86.4933 649.629Z" fill="#9B9B9B"/>
<path d="M257.033 610.564C253.998 603.006 244.821 599.898 229.574 599.898H176.634C156.375 599.898 155.105 611.624 155.105 612.189C154.54 610.706 154.187 609.152 153.975 607.456C152.069 590.432 187.998 593.328 206.916 592.339C242.421 590.503 256.962 600.251 257.033 610.564Z" fill="#9B9B9B"/>
<path d="M231.127 703.668C234.727 707.342 237.198 710.944 238.821 713.487C211.786 720.905 183.339 724.79 153.975 724.79C140.493 724.79 127.222 723.942 114.234 722.317C114.234 718.503 114.94 714.406 117.27 710.944C180.092 725.779 216.304 712.004 231.127 703.668Z" fill="#9B9B9B"/>
<path d="M389.876 621.655C365.524 648.004 336.794 670.256 304.889 687.209C301.289 685.443 298.042 682.83 296.771 679.086C349.5 659.307 372.3 623.492 377.665 613.814C383.029 615.721 386.982 618.547 389.876 621.655Z" fill="#9B9B9B"/>
<path d="M403.007 469.214C398.772 467.73 368.631 459.324 333.549 499.66C315.832 520.075 309.691 535.898 308.279 546.989C298.82 531.518 310.114 503.757 334.82 483.2C359.949 462.291 389.808 456.286 403.007 469.214Z" fill="#9B9B9B"/>
<path d="M422.912 307.023C415.006 304.975 404.701 292.825 401.595 274.529C399.83 263.791 405.195 253.478 412.183 250.229C409.148 254.255 406.324 260.401 407.242 268.878C408.865 282.582 414.018 296.286 422.912 307.023Z" fill="#9B9B9B"/>
<path opacity="0.45" d="M348.513 659.236C334.819 669.691 320.207 679.086 304.89 687.28C284.137 698.37 262.043 707.201 238.891 713.558C211.856 720.975 183.409 724.861 154.044 724.861C140.562 724.861 127.292 724.013 114.304 722.388C5.45811 708.967 -86.5879 641.011 -133.599 546.706C-151.952 509.973 -163.457 469.284 -166.493 426.264C-167.057 418.635 -167.34 410.935 -167.34 403.235C-167.34 354.706 -156.611 308.719 -137.411 267.465C-120.258 230.591 -96.2583 197.531 -67.1763 169.911C-156.822 597.779 172.891 657.046 348.513 659.236Z" fill="url(#paint17_linear_5503_378)"/>
<path d="M475.359 403.236C475.359 422.026 473.735 440.463 470.63 458.335C468.935 467.942 466.888 477.408 464.418 486.732C453.265 228.048 278.208 80.9746 25.5762 108.312C64.8933 91.1468 108.375 81.6104 153.975 81.6104C292.538 81.6104 410.63 169.346 455.736 292.401C466.959 323.059 473.665 355.836 475.077 390.096C475.288 394.405 475.359 398.785 475.359 403.236Z" fill="url(#paint18_linear_5503_378)"/>
</g>
<defs>
<filter id="filter0_f_5503_378" x="1456.81" y="186.235" width="15.0469" height="15.0464" filterUnits="userSpaceOnUse" color-interpolation-filters="sRGB">
<feFlood flood-opacity="0" result="BackgroundImageFix"/>
<feBlend mode="normal" in="SourceGraphic" in2="BackgroundImageFix" result="shape"/>
<feGaussianBlur stdDeviation="2.5" result="effect1_foregroundBlur_5503_378"/>
</filter>
<filter id="filter1_f_5503_378" x="310.039" y="226.604" width="15.0469" height="15.0464" filterUnits="userSpaceOnUse" color-interpolation-filters="sRGB">
<feFlood flood-opacity="0" result="BackgroundImageFix"/>
<feBlend mode="normal" in="SourceGraphic" in2="BackgroundImageFix" result="shape"/>
<feGaussianBlur stdDeviation="2.5" result="effect1_foregroundBlur_5503_378"/>
</filter>
<filter id="filter2_f_5503_378" x="42.5859" y="193.804" width="15.0469" height="15.0464" filterUnits="userSpaceOnUse" color-interpolation-filters="sRGB">
<feFlood flood-opacity="0" result="BackgroundImageFix"/>
<feBlend mode="normal" in="SourceGraphic" in2="BackgroundImageFix" result="shape"/>
<feGaussianBlur stdDeviation="2.5" result="effect1_foregroundBlur_5503_378"/>
</filter>
<filter id="filter3_f_5503_378" x="1233.51" y="154.695" width="15.0469" height="15.0464" filterUnits="userSpaceOnUse" color-interpolation-filters="sRGB">
<feFlood flood-opacity="0" result="BackgroundImageFix"/>
<feBlend mode="normal" in="SourceGraphic" in2="BackgroundImageFix" result="shape"/>
<feGaussianBlur stdDeviation="2.5" result="effect1_foregroundBlur_5503_378"/>
</filter>
<filter id="filter4_f_5503_378" x="1065.72" y="201.374" width="15.0469" height="15.0464" filterUnits="userSpaceOnUse" color-interpolation-filters="sRGB">
<feFlood flood-opacity="0" result="BackgroundImageFix"/>
<feBlend mode="normal" in="SourceGraphic" in2="BackgroundImageFix" result="shape"/>
<feGaussianBlur stdDeviation="2.5" result="effect1_foregroundBlur_5503_378"/>
</filter>
<filter id="filter5_f_5503_378" x="1705.34" y="201.374" width="15.0469" height="15.0464" filterUnits="userSpaceOnUse" color-interpolation-filters="sRGB">
<feFlood flood-opacity="0" result="BackgroundImageFix"/>
<feBlend mode="normal" in="SourceGraphic" in2="BackgroundImageFix" result="shape"/>
<feGaussianBlur stdDeviation="2.5" result="effect1_foregroundBlur_5503_378"/>
</filter>
<filter id="filter6_f_5503_378" x="805.838" y="159.741" width="15.0469" height="15.0464" filterUnits="userSpaceOnUse" color-interpolation-filters="sRGB">
<feFlood flood-opacity="0" result="BackgroundImageFix"/>
<feBlend mode="normal" in="SourceGraphic" in2="BackgroundImageFix" result="shape"/>
<feGaussianBlur stdDeviation="2.5" result="effect1_foregroundBlur_5503_378"/>
</filter>
<filter id="filter7_f_5503_378" x="1166.65" y="388.086" width="15.0469" height="15.0464" filterUnits="userSpaceOnUse" color-interpolation-filters="sRGB">
<feFlood flood-opacity="0" result="BackgroundImageFix"/>
<feBlend mode="normal" in="SourceGraphic" in2="BackgroundImageFix" result="shape"/>
<feGaussianBlur stdDeviation="2.5" result="effect1_foregroundBlur_5503_378"/>
</filter>
<filter id="filter8_f_5503_378" x="1364.71" y="634.093" width="15.0469" height="15.0464" filterUnits="userSpaceOnUse" color-interpolation-filters="sRGB">
<feFlood flood-opacity="0" result="BackgroundImageFix"/>
<feBlend mode="normal" in="SourceGraphic" in2="BackgroundImageFix" result="shape"/>
<feGaussianBlur stdDeviation="2.5" result="effect1_foregroundBlur_5503_378"/>
</filter>
<filter id="filter9_f_5503_378" x="1590.54" y="1052.93" width="15.0469" height="15.0464" filterUnits="userSpaceOnUse" color-interpolation-filters="sRGB">
<feFlood flood-opacity="0" result="BackgroundImageFix"/>
<feBlend mode="normal" in="SourceGraphic" in2="BackgroundImageFix" result="shape"/>
<feGaussianBlur stdDeviation="2.5" result="effect1_foregroundBlur_5503_378"/>
</filter>
<filter id="filter10_f_5503_378" x="1606.93" y="689.602" width="15.0469" height="15.0464" filterUnits="userSpaceOnUse" color-interpolation-filters="sRGB">
<feFlood flood-opacity="0" result="BackgroundImageFix"/>
<feBlend mode="normal" in="SourceGraphic" in2="BackgroundImageFix" result="shape"/>
<feGaussianBlur stdDeviation="2.5" result="effect1_foregroundBlur_5503_378"/>
</filter>
<filter id="filter11_f_5503_378" x="1710.38" y="957.055" width="15.0469" height="15.0464" filterUnits="userSpaceOnUse" color-interpolation-filters="sRGB">
<feFlood flood-opacity="0" result="BackgroundImageFix"/>
<feBlend mode="normal" in="SourceGraphic" in2="BackgroundImageFix" result="shape"/>
<feGaussianBlur stdDeviation="2.5" result="effect1_foregroundBlur_5503_378"/>
</filter>
<filter id="filter12_f_5503_378" x="1717.95" y="520.551" width="15.0469" height="15.0464" filterUnits="userSpaceOnUse" color-interpolation-filters="sRGB">
<feFlood flood-opacity="0" result="BackgroundImageFix"/>
<feBlend mode="normal" in="SourceGraphic" in2="BackgroundImageFix" result="shape"/>
<feGaussianBlur stdDeviation="2.5" result="effect1_foregroundBlur_5503_378"/>
</filter>
<filter id="filter13_f_5503_378" x="751.59" y="707.264" width="15.0469" height="15.0464" filterUnits="userSpaceOnUse" color-interpolation-filters="sRGB">
<feFlood flood-opacity="0" result="BackgroundImageFix"/>
<feBlend mode="normal" in="SourceGraphic" in2="BackgroundImageFix" result="shape"/>
<feGaussianBlur stdDeviation="2.5" result="effect1_foregroundBlur_5503_378"/>
</filter>
<filter id="filter14_f_5503_378" x="967.318" y="689.602" width="15.0469" height="15.0464" filterUnits="userSpaceOnUse" color-interpolation-filters="sRGB">
<feFlood flood-opacity="0" result="BackgroundImageFix"/>
<feBlend mode="normal" in="SourceGraphic" in2="BackgroundImageFix" result="shape"/>
<feGaussianBlur stdDeviation="2.5" result="effect1_foregroundBlur_5503_378"/>
</filter>
<filter id="filter15_f_5503_378" x="1141.42" y="858.652" width="15.0469" height="15.0464" filterUnits="userSpaceOnUse" color-interpolation-filters="sRGB">
<feFlood flood-opacity="0" result="BackgroundImageFix"/>
<feBlend mode="normal" in="SourceGraphic" in2="BackgroundImageFix" result="shape"/>
<feGaussianBlur stdDeviation="2.5" result="effect1_foregroundBlur_5503_378"/>
</filter>
<filter id="filter16_f_5503_378" x="1717.95" y="758.988" width="15.0469" height="15.0464" filterUnits="userSpaceOnUse" color-interpolation-filters="sRGB">
<feFlood flood-opacity="0" result="BackgroundImageFix"/>
<feBlend mode="normal" in="SourceGraphic" in2="BackgroundImageFix" result="shape"/>
<feGaussianBlur stdDeviation="2.5" result="effect1_foregroundBlur_5503_378"/>
</filter>
<filter id="filter17_f_5503_378" x="1437.88" y="717.356" width="15.0469" height="15.0464" filterUnits="userSpaceOnUse" color-interpolation-filters="sRGB">
<feFlood flood-opacity="0" result="BackgroundImageFix"/>
<feBlend mode="normal" in="SourceGraphic" in2="BackgroundImageFix" result="shape"/>
<feGaussianBlur stdDeviation="2.5" result="effect1_foregroundBlur_5503_378"/>
</filter>
<filter id="filter18_f_5503_378" x="399.611" y="157.218" width="15.0469" height="15.0464" filterUnits="userSpaceOnUse" color-interpolation-filters="sRGB">
<feFlood flood-opacity="0" result="BackgroundImageFix"/>
<feBlend mode="normal" in="SourceGraphic" in2="BackgroundImageFix" result="shape"/>
<feGaussianBlur stdDeviation="2.5" result="effect1_foregroundBlur_5503_378"/>
</filter>
<filter id="filter19_f_5503_378" x="6" y="379.255" width="15.0469" height="15.0464" filterUnits="userSpaceOnUse" color-interpolation-filters="sRGB">
<feFlood flood-opacity="0" result="BackgroundImageFix"/>
<feBlend mode="normal" in="SourceGraphic" in2="BackgroundImageFix" result="shape"/>
<feGaussianBlur stdDeviation="2.5" result="effect1_foregroundBlur_5503_378"/>
</filter>
<filter id="filter20_f_5503_378" x="1070.77" y="501.627" width="15.0469" height="15.0464" filterUnits="userSpaceOnUse" color-interpolation-filters="sRGB">
<feFlood flood-opacity="0" result="BackgroundImageFix"/>
<feBlend mode="normal" in="SourceGraphic" in2="BackgroundImageFix" result="shape"/>
<feGaussianBlur stdDeviation="2.5" result="effect1_foregroundBlur_5503_378"/>
</filter>
<filter id="filter21_f_5503_378" x="592.633" y="380.517" width="15.0469" height="15.0464" filterUnits="userSpaceOnUse" color-interpolation-filters="sRGB">
<feFlood flood-opacity="0" result="BackgroundImageFix"/>
<feBlend mode="normal" in="SourceGraphic" in2="BackgroundImageFix" result="shape"/>
<feGaussianBlur stdDeviation="2.5" result="effect1_foregroundBlur_5503_378"/>
</filter>
<filter id="filter22_f_5503_378" x="675.895" y="509.197" width="15.0469" height="15.0464" filterUnits="userSpaceOnUse" color-interpolation-filters="sRGB">
<feFlood flood-opacity="0" result="BackgroundImageFix"/>
<feBlend mode="normal" in="SourceGraphic" in2="BackgroundImageFix" result="shape"/>
<feGaussianBlur stdDeviation="2.5" result="effect1_foregroundBlur_5503_378"/>
</filter>
<filter id="filter23_f_5503_378" x="953.439" y="1040.32" width="15.0469" height="15.0464" filterUnits="userSpaceOnUse" color-interpolation-filters="sRGB">
<feFlood flood-opacity="0" result="BackgroundImageFix"/>
<feBlend mode="normal" in="SourceGraphic" in2="BackgroundImageFix" result="shape"/>
<feGaussianBlur stdDeviation="2.5" result="effect1_foregroundBlur_5503_378"/>
</filter>
<filter id="filter24_f_5503_378" x="611.555" y="777.911" width="15.0469" height="15.0464" filterUnits="userSpaceOnUse" color-interpolation-filters="sRGB">
<feFlood flood-opacity="0" result="BackgroundImageFix"/>
<feBlend mode="normal" in="SourceGraphic" in2="BackgroundImageFix" result="shape"/>
<feGaussianBlur stdDeviation="2.5" result="effect1_foregroundBlur_5503_378"/>
</filter>
<filter id="filter25_f_5503_378" x="663.279" y="979.763" width="15.0469" height="15.0464" filterUnits="userSpaceOnUse" color-interpolation-filters="sRGB">
<feFlood flood-opacity="0" result="BackgroundImageFix"/>
<feBlend mode="normal" in="SourceGraphic" in2="BackgroundImageFix" result="shape"/>
<feGaussianBlur stdDeviation="2.5" result="effect1_foregroundBlur_5503_378"/>
</filter>
<filter id="filter26_f_5503_378" x="316.348" y="1047.89" width="15.0469" height="15.0464" filterUnits="userSpaceOnUse" color-interpolation-filters="sRGB">
<feFlood flood-opacity="0" result="BackgroundImageFix"/>
<feBlend mode="normal" in="SourceGraphic" in2="BackgroundImageFix" result="shape"/>
<feGaussianBlur stdDeviation="2.5" result="effect1_foregroundBlur_5503_378"/>
</filter>
<filter id="filter27_f_5503_378" x="361.764" y="515.505" width="15.0469" height="15.0464" filterUnits="userSpaceOnUse" color-interpolation-filters="sRGB">
<feFlood flood-opacity="0" result="BackgroundImageFix"/>
<feBlend mode="normal" in="SourceGraphic" in2="BackgroundImageFix" result="shape"/>
<feGaussianBlur stdDeviation="2.5" result="effect1_foregroundBlur_5503_378"/>
</filter>
<filter id="filter28_f_5503_378" x="79.1699" y="776.65" width="15.0469" height="15.0464" filterUnits="userSpaceOnUse" color-interpolation-filters="sRGB">
<feFlood flood-opacity="0" result="BackgroundImageFix"/>
<feBlend mode="normal" in="SourceGraphic" in2="BackgroundImageFix" result="shape"/>
<feGaussianBlur stdDeviation="2.5" result="effect1_foregroundBlur_5503_378"/>
</filter>
<filter id="filter29_f_5503_378" x="147.297" y="935.609" width="15.0469" height="15.0464" filterUnits="userSpaceOnUse" color-interpolation-filters="sRGB">
<feFlood flood-opacity="0" result="BackgroundImageFix"/>
<feBlend mode="normal" in="SourceGraphic" in2="BackgroundImageFix" result="shape"/>
<feGaussianBlur stdDeviation="2.5" result="effect1_foregroundBlur_5503_378"/>
</filter>
<radialGradient id="paint0_radial_5503_378" cx="0" cy="0" r="1" gradientUnits="userSpaceOnUse" gradientTransform="translate(1505.5 730.003) scale(65.9981 65.6176)">
<stop stop-color="#90DD6F"/>
<stop offset="1" stop-color="#B8FFA9" stop-opacity="0"/>
</radialGradient>
<radialGradient id="paint1_radial_5503_378" cx="0" cy="0" r="1" gradientUnits="userSpaceOnUse" gradientTransform="translate(1508.16 708.621) scale(67.0302 66.6438)">
<stop stop-color="#00B3DC"/>
<stop offset="1" stop-color="#056DB0"/>
</radialGradient>
<linearGradient id="paint2_linear_5503_378" x1="1469.12" y1="645.447" x2="1481.65" y2="803.406" gradientUnits="userSpaceOnUse">
<stop stop-color="#F2F236"/>
<stop offset="1" stop-color="#F2F236" stop-opacity="0"/>
</linearGradient>
<linearGradient id="paint3_linear_5503_378" x1="1531.1" y1="640.532" x2="1543.63" y2="798.491" gradientUnits="userSpaceOnUse">
<stop stop-color="#F2F236"/>
<stop offset="1" stop-color="#F2F236" stop-opacity="0"/>
</linearGradient>
<linearGradient id="paint4_linear_5503_378" x1="1536.02" y1="640.142" x2="1548.55" y2="798.1" gradientUnits="userSpaceOnUse">
<stop stop-color="#F2F236"/>
<stop offset="1" stop-color="#F2F236" stop-opacity="0"/>
</linearGradient>
<linearGradient id="paint5_linear_5503_378" x1="1497.32" y1="643.211" x2="1509.85" y2="801.17" gradientUnits="userSpaceOnUse">
<stop stop-color="#F2F236"/>
<stop offset="1" stop-color="#F2F236" stop-opacity="0"/>
</linearGradient>
<linearGradient id="paint6_linear_5503_378" x1="1518.71" y1="641.515" x2="1531.24" y2="799.474" gradientUnits="userSpaceOnUse">
<stop stop-color="#F2F236"/>
<stop offset="1" stop-color="#F2F236" stop-opacity="0"/>
</linearGradient>
<linearGradient id="paint7_linear_5503_378" x1="1487.16" y1="644.017" x2="1499.69" y2="801.975" gradientUnits="userSpaceOnUse">
<stop stop-color="#F2F236"/>
<stop offset="1" stop-color="#F2F236" stop-opacity="0"/>
</linearGradient>
<linearGradient id="paint8_linear_5503_378" x1="1497.02" y1="801.203" x2="1505.21" y2="726.095" gradientUnits="userSpaceOnUse">
<stop stop-color="#00ACD8"/>
<stop offset="1" stop-color="#0983BD"/>
</linearGradient>
<linearGradient id="paint9_linear_5503_378" x1="1502.59" y1="797.975" x2="1511.74" y2="719.474" gradientUnits="userSpaceOnUse">
<stop stop-color="#056EB1"/>
<stop offset="1" stop-color="#00A9D7" stop-opacity="0.3"/>
</linearGradient>
<linearGradient id="paint10_linear_5503_378" x1="1545.53" y1="644.95" x2="1511.08" y2="713.268" gradientUnits="userSpaceOnUse">
<stop stop-color="#E2FFB5"/>
<stop offset="1" stop-color="#FFFFB3" stop-opacity="0"/>
</linearGradient>
<radialGradient id="paint11_radial_5503_378" cx="0" cy="0" r="1" gradientUnits="userSpaceOnUse" gradientTransform="translate(13.0818 13.0811) rotate(-156.802) scale(6.22669 6.22647)">
<stop stop-color="white"/>
<stop offset="1" stop-color="#DDDDDD"/>
</radialGradient>
<radialGradient id="paint12_radial_5503_378" cx="0" cy="0" r="1" gradientUnits="userSpaceOnUse" gradientTransform="translate(13.0818 13.0811) rotate(-156.802) scale(6.22669 6.22647)">
<stop stop-color="white"/>
<stop offset="1" stop-color="#DDDDDD"/>
</radialGradient>
<linearGradient id="paint13_linear_5503_378" x1="4.08805" y1="0" x2="4.08805" y2="103.014" gradientUnits="userSpaceOnUse">
<stop stop-color="#3BB094"/>
<stop offset="1" stop-color="#232030"/>
</linearGradient>
<linearGradient id="paint14_linear_5503_378" x1="4.08806" y1="0" x2="4.08806" y2="103.014" gradientUnits="userSpaceOnUse">
<stop stop-color="#3BB094"/>
<stop offset="1" stop-color="#232030"/>
</linearGradient>
<radialGradient id="paint15_radial_5503_378" cx="0" cy="0" r="1" gradientUnits="userSpaceOnUse" gradientTransform="translate(154.007 403.977) scale(384.93 385.218)">
<stop stop-color="#F8F8F8"/>
<stop offset="1" stop-color="white" stop-opacity="0"/>
</radialGradient>
<radialGradient id="paint16_radial_5503_378" cx="0" cy="0" r="1" gradientUnits="userSpaceOnUse" gradientTransform="translate(139.816 232.962) scale(490.729 491.096)">
<stop stop-color="#E8E8E8"/>
<stop offset="1" stop-color="#DFDFDF"/>
</radialGradient>
<linearGradient id="paint17_linear_5503_378" x1="91.8966" y1="868.403" x2="88.7564" y2="71.3562" gradientUnits="userSpaceOnUse">
<stop/>
<stop offset="1" stop-opacity="0.2"/>
</linearGradient>
<linearGradient id="paint18_linear_5503_378" x1="439.847" y1="81.4684" x2="244.166" y2="298.117" gradientUnits="userSpaceOnUse">
<stop stop-color="#B7B7B7"/>
<stop offset="0.557292" stop-color="#AEAEAE" stop-opacity="0.2"/>
</linearGradient>
<clipPath id="clip0_5503_378">
<rect width="153" height="152" fill="white" transform="translate(1429 654)"/>
</clipPath>
<clipPath id="clip1_5503_378">
<rect width="832" height="832" fill="white" transform="translate(-262 -12)"/>
</clipPath>
</defs>
</svg>
