<svg width="227" height="128" viewBox="0 0 227 128" fill="none" xmlns="http://www.w3.org/2000/svg">
<g filter="url(#filter0_d_689_1082)">
<g clip-path="url(#clip0_689_1082)">
<rect x="4.48682" y="53.8345" width="208.001" height="68" rx="10" transform="rotate(-15 4.48682 53.8345)" fill="#2667FF"/>
<mask id="mask0_689_1082" style="mask-type:alpha" maskUnits="userSpaceOnUse" x="22" y="58" width="31" height="30">
<rect x="22.8589" y="64.4409" width="24" height="24" transform="rotate(-14.9977 22.8589 64.4409)" fill="#D9D9D9"/>
</mask>
<g mask="url(#mask0_689_1082)">
<path d="M31.1219 79.827L31.6395 81.7588L47.0945 77.6183L46.5769 75.6865L31.1219 79.827ZM28.2753 69.2017L30.4004 68.6323C30.2811 68.509 30.1878 68.3701 30.1205 68.2156C30.0532 68.061 29.9959 67.8952 29.9484 67.7182C29.7328 66.9132 29.8312 66.1535 30.2437 65.4391C30.6562 64.7247 31.265 64.2597 32.0699 64.044C32.5529 63.9146 33.033 63.9197 33.5104 64.0593C33.9878 64.1988 34.429 64.4127 34.8341 64.7011L35.4853 65.1995L35.8 64.4423C35.9863 63.9783 36.2564 63.5695 36.6103 63.2158C36.9641 62.8622 37.3826 62.6207 37.8655 62.4913C38.6705 62.2757 39.4302 62.3741 40.1446 62.7866C40.859 63.1991 41.324 63.8078 41.5397 64.6128C41.5871 64.7899 41.6203 64.9622 41.6393 65.1296C41.6583 65.2971 41.6469 65.464 41.6053 65.6305L43.7303 65.0612C44.2616 64.9188 44.7671 64.9862 45.2467 65.2631C45.7264 65.5401 46.0374 65.9442 46.1798 66.4755L49.0263 77.1008C49.1687 77.632 49.1013 78.1375 48.8244 78.6172C48.5474 79.0969 48.1433 79.4079 47.612 79.5502L32.157 83.6907C31.6258 83.833 31.1203 83.7657 30.6406 83.4887C30.1609 83.2118 29.8499 82.8076 29.7076 82.2764L26.861 71.6511C26.7187 71.1198 26.786 70.6143 27.063 70.1347C27.34 69.655 27.7441 69.344 28.2753 69.2017ZM30.3456 76.9291L45.8006 72.7887L44.2479 66.993L39.3216 68.3128L42.0876 70.5223L40.8397 72.0472L36.3651 68.4837L34.2713 73.8069L32.4282 73.1101L33.6709 69.8267L28.7929 71.1335L30.3456 76.9291ZM33.105 67.9078C33.3787 67.8344 33.5833 67.6804 33.7189 67.4457C33.8544 67.2109 33.8855 66.9567 33.8122 66.683C33.7389 66.4094 33.5848 66.2047 33.3501 66.0692C33.1154 65.9337 32.8611 65.9026 32.5875 65.9759C32.3138 66.0492 32.1092 66.2032 31.9736 66.438C31.8381 66.6727 31.807 66.9269 31.8803 67.2006C31.9536 67.4743 32.1077 67.6789 32.3424 67.8144C32.5771 67.95 32.8313 67.9811 33.105 67.9078ZM38.9006 66.3551C39.1743 66.2818 39.3789 66.1277 39.5145 65.893C39.65 65.6582 39.6811 65.404 39.6078 65.1304C39.5345 64.8567 39.3804 64.6521 39.1457 64.5165C38.911 64.381 38.6568 64.3499 38.3831 64.4232C38.1094 64.4965 37.9048 64.6505 37.7693 64.8853C37.6337 65.12 37.6026 65.3742 37.6759 65.6479C37.7492 65.9216 37.9033 66.1262 38.138 66.2617C38.3728 66.3973 38.627 66.4284 38.9006 66.3551Z" fill="white"/>
</g>
<path d="M67.9079 61.6876L68.0696 62.2913C68.2921 63.1214 68.3834 63.895 68.3437 64.612C68.3039 65.329 68.1448 65.9728 67.8664 66.5435C67.593 67.1128 67.2101 67.5956 66.7177 67.9917C66.224 68.3828 65.6375 68.6694 64.9584 68.8514C64.2842 69.032 63.6356 69.0764 63.0125 68.9845C62.393 68.8863 61.8175 68.6604 61.286 68.3067C60.7545 67.9531 60.2872 67.477 59.8843 66.8787C59.4863 66.2789 59.1761 65.564 58.9537 64.7339L58.7919 64.1302C58.5695 63.3001 58.4814 62.5284 58.5275 61.8151C58.5722 61.0967 58.7339 60.4522 59.0123 59.8815C59.2944 59.3045 59.6799 58.8211 60.1685 58.4313C60.6609 58.0352 61.2442 57.7468 61.9183 57.5661C62.5975 57.3842 63.2493 57.3416 63.8738 57.4385C64.4969 57.5303 65.0724 57.7563 65.6002 58.1163C66.1267 58.4713 66.5864 58.9493 66.9793 59.5504C67.3759 60.1451 67.6854 60.8575 67.9079 61.6876ZM66.1755 62.7988L66.0097 62.1801C65.8452 61.5663 65.64 61.0416 65.3939 60.6061C65.1514 60.1642 64.872 59.8158 64.5557 59.5609C64.243 59.2996 63.8991 59.1329 63.524 59.0609C63.1474 58.9838 62.7504 59.0012 62.3328 59.1131C61.9153 59.225 61.5652 59.4078 61.2827 59.6614C60.9988 59.91 60.7843 60.2263 60.6392 60.6103C60.4977 60.9879 60.43 61.4293 60.4359 61.9346C60.4406 62.4348 60.5251 62.9918 60.6896 63.6056L60.8554 64.2244C61.0198 64.8381 61.2258 65.3653 61.4732 65.8058C61.7207 66.2464 62.0039 66.5992 62.323 66.8642C62.6457 67.1228 62.9928 67.2913 63.3643 67.3697C63.7344 67.4431 64.1283 67.4238 64.5459 67.3119C64.9685 67.1987 65.3217 67.0178 65.6056 66.7691C65.8881 66.5155 66.0994 66.1974 66.2395 65.8147C66.3783 65.4271 66.4422 64.9813 66.4312 64.4774C66.4252 63.9721 66.34 63.4126 66.1755 62.7988ZM74.1615 64.8325C74.4583 64.7529 74.7094 64.6236 74.9149 64.4446C75.124 64.2591 75.2732 64.0412 75.3625 63.7908C75.4568 63.5391 75.4744 63.2728 75.4154 62.9921L77.1284 62.5331C77.2599 63.064 77.2326 63.5863 77.0467 64.0998C76.8608 64.6134 76.5532 65.0651 76.1239 65.4552C75.6932 65.8402 75.176 66.1135 74.5723 66.2753C73.9485 66.4425 73.3769 66.4824 72.8574 66.3951C72.3366 66.3028 71.8722 66.1091 71.4642 65.814C71.0562 65.5189 70.7082 65.1458 70.4202 64.6945C70.1371 64.2419 69.9201 63.7339 69.7691 63.1705L69.6984 62.9064C69.5474 62.3429 69.4813 61.7944 69.5001 61.261C69.5226 60.7211 69.6368 60.2214 69.8426 59.7619C70.0483 59.3023 70.3543 58.9049 70.7606 58.5696C71.1654 58.2293 71.6773 57.9762 72.2961 57.8104C72.9501 57.6351 73.5587 57.6123 74.1218 57.7418C74.6835 57.8662 75.1673 58.1221 75.5731 58.5095C75.9825 58.8905 76.2738 59.384 76.447 59.99L74.7339 60.449C74.638 60.1512 74.4897 59.8998 74.2892 59.6947C74.0923 59.4832 73.8536 59.3369 73.573 59.2557C73.2975 59.1731 72.9937 59.1764 72.6617 59.2653C72.2944 59.3637 72.0103 59.5208 71.8092 59.7364C71.6068 59.947 71.4721 60.1988 71.405 60.4917C71.3366 60.7797 71.3146 61.0902 71.3392 61.4233C71.3674 61.7501 71.4267 62.082 71.517 62.419L71.5878 62.6832C71.6781 63.0202 71.7934 63.3398 71.9337 63.6419C72.0739 63.9441 72.2457 64.2027 72.4489 64.4178C72.6558 64.6266 72.9003 64.7741 73.1822 64.8603C73.4628 64.9415 73.7892 64.9322 74.1615 64.8325ZM80.8487 55.6805L83.0366 63.8456L81.2104 64.3349L79.0225 56.1698L80.8487 55.6805ZM83.5277 54.9626L83.9119 56.3964L76.7731 58.3093L76.3889 56.8755L83.5277 54.9626ZM90.9742 59.9636L89.9308 56.0697C89.8526 55.7779 89.7324 55.5405 89.5701 55.3575C89.4079 55.1745 89.2031 55.0541 88.9557 54.9964C88.7134 54.9373 88.4313 54.9509 88.1093 55.0372C87.8125 55.1167 87.5694 55.2358 87.38 55.3943C87.1907 55.5529 87.0585 55.7339 86.9836 55.9373C86.9087 56.1407 86.9003 56.3506 86.9582 56.5669L85.1471 57.0522C85.0608 56.7302 85.0552 56.3974 85.1303 56.0538C85.2054 55.7101 85.3597 55.3803 85.5931 55.0643C85.8266 54.7484 86.1314 54.4672 86.5075 54.2208C86.8837 53.9744 87.3283 53.7825 87.8414 53.645C88.4552 53.4805 89.0262 53.4381 89.5543 53.5176C90.0875 53.5959 90.5459 53.8073 90.9295 54.1521C91.3167 54.4905 91.5939 54.9716 91.7611 55.5954L92.7337 59.2252C92.8334 59.5975 92.9482 59.9253 93.078 60.2086C93.2116 60.4856 93.3576 60.7188 93.5162 60.9081L93.5486 61.0289L91.6846 61.5283C91.5465 61.355 91.4119 61.1242 91.2807 60.8358C91.1532 60.5411 91.051 60.2503 90.9742 59.9636ZM90.3466 56.5649L90.663 57.6852L89.3574 58.035C89.0204 58.1254 88.7323 58.2376 88.4933 58.3717C88.2529 58.5009 88.0633 58.6487 87.9246 58.8153C87.7859 58.9818 87.6967 59.1621 87.657 59.3561C87.6174 59.55 87.6265 59.7552 87.6845 59.9715C87.7424 60.1878 87.846 60.3731 87.9951 60.5272C88.1429 60.6764 88.3259 60.7756 88.544 60.825C88.7672 60.8731 89.0171 60.86 89.2938 60.7859C89.6661 60.6861 89.9704 60.5237 90.2066 60.2986C90.4466 60.0672 90.6174 59.8192 90.719 59.5547C90.8194 59.2852 90.8476 59.0485 90.8037 58.8445L91.6087 59.4943C91.6036 59.7167 91.5598 59.9657 91.4773 60.2413C91.3947 60.5168 91.2642 60.7944 91.0857 61.0741C90.9109 61.3474 90.6782 61.5958 90.3876 61.8192C90.102 62.0413 89.7479 62.209 89.3253 62.3222C88.7921 62.4651 88.2883 62.4869 87.8142 62.3875C87.3386 62.283 86.9341 62.0814 86.6006 61.7825C86.2658 61.4786 86.0363 61.0952 85.9123 60.6324C85.7964 60.1997 85.7744 59.7958 85.8464 59.4207C85.9221 59.0391 86.0881 58.6927 86.3444 58.3814C86.6057 58.0687 86.9523 57.7925 87.3841 57.5528C87.8146 57.308 88.3267 57.1061 88.9203 56.947L90.3466 56.5649ZM98.174 56.0447L95.563 56.7443L95.2041 55.4655L97.3473 54.8912C97.6994 54.7969 97.9793 54.6842 98.1868 54.5531C98.3993 54.4206 98.5421 54.2691 98.615 54.0986C98.6866 53.9231 98.6948 53.7322 98.6395 53.5259C98.5937 53.3548 98.5212 53.2152 98.4221 53.107C98.3216 52.9937 98.1927 52.915 98.0353 52.8709C97.8816 52.8204 97.6994 52.8045 97.4887 52.8232C97.2817 52.8356 97.0474 52.8768 96.7858 52.9469L95.2992 53.3452L97.1029 60.0765L95.2842 60.5638L93.0964 52.3987L96.4017 51.5131C96.9249 51.3729 97.4074 51.2921 97.8492 51.2708C98.2961 51.2481 98.6928 51.2901 99.0395 51.3967C99.3862 51.5033 99.676 51.6791 99.9088 51.924C100.145 52.1626 100.315 52.4731 100.417 52.8555C100.485 53.107 100.493 53.3583 100.441 53.6093C100.395 53.859 100.289 54.0976 100.124 54.3253C99.9581 54.553 99.7367 54.7632 99.4595 54.9562C99.1809 55.144 98.8463 55.3038 98.4556 55.4354L98.174 56.0447ZM99.1102 59.5386L95.9709 60.3798L96.3112 58.7519L98.726 58.1048C99.048 58.0186 99.3038 57.9069 99.4935 57.7698C99.6833 57.6327 99.8082 57.4752 99.8684 57.2973C99.9323 57.113 99.9359 56.9152 99.8793 56.7039C99.8213 56.4876 99.7211 56.3149 99.5787 56.1859C99.4363 56.0569 99.2487 55.9805 99.0158 55.9566C98.7866 55.9264 98.506 55.9557 98.174 56.0447L96.0987 56.6008L95.7701 55.3138L98.2377 54.6526L98.8919 55.0112C99.4195 54.9076 99.8793 54.903 100.271 54.9975C100.663 55.0919 100.982 55.2571 101.229 55.493C101.476 55.7289 101.643 56.0129 101.732 56.3449C101.835 56.7273 101.852 57.0839 101.784 57.4148C101.722 57.7443 101.576 58.0449 101.347 58.3166C101.121 58.5819 100.821 58.8188 100.445 59.0273C100.068 59.2307 99.6233 59.4011 99.1102 59.5386ZM103.753 52.3256L106.16 51.6805C106.865 51.4918 107.495 51.4496 108.051 51.554C108.608 51.6583 109.071 51.8874 109.441 52.2413C109.814 52.5887 110.073 53.0316 110.217 53.5699C110.324 53.9673 110.35 54.3567 110.296 54.7379C110.24 55.114 110.103 55.4663 109.883 55.7947C109.669 56.1217 109.374 56.4109 109 56.6623C108.63 56.9124 108.181 57.1082 107.653 57.2497L104.038 58.2183L101.85 50.0532L103.676 49.5638L105.478 56.2876L107.266 55.8084C107.629 55.7113 107.901 55.5709 108.084 55.3872C108.266 55.2034 108.378 54.9981 108.42 54.7713C108.467 54.5431 108.46 54.3158 108.399 54.0894C108.337 53.858 108.228 53.6526 108.072 53.4733C107.921 53.2927 107.72 53.1659 107.469 53.0931C107.218 53.0203 106.911 53.0324 106.549 53.1294L104.141 53.7745L103.753 52.3256ZM113.268 46.9938L115.455 55.1589L113.629 55.6483L111.441 47.4832L113.268 46.9938ZM115.947 46.276L116.331 47.7098L109.192 49.6227L108.808 48.1889L115.947 46.276ZM122.431 53.4516C121.827 53.6134 121.255 53.6615 120.715 53.5961C120.178 53.5243 119.69 53.3556 119.252 53.0901C118.82 52.8232 118.448 52.4725 118.138 52.0381C117.827 51.6037 117.597 51.1072 117.447 50.5488L117.366 50.247C117.195 49.608 117.133 49.0046 117.181 48.4365C117.228 47.8684 117.368 47.3563 117.602 46.9001C117.834 46.4388 118.151 46.0494 118.551 45.7319C118.951 45.4144 119.415 45.1849 119.943 45.0433C120.527 44.8869 121.064 44.8482 121.554 44.9272C122.044 45.0061 122.481 45.1857 122.863 45.4661C123.249 45.74 123.578 46.1022 123.85 46.5524C124.127 47.0013 124.344 47.5201 124.501 48.1087L124.71 48.8859L118.401 50.5764L118.051 49.2709L122.564 48.0617L122.525 47.9183C122.428 47.594 122.28 47.3046 122.083 47.0502C121.89 46.7945 121.649 46.6109 121.361 46.4995C121.072 46.3882 120.727 46.3864 120.324 46.4942C120.022 46.5751 119.771 46.7126 119.569 46.9068C119.371 47.0946 119.227 47.3301 119.136 47.6134C119.044 47.8966 119.002 48.2208 119.008 48.5858C119.018 48.9444 119.079 49.335 119.193 49.7576L119.274 50.0595C119.369 50.4167 119.506 50.7359 119.684 51.0172C119.865 51.2921 120.082 51.5171 120.334 51.6923C120.586 51.8674 120.865 51.984 121.172 52.042C121.477 52.095 121.803 52.075 122.15 51.982C122.588 51.8647 122.954 51.6722 123.249 51.4044C123.544 51.1367 123.774 50.8081 123.94 50.4188L125.147 51.0902C125.039 51.3939 124.876 51.7018 124.658 52.0137C124.438 52.3206 124.144 52.6016 123.776 52.8567C123.413 53.1104 122.964 53.3087 122.431 53.4516ZM129.509 47.1148L129.462 46.9412C129.304 46.3526 129.244 45.7839 129.28 45.235C129.315 44.681 129.443 44.1747 129.666 43.7162C129.891 43.2513 130.211 42.853 130.623 42.5213C131.04 42.1833 131.545 41.9348 132.138 41.7757C132.737 41.6153 133.298 41.5781 133.823 41.664C134.351 41.7436 134.829 41.9282 135.257 42.2179C135.684 42.5025 136.051 42.876 136.358 43.3383C136.664 43.7955 136.896 44.3185 137.054 44.9071L137.1 45.0807C137.258 45.6693 137.319 46.238 137.282 46.7869C137.246 47.3359 137.115 47.8428 136.889 48.3077C136.662 48.7676 136.343 49.1659 135.931 49.5026C135.519 49.8342 135.016 50.0796 134.422 50.2386C133.823 50.399 133.26 50.4395 132.732 50.3599C132.207 50.274 131.732 50.0887 131.305 49.804C130.877 49.5143 130.51 49.1409 130.204 48.6836C129.898 48.2264 129.666 47.7034 129.509 47.1148ZM131.281 46.4539L131.327 46.6275C131.426 46.9948 131.556 47.3318 131.719 47.6386C131.883 47.9453 132.078 48.2004 132.305 48.4038C132.532 48.6072 132.79 48.7456 133.079 48.8191C133.368 48.8925 133.687 48.8828 134.034 48.7897C134.371 48.6994 134.644 48.5508 134.853 48.3439C135.066 48.1356 135.221 47.8867 135.316 47.597C135.411 47.3074 135.452 46.9889 135.44 46.6417C135.433 46.2931 135.38 45.9352 135.281 45.568L135.235 45.3944C135.138 45.0322 135.006 44.7009 134.839 44.4005C134.676 44.0937 134.478 43.8367 134.244 43.6297C134.016 43.4213 133.757 43.2803 133.468 43.2069C133.182 43.127 132.869 43.133 132.526 43.2246C132.184 43.3163 131.907 43.4688 131.695 43.6821C131.486 43.889 131.335 44.1398 131.241 44.4345C131.147 44.7291 131.107 45.0501 131.119 45.3973C131.13 45.7395 131.184 46.0917 131.281 46.4539ZM141.113 39.5326L143.301 47.6977L141.475 48.187L139.287 40.0219L141.113 39.5326ZM143.792 38.8148L144.177 40.2486L137.038 42.1614L136.654 40.7276L143.792 38.8148ZM149.531 41.847L147.961 42.2676L147.714 41.3469L148.982 41.0072C149.304 40.921 149.549 40.8095 149.717 40.6727C149.891 40.5346 149.997 40.3793 150.037 40.2068C150.081 40.0279 150.075 39.8354 150.02 39.6291C149.972 39.448 149.883 39.2884 149.754 39.1503C149.629 39.0059 149.455 38.9071 149.23 38.854C149.006 38.801 148.725 38.8196 148.388 38.9099C148.111 38.984 147.874 39.0961 147.677 39.2459C147.485 39.3944 147.348 39.566 147.265 39.7607C147.182 39.9554 147.169 40.1584 147.226 40.3697L145.407 40.857C145.271 40.3489 145.297 39.8728 145.486 39.4287C145.679 38.9833 145.993 38.5971 146.429 38.2701C146.864 37.9431 147.374 37.7015 147.957 37.5451C148.455 37.4117 148.917 37.3445 149.343 37.3437C149.767 37.3378 150.145 37.3984 150.475 37.5255C150.81 37.6462 151.09 37.8354 151.315 38.0932C151.544 38.3445 151.711 38.6639 151.814 39.0512C151.889 39.3279 151.893 39.6071 151.829 39.8886C151.764 40.1702 151.634 40.4396 151.438 40.6968C151.242 40.949 150.982 41.1751 150.658 41.3751C150.339 41.5738 149.963 41.7311 149.531 41.847ZM147.819 41.7393L149.389 41.3188C149.872 41.1894 150.312 41.1226 150.71 41.1184C151.107 41.1092 151.455 41.1615 151.755 41.2752C152.055 41.3889 152.304 41.5622 152.501 41.7951C152.702 42.0217 152.848 42.306 152.94 42.6481C153.042 43.0305 153.052 43.3973 152.968 43.7487C152.888 44.0937 152.725 44.4123 152.48 44.7044C152.24 44.9953 151.928 45.2513 151.545 45.4725C151.162 45.6937 150.722 45.8711 150.224 46.0045C149.681 46.1501 149.128 46.2011 148.566 46.1575C148.01 46.1125 147.515 45.9459 147.082 45.6575C146.652 45.3628 146.359 44.9211 146.201 44.3325L148.02 43.8452C148.075 44.0515 148.19 44.2283 148.364 44.3757C148.538 44.5231 148.759 44.623 149.027 44.6754C149.293 44.7227 149.592 44.7019 149.924 44.6129C150.266 44.5212 150.531 44.3936 150.719 44.23C150.906 44.0613 151.028 43.8748 151.087 43.6704C151.144 43.461 151.145 43.2557 151.092 43.0544C151.019 42.7828 150.907 42.5781 150.757 42.4404C150.607 42.3027 150.414 42.2251 150.177 42.2076C149.939 42.185 149.657 42.2176 149.33 42.3052L148.062 42.6449L147.819 41.7393ZM154.962 38.6041L157.369 37.9591C158.074 37.7704 158.704 37.7282 159.261 37.8325C159.817 37.9369 160.28 38.166 160.65 38.5198C161.023 38.8673 161.282 39.3102 161.426 39.8485C161.533 40.2459 161.559 40.6352 161.505 41.0164C161.449 41.3926 161.312 41.7448 161.092 42.0732C160.878 42.4002 160.584 42.6895 160.209 42.9409C159.839 43.1909 159.39 43.3867 158.862 43.5283L155.247 44.4968L153.059 36.3317L154.885 35.8424L156.687 42.5661L158.476 42.0869C158.838 41.9899 159.11 41.8495 159.293 41.6657C159.475 41.482 159.588 41.2767 159.629 41.0498C159.676 40.8217 159.669 40.5944 159.608 40.368C159.546 40.1366 159.437 39.9312 159.281 39.7519C159.131 39.5712 158.929 39.4445 158.678 39.3716C158.427 39.2988 158.12 39.3109 157.758 39.408L155.35 40.053L154.962 38.6041ZM163.201 33.6141L165.389 41.7792L163.571 42.2665L161.383 34.1014L163.201 33.6141ZM170.573 36.6454L167.962 37.345L167.603 36.0662L169.746 35.4919C170.099 35.3976 170.378 35.2849 170.586 35.1538C170.798 35.0213 170.941 34.8698 171.014 34.6993C171.086 34.5238 171.094 34.3329 171.039 34.1266C170.993 33.9556 170.92 33.8159 170.821 33.7077C170.721 33.5944 170.592 33.5157 170.434 33.4716C170.281 33.4211 170.099 33.4052 169.888 33.4239C169.681 33.4363 169.447 33.4775 169.185 33.5476L167.698 33.9459L169.502 40.6772L167.683 41.1645L165.496 32.9994L168.801 32.1138C169.324 31.9736 169.807 31.8928 170.248 31.8715C170.695 31.8488 171.092 31.8908 171.439 31.9974C171.785 32.104 172.075 32.2798 172.308 32.5248C172.544 32.7633 172.714 33.0738 172.816 33.4562C172.884 33.7077 172.892 33.959 172.84 34.21C172.794 34.4597 172.688 34.6983 172.523 34.926C172.357 35.1537 172.136 35.3639 171.859 35.5569C171.58 35.7447 171.245 35.9045 170.855 36.0361L170.573 36.6454ZM171.509 40.1393L168.37 40.9805L168.71 39.3526L171.125 38.7055C171.447 38.6193 171.703 38.5076 171.893 38.3705C172.082 38.2334 172.207 38.0759 172.268 37.898C172.331 37.7137 172.335 37.5159 172.278 37.3046C172.22 37.0883 172.12 36.9156 171.978 36.7866C171.835 36.6577 171.648 36.5812 171.415 36.5573C171.186 36.5271 170.905 36.5564 170.573 36.6454L168.498 37.2015L168.169 35.9146L170.637 35.2533L171.291 35.6119C171.819 35.5083 172.278 35.5037 172.67 35.5982C173.062 35.6926 173.382 35.8578 173.628 36.0937C173.875 36.3296 174.042 36.6136 174.131 36.9456C174.234 37.328 174.251 37.6846 174.184 38.0155C174.121 38.345 173.975 38.6456 173.746 38.9173C173.52 39.1826 173.22 39.4195 172.844 39.628C172.467 39.8314 172.022 40.0018 171.509 40.1393ZM177.56 36.6416L177.9 37.9416C178.038 38.4547 178.051 39.0173 177.94 39.6294C177.829 40.2415 177.61 40.7802 177.281 41.2456L176.156 40.9405C176.236 40.6764 176.303 40.4131 176.357 40.1507C176.411 39.8882 176.438 39.6168 176.438 39.3363C176.439 39.0558 176.396 38.7571 176.311 38.4402L175.945 37.0743L177.56 36.6416ZM66.6033 85.0721L68.3344 78.7039L70.153 78.2166L72.3408 86.3817L70.5222 86.869L69.0441 81.3527L67.315 87.7284L65.4964 88.2157L63.3085 80.0506L65.1272 79.5633L66.6033 85.0721ZM81.4045 75.2018L81.7928 76.6507L77.763 77.7304L77.3748 76.2815L81.4045 75.2018ZM77.805 76.1663L79.9928 84.3314L78.1741 84.8187L75.9863 76.6536L77.805 76.1663ZM82.8308 74.8196L85.0186 82.9847L83.1924 83.474L81.0046 75.3089L82.8308 74.8196ZM85.5261 78.5701L85.4796 78.3966C85.3219 77.8079 85.2612 77.2392 85.2974 76.6903C85.3323 76.1363 85.4609 75.6301 85.6831 75.1715C85.909 74.7066 86.2283 74.3083 86.6409 73.9766C87.0572 73.6386 87.5621 73.3901 88.1558 73.231C88.7544 73.0706 89.316 73.0334 89.8405 73.1193C90.3687 73.1989 90.8468 73.3835 91.2749 73.6732C91.7017 73.9578 92.0687 74.3313 92.3759 74.7936C92.6817 75.2509 92.9135 75.7738 93.0712 76.3624L93.1177 76.536C93.2754 77.1246 93.3362 77.6933 93.2999 78.2423C93.2637 78.7912 93.1326 79.2981 92.9067 79.763C92.6794 80.2229 92.3602 80.6212 91.9489 80.9579C91.5363 81.2895 91.0332 81.5349 90.4396 81.6939C89.8409 81.8543 89.2775 81.8948 88.7493 81.8152C88.2248 81.7293 87.7492 81.544 87.3224 81.2593C86.8943 80.9696 86.5273 80.5962 86.2215 80.1389C85.9156 79.6817 85.6839 79.1587 85.5261 78.5701ZM87.2983 77.9092L87.3448 78.0828C87.4432 78.4501 87.574 78.7871 87.737 79.0939C87.9001 79.4007 88.0952 79.6557 88.3222 79.8591C88.5493 80.0625 88.8074 80.2009 89.0967 80.2744C89.386 80.3478 89.7042 80.3381 90.0513 80.245C90.3884 80.1547 90.6613 80.0061 90.8701 79.7992C91.0839 79.5909 91.2383 79.342 91.3332 79.0523C91.4281 78.7627 91.4695 78.4442 91.4574 78.097C91.4502 77.7484 91.3975 77.3905 91.2991 77.0233L91.2526 76.8497C91.1555 76.4875 91.0236 76.1562 90.8568 75.8558C90.6937 75.549 90.4955 75.2921 90.2621 75.085C90.0337 74.8766 89.7748 74.7356 89.4855 74.6622C89.1999 74.5823 88.8861 74.5883 88.544 74.6799C88.2019 74.7716 87.9246 74.9241 87.7122 75.1374C87.5034 75.3443 87.3522 75.5951 87.2586 75.8898C87.165 76.1844 87.1243 76.5054 87.1365 76.8526C87.1473 77.1948 87.2012 77.547 87.2983 77.9092ZM98.8893 70.5168L99.2775 71.9656L95.2931 73.0333L94.9049 71.5844L98.8893 70.5168ZM100.316 70.1346L102.503 78.2997L100.685 78.787L98.4969 70.6219L100.316 70.1346ZM94.4596 71.7037L96.2556 71.2224L97.1186 75.3183C97.2488 75.9251 97.33 76.4695 97.3621 76.9516C97.3979 77.4273 97.3867 77.8482 97.3284 78.2143C97.2688 78.5754 97.1603 78.8848 97.0029 79.1427C96.8455 79.4005 96.6388 79.615 96.3827 79.7861C96.1265 79.9571 95.8224 80.0898 95.4702 80.1842L94.9043 80.3359L94.4964 78.8437L94.7771 78.7442C94.9591 78.6793 95.1073 78.5883 95.2216 78.4714C95.3345 78.3495 95.4179 78.1978 95.4717 78.0162C95.5305 77.8333 95.5571 77.6105 95.5514 77.3478C95.5507 77.0838 95.5229 76.7785 95.4678 76.432C95.4177 76.0841 95.3427 75.6836 95.2429 75.2305L94.4596 71.7037ZM106.566 76.2567L106.836 68.3876L108.782 67.8659L108.029 78.1537C108.007 78.3751 107.968 78.6202 107.91 78.8891C107.853 79.1579 107.755 79.4242 107.615 79.6881C107.482 79.9556 107.289 80.1932 107.038 80.4008C106.787 80.6135 106.458 80.7744 106.051 80.8836C105.89 80.9268 105.73 80.9535 105.571 80.9637C105.418 80.9777 105.272 80.9871 105.134 80.9919L104.754 79.6054C104.806 79.597 104.867 79.5858 104.939 79.572C105.016 79.5568 105.077 79.5431 105.122 79.531C105.424 79.4501 105.666 79.345 105.847 79.2156C106.029 79.0913 106.161 78.9317 106.244 78.7371C106.332 78.541 106.384 78.295 106.402 77.9991L106.566 76.2567ZM103.364 69.3177L106.941 74.9105L107.78 76.7403L106.606 77.4025L101.402 69.8434L103.364 69.3177ZM116.382 65.8297L118.569 73.9948L116.751 74.4821L114.563 66.317L116.382 65.8297ZM116.58 69.6506L116.967 71.092C116.771 71.2469 116.545 71.4016 116.29 71.5563C116.039 71.7045 115.769 71.8442 115.481 71.9754C115.191 72.1016 114.893 72.2058 114.586 72.288C113.866 72.4808 113.215 72.5366 112.633 72.4554C112.055 72.3729 111.564 72.1405 111.16 71.7582C110.759 71.3695 110.464 70.8204 110.274 70.1111L109.611 67.6359L111.422 67.1506L112.085 69.6258C112.194 70.0333 112.341 70.3416 112.527 70.5508C112.717 70.7585 112.95 70.8822 113.225 70.9218C113.5 70.9614 113.823 70.9313 114.195 70.8316C114.507 70.748 114.796 70.649 115.062 70.5346C115.327 70.4152 115.585 70.2814 115.836 70.1331C116.088 69.9849 116.336 69.824 116.58 69.6506ZM121.676 70.3154L123.407 63.9472L125.226 63.4599L127.414 71.625L125.595 72.1123L124.117 66.5959L122.388 72.9716L120.569 73.459L118.381 65.2939L120.2 64.8066L121.676 70.3154ZM130.938 61.9292L133.126 70.0943L131.3 70.5836L129.112 62.4185L130.938 61.9292ZM133.617 61.2114L134.002 62.6452L126.863 64.558L126.479 63.1242L133.617 61.2114ZM140.102 68.387C139.498 68.5488 138.926 68.5969 138.385 68.5315C137.848 68.4596 137.361 68.291 136.923 68.0254C136.491 67.7586 136.119 67.4079 135.808 66.9735C135.498 66.539 135.268 66.0426 135.118 65.4842L135.037 65.1823C134.866 64.5434 134.804 63.9399 134.851 63.3719C134.899 62.8038 135.039 62.2917 135.273 61.8355C135.505 61.3742 135.821 60.9848 136.222 60.6673C136.622 60.3498 137.086 60.1202 137.614 59.9787C138.198 59.8223 138.735 59.7836 139.225 59.8625C139.715 59.9414 140.152 60.1211 140.534 60.4014C140.92 60.6754 141.249 61.0375 141.521 61.4878C141.797 61.9367 142.015 62.4554 142.172 63.044L142.381 63.8213L136.072 65.5117L135.722 64.2062L140.235 62.9971L140.196 62.8537C140.099 62.5294 139.951 62.24 139.753 61.9856C139.561 61.7298 139.32 61.5463 139.032 61.4349C138.743 61.3235 138.397 61.3218 137.995 61.4296C137.693 61.5105 137.441 61.648 137.24 61.8422C137.042 62.0299 136.898 62.2655 136.807 62.5487C136.715 62.832 136.673 63.1561 136.679 63.5212C136.689 63.8798 136.75 64.2704 136.863 64.693L136.944 64.9949C137.04 65.352 137.177 65.6713 137.355 65.9525C137.536 66.2274 137.753 66.4525 138.005 66.6276C138.256 66.8028 138.536 66.9194 138.842 66.9774C139.148 67.0304 139.474 67.0104 139.821 66.9173C140.259 66.8001 140.625 66.6076 140.92 66.3398C141.215 66.0721 141.445 65.7435 141.61 65.3541L142.817 66.0255C142.71 66.3293 142.547 66.6371 142.329 66.9491C142.109 67.256 141.815 67.537 141.447 67.7921C141.083 68.0458 140.635 68.2441 140.102 68.387ZM151.584 63.7575C151.881 63.6779 152.132 63.5486 152.337 63.3696C152.546 63.1841 152.696 62.9662 152.785 62.7158C152.879 62.4641 152.897 62.1978 152.838 61.9171L154.551 61.4581C154.682 61.989 154.655 62.5113 154.469 63.0248C154.283 63.5383 153.976 63.9901 153.546 64.3801C153.116 64.7651 152.598 65.0385 151.995 65.2003C151.371 65.3674 150.799 65.4074 150.28 65.3201C149.759 65.2278 149.295 65.0341 148.887 64.739C148.479 64.4439 148.131 64.0708 147.843 63.6195C147.559 63.1669 147.342 62.6589 147.192 62.0955L147.121 61.8313C146.97 61.2679 146.904 60.7194 146.923 60.186C146.945 59.6461 147.059 59.1464 147.265 58.6869C147.471 58.2273 147.777 57.8299 148.183 57.4946C148.588 57.1542 149.1 56.9012 149.718 56.7354C150.372 56.5601 150.981 56.5372 151.544 56.6667C152.106 56.7912 152.59 57.0471 152.995 57.4345C153.405 57.8154 153.696 58.309 153.869 58.915L152.156 59.374C152.06 59.0762 151.912 58.8247 151.712 58.6197C151.515 58.4082 151.276 58.2619 150.995 58.1807C150.72 58.0981 150.416 58.1013 150.084 58.1903C149.717 58.2887 149.433 58.4457 149.232 58.6614C149.029 58.872 148.894 59.1238 148.827 59.4167C148.759 59.7047 148.737 60.0152 148.762 60.3483C148.79 60.6751 148.849 61.007 148.939 61.344L149.01 61.6082C149.1 61.9452 149.216 62.2648 149.356 62.5669C149.496 62.869 149.668 63.1277 149.871 63.3428C150.078 63.5516 150.323 63.6991 150.605 63.7853C150.885 63.8665 151.212 63.8572 151.584 63.7575ZM156.445 55.0948L158.633 63.2599L156.814 63.7472L154.626 55.5821L156.445 55.0948ZM161.773 53.6672L159.414 59.5646L157.339 60.1206L156.656 58.5403L158.173 58.1338L159.501 54.2759L161.773 53.6672ZM161.832 62.4025L158.418 59.4999L159.575 58.0818L164.225 61.7615L161.832 62.4025ZM166.38 58.3369L168.111 51.9687L169.93 51.4814L172.118 59.6465L170.299 60.1338L168.821 54.6175L167.092 60.9932L165.273 61.4805L163.086 53.3154L164.904 52.8281L166.38 58.3369ZM173.334 50.5695L175.152 50.0822L175.832 52.9816C176.031 53.8234 176.127 54.566 176.122 55.2091C176.116 55.8523 176.035 56.4158 175.879 56.8998C175.722 57.3788 175.509 57.7942 175.242 58.1461C174.98 58.4967 174.686 58.7966 174.359 59.046L173.823 59.1895L173.439 57.7557L173.692 57.6719C173.846 57.3825 173.97 57.1012 174.064 56.828C174.162 56.5484 174.228 56.2529 174.263 55.9415C174.297 55.6251 174.293 55.2677 174.251 54.8691C174.214 54.4693 174.135 54.0025 174.013 53.4689L173.334 50.5695ZM173.816 50.4401L178.993 49.053L181.181 57.2181L179.37 57.7033L177.595 51.0777L174.229 51.9795L173.816 50.4401ZM173.02 57.8519L181.91 55.4699L182.949 59.3487L181.13 59.836L180.479 57.4061L175.25 58.8074L175.901 61.2373L174.052 61.7327L173.02 57.8519ZM183.325 47.8923L185.513 56.0574L183.694 56.5447L181.506 48.3796L183.325 47.8923ZM188.652 46.4648L186.294 52.3621L184.219 52.9182L183.536 51.3378L185.053 50.9314L186.381 47.0734L188.652 46.4648ZM188.712 55.2001L185.298 52.2974L186.455 50.8794L191.104 54.5591L188.712 55.2001ZM194.224 52.7688L194.493 44.8997L196.44 44.378L195.687 54.6658C195.665 54.8873 195.626 55.1324 195.568 55.4012C195.511 55.67 195.412 55.9364 195.273 56.2002C195.14 56.4678 194.947 56.7054 194.695 56.913C194.445 57.1257 194.116 57.2866 193.709 57.3958C193.548 57.4389 193.388 57.4656 193.229 57.4759C193.076 57.4898 192.93 57.4992 192.791 57.5041L192.412 56.1176C192.463 56.1092 192.525 56.098 192.597 56.0842C192.674 56.069 192.735 56.0553 192.78 56.0432C193.082 55.9623 193.323 55.8572 193.504 55.7278C193.687 55.6034 193.819 55.4439 193.902 55.2492C193.989 55.0532 194.042 54.8072 194.06 54.5113L194.224 52.7688ZM191.022 45.8299L194.599 51.4227L195.437 53.2525L194.264 53.9147L189.06 46.3556L191.022 45.8299ZM198.823 40.7146L200.719 48.5131L199.164 48.9297L196.899 41.2302L198.823 40.7146ZM199.56 51.3715C199.486 51.0948 199.514 50.8391 199.645 50.6044C199.78 50.3634 200.011 50.199 200.338 50.1114C200.66 50.0251 200.94 50.0527 201.177 50.1939C201.413 50.3302 201.568 50.5367 201.642 50.8134C201.714 51.08 201.682 51.3339 201.547 51.5749C201.411 51.8109 201.182 51.9721 200.86 52.0584C200.533 52.146 200.251 52.1217 200.015 51.9854C199.783 51.8427 199.631 51.6381 199.56 51.3715Z" fill="white"/>
</g>
</g>
<defs>
<filter id="filter0_d_689_1082" x="-1.51318" y="-2" width="230.513" height="131.518" filterUnits="userSpaceOnUse" color-interpolation-filters="sRGB">
<feFlood flood-opacity="0" result="BackgroundImageFix"/>
<feColorMatrix in="SourceAlpha" type="matrix" values="0 0 0 0 0 0 0 0 0 0 0 0 0 0 0 0 0 0 127 0" result="hardAlpha"/>
<feMorphology radius="9" operator="erode" in="SourceAlpha" result="effect1_dropShadow_689_1082"/>
<feOffset dy="4"/>
<feGaussianBlur stdDeviation="7.5"/>
<feComposite in2="hardAlpha" operator="out"/>
<feColorMatrix type="matrix" values="0 0 0 0 0.14902 0 0 0 0 0.403922 0 0 0 0 1 0 0 0 1 0"/>
<feBlend mode="normal" in2="BackgroundImageFix" result="effect1_dropShadow_689_1082"/>
<feBlend mode="normal" in="SourceGraphic" in2="effect1_dropShadow_689_1082" result="shape"/>
</filter>
<clipPath id="clip0_689_1082">
<rect x="4.48682" y="53.8345" width="208.001" height="68" rx="10" transform="rotate(-15 4.48682 53.8345)" fill="white"/>
</clipPath>
</defs>
</svg>
