<svg width="162" height="34" viewBox="0 0 162 34" fill="none" xmlns="http://www.w3.org/2000/svg">
<g id="Group 176">
<g id="Vector">
<path d="M0 0H35.3333V12.24H0V0Z" fill="#2667FF"/>
<path d="M0 13.6H35.3333V23.12H0V13.6Z" fill="#2667FF"/>
<path d="M0 24.48H35.3333V29.92H0V24.48Z" fill="#2667FF"/>
<path d="M0 31.28H35.3333V34H0V31.28Z" fill="#2667FF"/>
</g>
<g id="LoftSoft">
<path id="Vector_2" d="M146.785 0.344727H161.456V4.65977H156.494V30.55H151.747V4.65977H146.785V0.344727Z" fill="white"/>
<path id="Vector_3" d="M138.272 13.7645H144.4V18.0795H138.272V30.55H133.526V0.344727H146.083V4.65977H138.272V13.7645Z" fill="white"/>
<path id="Vector_4" d="M121.75 23.6033C121.75 24.6964 121.966 25.4731 122.397 25.9334C122.857 26.3649 123.462 26.5806 124.21 26.5806C124.957 26.5806 125.547 26.3649 125.979 25.9334C126.439 25.4731 126.669 24.6964 126.669 23.6033V7.29241C126.669 6.19927 126.439 5.43695 125.979 5.00544C125.547 4.54517 124.957 4.31504 124.21 4.31504C123.462 4.31504 122.857 4.54517 122.397 5.00544C121.966 5.43695 121.75 6.19927 121.75 7.29241V23.6033ZM117.003 7.59447C117.003 5.14928 117.622 3.27943 118.859 1.98492C120.096 0.661638 121.879 0 124.21 0C126.54 0 128.323 0.661638 129.56 1.98492C130.797 3.27943 131.416 5.14928 131.416 7.59447V23.3012C131.416 25.7464 130.797 27.6306 129.56 28.9539C128.323 30.2484 126.54 30.8957 124.21 30.8957C121.879 30.8957 120.096 30.2484 118.859 28.9539C117.622 27.6306 117.003 25.7464 117.003 23.3012V7.59447Z" fill="white"/>
<path id="Vector_5" d="M101.201 7.59447C101.201 5.14928 101.777 3.27943 102.927 1.98492C104.107 0.661638 105.861 0 108.192 0C110.522 0 112.262 0.661638 113.413 1.98492C114.592 3.27943 115.182 5.14928 115.182 7.59447V8.75953H110.694V7.29241C110.694 6.19927 110.479 5.43695 110.047 5.00544C109.644 4.54517 109.069 4.31504 108.321 4.31504C107.573 4.31504 106.983 4.54517 106.552 5.00544C106.149 5.43695 105.948 6.19927 105.948 7.29241C105.948 8.32802 106.178 9.24857 106.638 10.054C107.098 10.8307 107.674 11.5787 108.364 12.2979C109.055 12.9883 109.788 13.6931 110.565 14.4122C111.37 15.1026 112.118 15.865 112.809 16.6992C113.499 17.5334 114.074 18.4827 114.535 19.5471C114.995 20.6115 115.225 21.8629 115.225 23.3012C115.225 25.7464 114.621 27.6306 113.413 28.9539C112.233 30.2484 110.479 30.8957 108.148 30.8957C105.818 30.8957 104.049 30.2484 102.841 28.9539C101.661 27.6306 101.072 25.7464 101.072 23.3012V21.23H105.559V23.6033C105.559 24.6964 105.775 25.4587 106.207 25.8902C106.667 26.3217 107.271 26.5375 108.019 26.5375C108.767 26.5375 109.357 26.3217 109.788 25.8902C110.248 25.4587 110.479 24.6964 110.479 23.6033C110.479 22.5677 110.248 21.6615 109.788 20.8848C109.328 20.0793 108.753 19.3314 108.062 18.641C107.372 17.9218 106.624 17.217 105.818 16.5266C105.042 15.8074 104.308 15.0307 103.618 14.1965C102.927 13.3622 102.352 12.4129 101.892 11.3486C101.431 10.2842 101.201 9.03281 101.201 7.59447Z" fill="white"/>
<path id="Vector_6" d="M85.5146 0.344727H100.186V4.65977H95.2235V30.55H90.4769V4.65977H85.5146V0.344727Z" fill="white"/>
<path id="Vector_7" d="M77.0024 13.7645H83.1298V18.0795H77.0024V30.55H72.2559V0.344727H84.8126V4.65977H77.0024V13.7645Z" fill="white"/>
<path id="Vector_8" d="M60.4799 23.6033C60.4799 24.6964 60.6957 25.4731 61.1272 25.9334C61.5875 26.3649 62.1916 26.5806 62.9395 26.5806C63.6875 26.5806 64.2772 26.3649 64.7087 25.9334C65.169 25.4731 65.3991 24.6964 65.3991 23.6033V7.29241C65.3991 6.19927 65.169 5.43695 64.7087 5.00544C64.2772 4.54517 63.6875 4.31504 62.9395 4.31504C62.1916 4.31504 61.5875 4.54517 61.1272 5.00544C60.6957 5.43695 60.4799 6.19927 60.4799 7.29241V23.6033ZM55.7334 7.59447C55.7334 5.14928 56.3519 3.27943 57.5889 1.98492C58.8258 0.661638 60.6094 0 62.9395 0C65.2696 0 67.0532 0.661638 68.2902 1.98492C69.5271 3.27943 70.1456 5.14928 70.1456 7.59447V23.3012C70.1456 25.7464 69.5271 27.6306 68.2902 28.9539C67.0532 30.2484 65.2696 30.8957 62.9395 30.8957C60.6094 30.8957 58.8258 30.2484 57.5889 28.9539C56.3519 27.6306 55.7334 25.7464 55.7334 23.3012V7.59447Z" fill="white"/>
<path id="Vector_9" d="M42 0.344727H46.7465V26.235H54.5568V30.55H42V0.344727Z" fill="white"/>
</g>
</g>
</svg>
