<svg width="24" height="24" viewBox="0 0 24 24" fill="none" xmlns="http://www.w3.org/2000/svg">
<g id="ph:arrow-up">
<path id="Vector" d="M12.9693 19.2806C12.8995 19.211 12.8442 19.1282 12.8065 19.0372C12.7687 18.9461 12.7493 18.8486 12.7493 18.75C12.7493 18.6514 12.7687 18.5538 12.8065 18.4628C12.8442 18.3717 12.8995 18.289 12.9693 18.2194L18.4396 12.75L3.7499 12.75C3.55099 12.75 3.36022 12.671 3.21957 12.5303C3.07892 12.3897 2.9999 12.1989 2.9999 12C2.9999 11.8011 3.07892 11.6103 3.21957 11.4697C3.36022 11.329 3.55099 11.25 3.7499 11.25L18.4396 11.25L12.9693 5.78061C12.8285 5.63988 12.7495 5.44901 12.7495 5.24999C12.7495 5.05097 12.8285 4.86009 12.9693 4.71936C13.11 4.57863 13.3009 4.49957 13.4999 4.49957C13.6989 4.49957 13.8898 4.57863 14.0305 4.71936L20.7805 11.4694C20.8503 11.539 20.9056 11.6217 20.9433 11.7128C20.9811 11.8038 21.0005 11.9014 21.0005 12C21.0005 12.0986 20.9811 12.1961 20.9433 12.2872C20.9056 12.3782 20.8503 12.461 20.7805 12.5306L14.0305 19.2806C13.9609 19.3503 13.8782 19.4057 13.7871 19.4434C13.6961 19.4812 13.5985 19.5006 13.4999 19.5006C13.4013 19.5006 13.3037 19.4812 13.2127 19.4434C13.1216 19.4057 13.0389 19.3503 12.9693 19.2806Z" fill="white"/>
</g>
</svg>
