<svg width="40" height="40" viewBox="0 0 40 40" fill="none" xmlns="http://www.w3.org/2000/svg">
<rect width="40" height="40" rx="10" fill="#E8F4FF"/>
<mask id="mask0_302_594" style="mask-type:alpha" maskUnits="userSpaceOnUse" x="8" y="8" width="24" height="24">
<rect x="8" y="8" width="24" height="24" fill="#D9D9D9"/>
</mask>
<g mask="url(#mask0_302_594)">
<path d="M15 27V25H22.1C23.15 25 24.0625 24.6667 24.8375 24C25.6125 23.3333 26 22.5 26 21.5C26 20.5 25.6125 19.6667 24.8375 19C24.0625 18.3333 23.15 18 22.1 18H15.8L18.4 20.6L17 22L12 17L17 12L18.4 13.4L15.8 16H22.1C23.7167 16 25.1042 16.525 26.2625 17.575C27.4208 18.625 28 19.9333 28 21.5C28 23.0667 27.4208 24.375 26.2625 25.425C25.1042 26.475 23.7167 27 22.1 27H15Z" fill="black"/>
</g>
</svg>
