<svg width="75" height="75" viewBox="0 0 75 75" fill="none" xmlns="http://www.w3.org/2000/svg">
<g id="lets-icons:back">
<path id="Vector" d="M12.5008 31.2499L10.2914 33.4593L8.08203 31.2499L10.2914 29.0405L12.5008 31.2499ZM65.6258 56.2499C65.6258 57.0787 65.2965 57.8736 64.7105 58.4596C64.1244 59.0457 63.3296 59.3749 62.5008 59.3749C61.672 59.3749 60.8771 59.0457 60.2911 58.4596C59.705 57.8736 59.3758 57.0787 59.3758 56.2499H65.6258ZM25.9164 49.0843L10.2914 33.4593L14.7102 29.0405L30.3352 44.6655L25.9164 49.0843ZM10.2914 29.0405L25.9164 13.4155L30.3352 17.8343L14.7102 33.4593L10.2914 29.0405ZM12.5008 28.1249H43.7508V34.3749H12.5008V28.1249ZM65.6258 49.9999V56.2499H59.3758V49.9999H65.6258ZM43.7508 28.1249C49.5524 28.1249 55.1164 30.4296 59.2187 34.5319C63.3211 38.6343 65.6258 44.1983 65.6258 49.9999H59.3758C59.3758 45.8559 57.7296 41.8816 54.7993 38.9514C51.8691 36.0211 47.8948 34.3749 43.7508 34.3749V28.1249Z" fill="#2767FE"/>
</g>
</svg>
