<svg width="27" height="19" viewBox="0 0 27 19" fill="none" xmlns="http://www.w3.org/2000/svg">
<path d="M1.83333 18.25H25.1667C25.9688 18.25 26.625 17.5938 26.625 16.7917C26.625 15.9896 25.9688 15.3333 25.1667 15.3333H1.83333C1.03125 15.3333 0.375 15.9896 0.375 16.7917C0.375 17.5938 1.03125 18.25 1.83333 18.25ZM1.83333 10.9583H25.1667C25.9688 10.9583 26.625 10.3021 26.625 9.5C26.625 8.69792 25.9688 8.04167 25.1667 8.04167H1.83333C1.03125 8.04167 0.375 8.69792 0.375 9.5C0.375 10.3021 1.03125 10.9583 1.83333 10.9583ZM0.375 2.20833C0.375 3.01042 1.03125 3.66667 1.83333 3.66667H25.1667C25.9688 3.66667 26.625 3.01042 26.625 2.20833C26.625 1.40625 25.9688 0.75 25.1667 0.75H1.83333C1.03125 0.75 0.375 1.40625 0.375 2.20833Z" fill="black"/>
</svg>
