<svg width="50" height="50" viewBox="0 0 50 50" fill="none" xmlns="http://www.w3.org/2000/svg">
<g id="shopping_cart">
<mask id="mask0_318_1669" style="mask-type:alpha" maskUnits="userSpaceOnUse" x="0" y="0" width="50" height="50">
<rect id="Bounding box" width="50" height="50" fill="#D9D9D9"/>
</mask>
<g mask="url(#mask0_318_1669)">
<path id="shopping_cart_2" d="M14.5835 45.8334C13.4377 45.8334 12.4568 45.4254 11.6408 44.6095C10.8248 43.7935 10.4168 42.8126 10.4168 41.6668C10.4168 40.5209 10.8248 39.54 11.6408 38.724C12.4568 37.9081 13.4377 37.5001 14.5835 37.5001C15.7293 37.5001 16.7102 37.9081 17.5262 38.724C18.3422 39.54 18.7502 40.5209 18.7502 41.6668C18.7502 42.8126 18.3422 43.7935 17.5262 44.6095C16.7102 45.4254 15.7293 45.8334 14.5835 45.8334ZM35.4168 45.8334C34.271 45.8334 33.2901 45.4254 32.4741 44.6095C31.6582 43.7935 31.2502 42.8126 31.2502 41.6668C31.2502 40.5209 31.6582 39.54 32.4741 38.724C33.2901 37.9081 34.271 37.5001 35.4168 37.5001C36.5627 37.5001 37.5436 37.9081 38.3595 38.724C39.1755 39.54 39.5835 40.5209 39.5835 41.6668C39.5835 42.8126 39.1755 43.7935 38.3595 44.6095C37.5436 45.4254 36.5627 45.8334 35.4168 45.8334ZM12.8127 12.5001L17.8127 22.9167H32.396L38.1252 12.5001H12.8127ZM10.8335 8.33342H41.5627C42.3613 8.33342 42.9689 8.68932 43.3856 9.40112C43.8022 10.1129 43.8196 10.8334 43.4377 11.5626L36.0418 24.8959C35.6599 25.5904 35.1477 26.1286 34.5054 26.5105C33.863 26.8924 33.1599 27.0834 32.396 27.0834H16.8752L14.5835 31.2501H39.5835V35.4167H14.5835C13.021 35.4167 11.8404 34.731 11.0418 33.3595C10.2432 31.9879 10.2085 30.6251 10.9377 29.2709L13.7502 24.1667L6.25016 8.33342H2.0835V4.16675H8.85433L10.8335 8.33342Z" fill="black" fill-opacity="0.5"/>
</g>
</g>
</svg>
