<svg width="60" height="60" viewBox="0 0 60 60" fill="none" xmlns="http://www.w3.org/2000/svg">
<path d="M22.5 26.2501C22.5 25.7528 22.6975 25.2759 23.0491 24.9242C23.4008 24.5726 23.8777 24.3751 24.375 24.3751H35.625C36.1222 24.3751 36.5991 24.5726 36.9508 24.9242C37.3024 25.2759 37.5 25.7528 37.5 26.2501C37.5 26.7473 37.3024 27.2243 36.9508 27.5759C36.5991 27.9275 36.1222 28.1251 35.625 28.1251H24.375C23.8777 28.1251 23.4008 27.9275 23.0491 27.5759C22.6975 27.2243 22.5 26.7473 22.5 26.2501ZM24.375 31.8751C23.8777 31.8751 23.4008 32.0726 23.0491 32.4242C22.6975 32.7759 22.5 33.2528 22.5 33.7501C22.5 34.2473 22.6975 34.7243 23.0491 35.0759C23.4008 35.4275 23.8777 35.6251 24.375 35.6251H31.875C32.3722 35.6251 32.8491 35.4275 33.2008 35.0759C33.5524 34.7243 33.75 34.2473 33.75 33.7501C33.75 33.2528 33.5524 32.7759 33.2008 32.4242C32.8491 32.0726 32.3722 31.8751 31.875 31.8751H24.375ZM7.49995 30.0001C7.50091 25.0465 9.13655 20.2317 12.1531 16.3025C15.1697 12.3734 19.3986 9.54957 24.1839 8.26911C28.9691 6.98864 34.0431 7.32312 38.6188 9.22064C43.1946 11.1182 47.0162 14.4727 49.4909 18.7638C51.9657 23.0549 52.9551 28.0428 52.3058 32.9536C51.6565 37.8644 49.4048 42.4237 45.8999 45.9243C42.395 49.4248 37.8329 51.6708 32.9212 52.314C28.0096 52.9571 23.023 51.9614 18.735 49.4813L9.96745 52.4063C9.64354 52.5145 9.29623 52.5321 8.96303 52.4573C8.62983 52.3825 8.32337 52.2181 8.07675 51.9819C7.83012 51.7457 7.65269 51.4467 7.56359 51.117C7.4745 50.7873 7.47713 50.4396 7.5712 50.1113L10.2412 40.7701C8.43751 37.4672 7.49477 33.7633 7.49995 30.0001ZM30 11.2501C26.6894 11.2498 23.4378 12.1262 20.5757 13.79C17.7135 15.4537 15.343 17.8456 13.7049 20.7226C12.0668 23.5995 11.2197 26.8588 11.2495 30.1692C11.2794 33.4797 12.1852 36.7232 13.875 39.5701C14.005 39.79 14.0886 40.0341 14.1209 40.2876C14.1531 40.541 14.1332 40.7983 14.0625 41.0438L12.1537 47.7188L18.3712 45.6488C18.6353 45.5607 18.9156 45.5325 19.1919 45.5662C19.4683 45.5999 19.7336 45.6948 19.9687 45.8438C22.426 47.3989 25.2113 48.3611 28.1044 48.6544C30.9976 48.9477 33.9193 48.5641 36.6387 47.5338C39.3581 46.5035 41.8005 44.8548 43.773 42.718C45.7454 40.5812 47.1939 38.0149 48.0037 35.2219C48.8136 32.429 48.9628 29.4859 48.4394 26.6254C47.916 23.7649 46.7344 21.0653 44.9881 18.7401C43.2418 16.4149 40.9785 14.5277 38.3772 13.2277C35.7759 11.9278 32.908 11.2507 30 11.2501Z" fill="black" fill-opacity="0.5"/>
</svg>
