<svg width="16" height="20" viewBox="0 0 16 20" fill="none" xmlns="http://www.w3.org/2000/svg">
<path d="M6.75 20C5.01667 20 3.54167 19.3917 2.325 18.175C1.10833 16.9583 0.5 15.4833 0.5 13.75V4.5C0.5 3.25 0.937667 2.18767 1.813 1.313C2.68833 0.438334 3.75067 0.000667427 5 7.60456e-07C6.24933 -0.000665906 7.312 0.437001 8.188 1.313C9.064 2.189 9.50133 3.25133 9.5 4.5V11C9.5 11.2833 9.404 11.521 9.212 11.713C9.02 11.905 8.78267 12.0007 8.5 12C8.21733 11.9993 7.98 11.9033 7.788 11.712C7.596 11.5207 7.5 11.2833 7.5 11V4.5C7.48333 3.8 7.23767 3.20833 6.763 2.725C6.28833 2.24167 5.70067 2 5 2C4.29933 2 3.70767 2.24167 3.225 2.725C2.74233 3.20833 2.50067 3.8 2.5 4.5V13.75C2.48333 14.9333 2.89167 15.9377 3.725 16.763C4.55833 17.5883 5.56667 18.0007 6.75 18C7.03333 18 7.3 17.9707 7.55 17.912C7.8 17.8533 8.04167 17.7827 8.275 17.7C8.54167 17.6 8.8 17.6043 9.05 17.713C9.3 17.8217 9.475 18.009 9.575 18.275C9.675 18.541 9.671 18.7993 9.563 19.05C9.455 19.3007 9.26733 19.4757 9 19.575C8.65 19.7083 8.28767 19.8127 7.913 19.888C7.53833 19.9633 7.15067 20.0007 6.75 20ZM12 19C11.7167 19 11.4793 18.904 11.288 18.712C11.0967 18.52 11.0007 18.2827 11 18V16H9C8.71667 16 8.47933 15.904 8.288 15.712C8.09667 15.52 8.00067 15.2827 8 15C7.99933 14.7173 8.09533 14.48 8.288 14.288C8.48067 14.096 8.718 14 9 14H11V12C11 11.7167 11.096 11.4793 11.288 11.288C11.48 11.0967 11.7173 11.0007 12 11C12.2827 10.9993 12.5203 11.0953 12.713 11.288C12.9057 11.4807 13.0013 11.718 13 12V14H15C15.2833 14 15.521 14.096 15.713 14.288C15.905 14.48 16.0007 14.7173 16 15C15.9993 15.2827 15.9033 15.5203 15.712 15.713C15.5207 15.9057 15.2833 16.0013 15 16H13V18C13 18.2833 12.904 18.521 12.712 18.713C12.52 18.905 12.2827 19.0007 12 19ZM5 15C4.71667 15 4.47933 14.904 4.288 14.712C4.09667 14.52 4.00067 14.2827 4 14V5C4 4.71667 4.096 4.47933 4.288 4.288C4.48 4.09667 4.71733 4.00067 5 4C5.28267 3.99933 5.52033 4.09533 5.713 4.288C5.90567 4.48067 6.00133 4.718 6 5V14C6 14.2833 5.904 14.521 5.712 14.713C5.52 14.905 5.28267 15.0007 5 15ZM12 9C11.7167 9 11.4793 8.904 11.288 8.712C11.0967 8.52 11.0007 8.28267 11 8V5C11 4.71667 11.096 4.47933 11.288 4.288C11.48 4.09667 11.7173 4.00067 12 4C12.2827 3.99933 12.5203 4.09533 12.713 4.288C12.9057 4.48067 13.0013 4.718 13 5V8C13 8.28333 12.904 8.521 12.712 8.713C12.52 8.905 12.2827 9.00067 12 9Z" fill="#2667FF"/>
</svg>
