<svg width="211" height="211" viewBox="0 0 211 211" fill="none" xmlns="http://www.w3.org/2000/svg">
<path d="M105.5 0.916992C163.261 0.916992 210.083 47.739 210.083 105.5C210.083 163.262 163.261 210.084 105.5 210.084C47.7387 210.084 0.916748 163.262 0.916748 105.5C0.916748 47.739 47.7387 0.916992 105.5 0.916992ZM105.5 42.7503C102.726 42.7503 100.066 43.8522 98.1049 45.8135C96.1436 47.7748 95.0418 50.4349 95.0418 53.2087V105.5C95.0423 108.274 96.1446 110.934 98.106 112.894L129.481 144.269C131.454 146.174 134.095 147.229 136.837 147.205C139.58 147.181 142.203 146.081 144.142 144.142C146.081 142.203 147.181 139.58 147.205 136.838C147.228 134.096 146.174 131.454 144.269 129.481L115.958 101.171V53.2087C115.958 50.4349 114.857 47.7748 112.895 45.8135C110.934 43.8522 108.274 42.7503 105.5 42.7503Z" fill="#2667FF"/>
</svg>
