<svg width="18" height="19" viewBox="0 0 18 19" fill="none" xmlns="http://www.w3.org/2000/svg">
<g id="ph:x">
<path id="Vector" d="M14.4608 14.1644C14.513 14.2166 14.5545 14.2787 14.5828 14.3469C14.6111 14.4152 14.6256 14.4884 14.6256 14.5623C14.6256 14.6362 14.6111 14.7094 14.5828 14.7777C14.5545 14.846 14.513 14.908 14.4608 14.9603C14.4085 15.0126 14.3465 15.054 14.2782 15.0823C14.2099 15.1106 14.1367 15.1251 14.0628 15.1251C13.9889 15.1251 13.9157 15.1106 13.8474 15.0823C13.7792 15.054 13.7171 15.0126 13.6648 14.9603L9.00031 10.2951L4.33578 14.9603C4.23023 15.0658 4.08708 15.1251 3.93781 15.1251C3.78855 15.1251 3.64539 15.0658 3.53984 14.9603C3.4343 14.8547 3.375 14.7116 3.375 14.5623C3.375 14.4131 3.4343 14.2699 3.53984 14.1644L8.20508 9.49982L3.53984 4.83529C3.4343 4.72975 3.375 4.58659 3.375 4.43732C3.375 4.28806 3.4343 4.1449 3.53984 4.03936C3.64539 3.93381 3.78855 3.87451 3.93781 3.87451C4.08708 3.87451 4.23023 3.93381 4.33578 4.03936L9.00031 8.70459L13.6648 4.03936C13.7704 3.93381 13.9135 3.87451 14.0628 3.87451C14.2121 3.87451 14.3552 3.93381 14.4608 4.03936C14.5663 4.1449 14.6256 4.28806 14.6256 4.43732C14.6256 4.58659 14.5663 4.72975 14.4608 4.83529L9.79555 9.49982L14.4608 14.1644Z" fill="white"/>
</g>
</svg>
