<svg width="30" height="30" viewBox="0 0 30 30" fill="none" xmlns="http://www.w3.org/2000/svg">
<g id="Cryptocurrency">
<path id="Shape" opacity="0.2" d="M29.5501 18.6289C27.5467 26.6647 19.4073 31.5547 11.3706 29.5512C3.33761 27.5478 -1.55286 19.4084 0.451051 11.3731C2.45355 3.33637 10.5925 -1.55456 18.6268 0.448873C26.6631 2.45231 31.5531 10.5926 29.5496 18.6289H29.5501Z" fill="#F7931A"/>
<path id="Shape_2" fill-rule="evenodd" clip-rule="evenodd" d="M19.5175 13.2573C19.7198 11.9033 18.6889 11.1754 17.2792 10.6899L17.7365 8.85567L16.6197 8.57743L16.1745 10.3633C15.8813 10.2901 15.5798 10.2211 15.2803 10.1528L15.7287 8.35515L14.6128 8.0769L14.1552 9.91045C13.9123 9.85512 13.6738 9.80043 13.4423 9.74287L13.4436 9.73715L11.9038 9.35269L11.6068 10.5452C11.6068 10.5452 12.4352 10.735 12.4177 10.7468C12.8699 10.8597 12.9519 11.1589 12.9379 11.3961L12.4171 13.4857C12.4482 13.4936 12.4886 13.505 12.5331 13.5229L12.4155 13.4936L11.685 16.4207C11.6297 16.5581 11.4895 16.7642 11.1734 16.6859C11.1845 16.7022 10.3619 16.4834 10.3619 16.4834L9.80762 17.7617L11.2608 18.1239C11.4249 18.165 11.587 18.2073 11.7472 18.2491L11.7479 18.2493C11.8515 18.2763 11.9543 18.3031 12.0565 18.3293L11.5944 20.1848L12.7096 20.4631L13.1675 18.6276C13.4719 18.7103 13.7676 18.7866 14.057 18.8585L13.601 20.6853L14.7174 20.9636L15.1795 19.1119C17.0833 19.4722 18.5152 19.3269 19.1172 17.6053C19.6028 16.2188 19.0933 15.419 18.0917 14.8972C18.8211 14.7284 19.3706 14.2485 19.5172 13.2573H19.5175ZM16.9663 16.8344C16.6493 18.1069 14.6571 17.5804 13.7464 17.3397C13.6648 17.3182 13.592 17.2989 13.5297 17.2834L14.1428 14.8257C14.2189 14.8447 14.3118 14.8655 14.4171 14.8891C15.3593 15.1006 17.2901 15.5338 16.9666 16.8344H16.9663ZM14.6065 13.7486C15.3664 13.9514 17.0227 14.3933 17.3113 13.2373C17.6063 12.0547 15.9956 11.6983 15.209 11.5242C15.1206 11.5046 15.0425 11.4874 14.9788 11.4715L14.423 13.7006C14.4756 13.7137 14.5373 13.7302 14.6065 13.7486Z" fill="#F7931A"/>
</g>
</svg>
