<svg width="20" height="20" viewBox="0 0 20 20" fill="none" xmlns="http://www.w3.org/2000/svg">
<g id="ep:arrow-up-bold">
<path id="Vector" d="M17.9551 6.61631C17.7207 6.38197 17.4028 6.25033 17.0713 6.25033C16.7399 6.25033 16.422 6.38197 16.1876 6.61631L10.0001 12.8038L3.81256 6.61631C3.57681 6.38861 3.26105 6.26262 2.93331 6.26547C2.60556 6.26832 2.29205 6.39978 2.06029 6.63154C1.82853 6.8633 1.69707 7.17681 1.69422 7.50456C1.69137 7.83231 1.81736 8.14806 2.04506 8.38381L9.11631 15.4551C9.35072 15.6894 9.66861 15.821 10.0001 15.821C10.3315 15.821 10.6494 15.6894 10.8838 15.4551L17.9551 8.38381C18.1894 8.1494 18.321 7.83152 18.321 7.50006C18.321 7.16861 18.1894 6.85072 17.9551 6.61631Z" fill="black" fill-opacity="0.5"/>
</g>
</svg>
