<svg width="35" height="37" viewBox="0 0 35 37" fill="none" xmlns="http://www.w3.org/2000/svg">
<path d="M17.16 36.2C14.6 36.2 12.2933 35.7867 10.24 34.96C8.21333 34.1333 6.48 32.9733 5.04 31.48C3.62667 29.9867 2.53333 28.2267 1.76 26.2C1.01333 24.1467 0.64 21.9067 0.64 19.48C0.64 16.6533 1.04 14.08 1.84 11.76C2.66667 9.41333 3.86667 7.38667 5.44 5.68C7.01333 3.97333 8.93333 2.65333 11.2 1.72C13.4667 0.786666 16.0667 0.32 19 0.32C21.5067 0.32 23.7333 0.733332 25.68 1.56C27.6533 2.36 29.32 3.50667 30.68 5C32.04 6.46667 33.08 8.2 33.8 10.2C34.52 12.2 34.88 14.4 34.88 16.8C34.8533 17.92 34.7333 19.12 34.52 20.4C34.3333 21.6533 33.9733 22.8267 33.44 23.92C32.9067 25.0133 32.16 25.9067 31.2 26.6C30.24 27.2667 29 27.6 27.48 27.6C26.2 27.6 25.1333 27.28 24.28 26.64C23.4267 26 22.8667 25.1467 22.6 24.08C22.0933 24.9067 21.5067 25.5733 20.84 26.08C20.2 26.56 19.5067 26.9067 18.76 27.12C18.0133 27.3067 17.2133 27.4 16.36 27.4C14.7333 27.3733 13.4 26.96 12.36 26.16C11.3467 25.3333 10.6 24.2933 10.12 23.04C9.64 21.76 9.4 20.4533 9.4 19.12C9.42667 17.8667 9.61333 16.6533 9.96 15.48C10.3333 14.3067 10.8667 13.2533 11.56 12.32C12.28 11.36 13.16 10.6133 14.2 10.08C15.2667 9.52 16.4933 9.25333 17.88 9.28C18.6 9.28 19.28 9.37333 19.92 9.56C20.5867 9.74667 21.1733 10.0533 21.68 10.48C22.2133 10.9067 22.6267 11.48 22.92 12.2L23.92 10.12L26.48 10.4C26.1867 12 25.9333 13.56 25.72 15.08C25.5333 16.5733 25.3867 18.0133 25.28 19.4C25.2267 20.12 25.2267 20.8533 25.28 21.6C25.3333 22.32 25.52 22.9333 25.84 23.44C26.1867 23.92 26.76 24.16 27.56 24.16C28.3867 24.16 29.0267 23.8933 29.48 23.36C29.96 22.8267 30.32 22.1733 30.56 21.4C30.8 20.6 30.9467 19.8133 31 19.04C31.08 18.24 31.12 17.5867 31.12 17.08C31.12 15.2667 30.8667 13.5733 30.36 12C29.88 10.4 29.1333 9.01333 28.12 7.84C27.1067 6.66667 25.8267 5.74667 24.28 5.08C22.76 4.41333 20.96 4.08 18.88 4.08C16.5333 4.08 14.48 4.46667 12.72 5.24C10.96 6.01333 9.48 7.09333 8.28 8.48C7.10667 9.86667 6.21333 11.48 5.6 13.32C5.01333 15.1333 4.72 17.08 4.72 19.16C4.72 21.64 5.21333 23.88 6.2 25.88C7.21333 27.8533 8.68 29.4 10.6 30.52C12.52 31.6667 14.8267 32.24 17.52 32.24C18.1867 32.24 18.7467 32.2267 19.2 32.2C19.6533 32.1733 20.08 32.12 20.48 32.04C20.9067 31.9867 21.4 31.9067 21.96 31.8L22.32 35.6C21.3867 35.8133 20.5333 35.96 19.76 36.04C19.0133 36.1467 18.1467 36.2 17.16 36.2ZM17.08 24C18.1467 24 19.0133 23.7333 19.68 23.2C20.3733 22.6667 20.8933 21.9733 21.24 21.12C21.6133 20.2667 21.84 19.36 21.92 18.4C22.0267 17.4933 21.9467 16.6133 21.68 15.76C21.4133 14.9067 20.9733 14.2 20.36 13.64C19.7467 13.08 18.92 12.8 17.88 12.8C16.76 12.8 15.8533 13.12 15.16 13.76C14.4667 14.4 13.9467 15.2 13.6 16.16C13.28 17.12 13.12 18.08 13.12 19.04C13.12 19.4933 13.1733 20.0133 13.28 20.6C13.4133 21.16 13.6133 21.6933 13.88 22.2C14.1733 22.7067 14.5733 23.1333 15.08 23.48C15.6133 23.8267 16.28 24 17.08 24Z" fill="black"/>
</svg>
