<svg width="24" height="24" viewBox="0 0 24 24" fill="none" xmlns="http://www.w3.org/2000/svg">
<path d="M7.93955 2.45401C7.65834 2.7353 7.50037 3.11676 7.50037 3.51451C7.50037 3.91226 7.65834 4.29372 7.93955 4.57501L15.3645 12L7.93955 19.425C7.66631 19.7079 7.51512 20.0868 7.51854 20.4801C7.52196 20.8734 7.67971 21.2496 7.95782 21.5277C8.23593 21.8059 8.61215 21.9636 9.00545 21.967C9.39874 21.9704 9.77765 21.8192 10.0605 21.546L18.546 13.0605C18.8273 12.7792 18.9852 12.3978 18.9852 12C18.9852 11.6023 18.8273 11.2208 18.546 10.9395L10.0605 2.45401C9.77926 2.1728 9.3978 2.01483 9.00005 2.01483C8.6023 2.01483 8.22084 2.1728 7.93955 2.45401Z" fill="black" fill-opacity="0.7"/>
</svg>
