<svg width="197" height="197" viewBox="0 0 197 197" fill="none" xmlns="http://www.w3.org/2000/svg">
<g id="solar:key-bold">
<path id="Vector" fill-rule="evenodd" clip-rule="evenodd" d="M180.583 68.072C180.583 96.6042 157.354 119.735 128.707 119.735C123.486 119.735 111.584 118.537 105.797 113.727L98.5575 120.934C94.2974 125.177 95.4466 126.425 97.3427 128.477C98.1307 129.339 99.05 130.332 99.7642 131.752C99.7642 131.752 105.797 140.158 99.7642 148.571C96.1443 153.373 86.007 160.096 74.4332 148.571L72.02 150.968C72.02 150.968 79.2515 159.382 73.2266 167.795C69.6067 172.597 59.9537 177.399 51.5074 168.993L43.0692 177.399C37.2741 183.169 30.1985 179.804 27.3913 177.399L20.1433 170.192C13.3879 163.461 17.3279 156.172 20.1433 153.365L82.8714 90.8994C82.8714 90.8994 76.8383 81.2957 76.8383 68.0802C76.8383 39.5481 100.068 16.417 128.715 16.417C157.362 16.417 180.583 39.5481 180.583 68.072ZM128.715 86.0975C133.503 86.1063 138.098 84.2132 141.491 80.8345C144.883 77.4558 146.795 72.8682 146.806 68.0802C146.802 65.7088 146.33 63.3614 145.419 61.1721C144.507 58.9828 143.174 56.9945 141.494 55.3207C139.814 53.6469 137.821 52.3203 135.628 51.4168C133.436 50.5132 131.086 50.0504 128.715 50.0547C126.343 50.0504 123.994 50.5132 121.802 51.4168C119.609 52.3203 117.616 53.6469 115.936 55.3207C114.256 56.9945 112.922 58.9828 112.011 61.1721C111.099 63.3614 110.628 65.7088 110.624 68.0802C110.635 72.8682 112.547 77.4558 115.939 80.8345C119.332 84.2132 123.927 86.1063 128.715 86.0975Z" fill="#2667FF"/>
</g>
</svg>
