<svg width="80" height="80" viewBox="0 0 80 80" fill="none" xmlns="http://www.w3.org/2000/svg">
<g id="mingcute:flash-line" clip-path="url(#clip0_1057_127)">
<g id="Group">
<path id="Vector" fill-rule="evenodd" clip-rule="evenodd" d="M44.1066 4.53337C46.2133 2.0067 50.3166 3.73337 49.9833 7.0067L47.63 30H66.6666C67.3 30.0003 67.9202 30.181 68.4546 30.5209C68.989 30.8609 69.4155 31.3461 69.6841 31.9197C69.9527 32.4933 70.0524 33.1316 69.9713 33.7598C69.8903 34.3879 69.632 34.98 69.2266 35.4667L35.8933 75.4667C33.7866 77.9934 29.6833 76.2667 30.0166 72.9934L32.37 50H13.3333C12.6999 49.9998 12.0797 49.8191 11.5453 49.4791C11.0109 49.1391 10.5844 48.6539 10.3158 48.0803C10.0472 47.5067 9.94759 46.8685 10.0286 46.2403C10.1096 45.6121 10.3679 45.02 10.7733 44.5334L44.1066 4.53337ZM20.45 43.3334H38.2766C38.463 43.3334 38.6473 43.3724 38.8176 43.448C38.9879 43.5236 39.1405 43.6341 39.2655 43.7723C39.3905 43.9105 39.4851 44.0733 39.5433 44.2504C39.6015 44.4274 39.6219 44.6146 39.6033 44.8L37.76 62.8167L59.55 36.6667H41.7233C41.537 36.6667 41.3527 36.6277 41.1824 36.5521C41.0121 36.4765 40.8595 36.366 40.7345 36.2278C40.6095 36.0896 40.5148 35.9267 40.4566 35.7497C40.3984 35.5727 40.378 35.3854 40.3966 35.2L42.24 17.1867L20.45 43.3334Z" fill="white"/>
</g>
</g>
<defs>
<clipPath id="clip0_1057_127">
<rect width="80" height="80" fill="white"/>
</clipPath>
</defs>
</svg>
