<svg width="25" height="25" viewBox="0 0 25 25" fill="none" xmlns="http://www.w3.org/2000/svg">
<g id="uil:exit">
<path id="Vector" d="M20.834 12.5002C20.834 12.7764 20.7242 13.0414 20.5289 13.2367C20.3335 13.4321 20.0686 13.5418 19.7923 13.5418H11.8861L14.2819 15.9272C14.3795 16.0241 14.457 16.1393 14.5099 16.2662C14.5628 16.3932 14.59 16.5293 14.59 16.6668C14.59 16.8043 14.5628 16.9405 14.5099 17.0674C14.457 17.1944 14.3795 17.3096 14.2819 17.4064C14.1851 17.504 14.0699 17.5815 13.9429 17.6344C13.816 17.6873 13.6798 17.7145 13.5423 17.7145C13.4048 17.7145 13.2687 17.6873 13.1417 17.6344C13.0148 17.5815 12.8996 17.504 12.8027 17.4064L8.63607 13.2397C8.54123 13.1407 8.4669 13.0239 8.41732 12.896C8.31313 12.6424 8.31313 12.3579 8.41732 12.1043C8.4669 11.9765 8.54123 11.8596 8.63607 11.7606L12.8027 7.59391C12.8999 7.49679 13.0152 7.41975 13.1421 7.36718C13.269 7.31462 13.405 7.28757 13.5423 7.28757C13.6797 7.28757 13.8157 7.31462 13.9426 7.36718C14.0695 7.41975 14.1848 7.49679 14.2819 7.59391C14.379 7.69104 14.4561 7.80634 14.5086 7.93324C14.5612 8.06013 14.5882 8.19614 14.5882 8.3335C14.5882 8.47085 14.5612 8.60686 14.5086 8.73376C14.4561 8.86065 14.379 8.97596 14.2819 9.07308L11.8861 11.4585H19.7923C20.0686 11.4585 20.3335 11.5682 20.5289 11.7636C20.7242 11.9589 20.834 12.2239 20.834 12.5002ZM7.29232 2.0835H17.709C18.5378 2.0835 19.3326 2.41274 19.9187 2.99879C20.5047 3.58484 20.834 4.37969 20.834 5.2085V8.3335C20.834 8.60976 20.7242 8.87472 20.5289 9.07007C20.3335 9.26542 20.0686 9.37516 19.7923 9.37516C19.5161 9.37516 19.2511 9.26542 19.0557 9.07007C18.8604 8.87472 18.7507 8.60976 18.7507 8.3335V5.2085C18.7507 4.93223 18.6409 4.66728 18.4456 4.47193C18.2502 4.27658 17.9853 4.16683 17.709 4.16683H7.29232C7.01605 4.16683 6.7511 4.27658 6.55575 4.47193C6.3604 4.66728 6.25065 4.93223 6.25065 5.2085V19.7918C6.25065 20.0681 6.3604 20.3331 6.55575 20.5284C6.7511 20.7238 7.01605 20.8335 7.29232 20.8335H17.709C17.9853 20.8335 18.2502 20.7238 18.4456 20.5284C18.6409 20.3331 18.7507 20.0681 18.7507 19.7918V16.6668C18.7507 16.3906 18.8604 16.1256 19.0557 15.9303C19.2511 15.7349 19.5161 15.6252 19.7923 15.6252C20.0686 15.6252 20.3335 15.7349 20.5289 15.9303C20.7242 16.1256 20.834 16.3906 20.834 16.6668V19.7918C20.834 20.6206 20.5047 21.4155 19.9187 22.0015C19.3326 22.5876 18.5378 22.9168 17.709 22.9168H7.29232C6.46352 22.9168 5.66866 22.5876 5.08261 22.0015C4.49656 21.4155 4.16732 20.6206 4.16732 19.7918V5.2085C4.16732 4.37969 4.49656 3.58484 5.08261 2.99879C5.66866 2.41274 6.46352 2.0835 7.29232 2.0835Z" fill="#EA6161"/>
</g>
</svg>
