<svg width="24" height="24" viewBox="0 0 24 24" fill="none" xmlns="http://www.w3.org/2000/svg">
<g id="majesticons:logout">
<path id="Vector" fill-rule="evenodd" clip-rule="evenodd" d="M18 22C18.7956 22 19.5587 21.6839 20.1213 21.1213C20.6839 20.5587 21 19.7956 21 19L21 5C21 4.20435 20.6839 3.44129 20.1213 2.87868C19.5587 2.31607 18.7957 2 18 2L12 2C11.2044 2 10.4413 2.31607 9.87868 2.87868C9.31607 3.44129 9 4.20435 9 5L9 19C9 19.7956 9.31607 20.5587 9.87868 21.1213C10.4413 21.6839 11.2044 22 12 22L18 22ZM7.707 16.707C7.51947 16.8945 7.26516 16.9998 7 16.9998C6.73484 16.9998 6.48053 16.8945 6.293 16.707L2.293 12.707C2.10553 12.5195 2.00021 12.2652 2.00021 12C2.00021 11.7348 2.10553 11.4805 2.293 11.293L6.293 7.293C6.4816 7.11084 6.73421 7.01005 6.9964 7.01232C7.2586 7.0146 7.50941 7.11977 7.69482 7.30518C7.88023 7.49059 7.9854 7.7414 7.98768 8.0036C7.98995 8.26579 7.88916 8.5184 7.707 8.707L5.414 11L14 11C14.2652 11 14.5196 11.1054 14.7071 11.2929C14.8946 11.4804 15 11.7348 15 12C15 12.2652 14.8946 12.5196 14.7071 12.7071C14.5196 12.8946 14.2652 13 14 13L5.414 13L7.707 15.293C7.89447 15.4805 7.99979 15.7348 7.99979 16C7.99979 16.2652 7.89447 16.5195 7.707 16.707Z" fill="#FB6363"/>
</g>
</svg>
