<svg width="25" height="26" viewBox="0 0 25 26" fill="none" xmlns="http://www.w3.org/2000/svg">
<path d="M8.33333 9.87508H16.6667M8.33333 14.0417H14.5833M12.4896 19.8813L8.33333 22.3751V19.2501H6.25C5.4212 19.2501 4.62634 18.9208 4.04029 18.3348C3.45424 17.7487 3.125 16.9539 3.125 16.1251V7.79175C3.125 6.96295 3.45424 6.16809 4.04029 5.58204C4.62634 4.99599 5.4212 4.66675 6.25 4.66675H18.75C19.5788 4.66675 20.3737 4.99599 20.9597 5.58204C21.5458 6.16809 21.875 6.96295 21.875 7.79175V13.5209M19.7917 23.4167V17.1667M19.7917 17.1667L22.9167 20.2917M19.7917 17.1667L16.6667 20.2917" stroke="white" stroke-width="2" stroke-linecap="round" stroke-linejoin="round"/>
</svg>
