<svg width="305" height="232" viewBox="0 0 305 232" fill="none" xmlns="http://www.w3.org/2000/svg">
<circle cx="164.5" cy="98.5" r="92.5" fill="url(#paint0_linear_2641_261)"/>
<g clip-path="url(#clip0_2641_261)">
<path fill-rule="evenodd" clip-rule="evenodd" d="M203.877 70.083C205.037 71.2433 205.689 72.8168 205.689 74.4575C205.689 76.0982 205.037 77.6718 203.877 78.8321L157.5 125.209C156.887 125.822 156.159 126.309 155.359 126.641C154.558 126.972 153.699 127.143 152.833 127.143C151.966 127.143 151.107 126.972 150.306 126.641C149.506 126.309 148.778 125.822 148.165 125.209L125.123 102.171C124.532 101.601 124.061 100.918 123.736 100.163C123.412 99.408 123.241 98.5961 123.234 97.7745C123.227 96.9529 123.384 96.1382 123.695 95.3777C124.006 94.6173 124.465 93.9265 125.046 93.3455C125.627 92.7646 126.318 92.3051 127.078 91.994C127.839 91.6829 128.654 91.5263 129.475 91.5335C130.297 91.5406 131.109 91.7113 131.864 92.0356C132.618 92.3599 133.301 92.8312 133.872 93.4222L152.83 112.381L195.124 70.083C195.699 69.508 196.381 69.0519 197.132 68.7407C197.883 68.4295 198.688 68.2693 199.501 68.2693C200.314 68.2693 201.119 68.4295 201.87 68.7407C202.62 69.0519 203.303 69.508 203.877 70.083Z" fill="white"/>
</g>
<circle cx="275" cy="24" r="18" fill="#2667FF"/>
<circle cx="30.5" cy="30.5" r="30.5" fill="#2667FF"/>
<circle cx="290" cy="151" r="15" fill="#2667FF"/>
<circle cx="81.5" cy="211.5" r="20.5" fill="#2667FF"/>
<defs>
<linearGradient id="paint0_linear_2641_261" x1="72" y1="6" x2="257" y2="191" gradientUnits="userSpaceOnUse">
<stop offset="0.57" stop-color="#2667FF"/>
<stop offset="1" stop-color="white"/>
</linearGradient>
<clipPath id="clip0_2641_261">
<rect width="99" height="99" fill="white" transform="translate(115 49)"/>
</clipPath>
</defs>
</svg>
