<svg width="16" height="18" viewBox="0 0 16 18" fill="none" xmlns="http://www.w3.org/2000/svg">
<path d="M9.09375 11.3086H0.363281V9.46875H9.09375C9.94531 9.46875 10.6445 9.33203 11.1914 9.05859C11.7383 8.78516 12.1406 8.39844 12.3984 7.89844C12.6641 7.39844 12.7969 6.80859 12.7969 6.12891C12.7969 5.57422 12.6719 5.04297 12.4219 4.53516C12.1797 4.02734 11.7852 3.60938 11.2383 3.28125C10.6992 2.95312 9.98438 2.78906 9.09375 2.78906H5.03906V18H2.78906V0.9375H9.09375C10.3828 0.9375 11.4688 1.16016 12.3516 1.60547C13.2344 2.04297 13.9023 2.65234 14.3555 3.43359C14.8164 4.20703 15.0469 5.09766 15.0469 6.10547C15.0469 7.19922 14.8164 8.13672 14.3555 8.91797C13.9023 9.69141 13.2344 10.2852 12.3516 10.6992C11.4688 11.1055 10.3828 11.3086 9.09375 11.3086ZM8.95312 12.9141V14.7656H0.363281V12.9141H8.95312Z" fill="white"/>
</svg>
