<svg width="200" height="100" viewBox="0 0 200 100" fill="none" xmlns="http://www.w3.org/2000/svg">
<g id="logo / &#208;&#161;&#208;&#184;&#209;&#129;&#209;&#130;&#208;&#181;&#208;&#188;&#208;&#176; &#208;&#177;&#209;&#139;&#209;&#129;&#209;&#130;&#209;&#128;&#209;&#139;&#209;&#133; &#208;&#191;&#208;&#187;&#208;&#176;&#209;&#130;&#208;&#181;&#208;&#182;&#208;&#181;&#208;&#185; [sbp]">
<path id="path" d="M0 21.7666L12.11 43.4124V56.6157L0.0141667 78.219L0 21.7666Z" fill="#5B57A2"/>
<path id="path_2" d="M46.498 35.5362L57.8455 28.5812L81.0688 28.5596L46.498 49.7379V35.5362Z" fill="#D90751"/>
<path id="path_3" d="M46.4335 21.6391L46.4977 50.2974L34.3594 42.8391V0L46.4344 21.6391H46.4335Z" fill="#FAB718"/>
<path id="path_4" d="M81.0685 28.5591L57.8444 28.5808L46.4335 21.6391L34.3594 0L81.0677 28.5591H81.0685Z" fill="#ED6F26"/>
<path id="path_5" d="M46.4977 78.339V64.4348L34.3594 57.1182L34.366 99.9998L46.4977 78.339Z" fill="#63B22F"/>
<path id="path_6" d="M57.8166 71.4474L12.1092 43.4124L0 21.7666L81.0191 71.4191L57.8158 71.4474H57.8166Z" fill="#1487C9"/>
<path id="path_7" d="M34.3672 100L46.4972 78.3394L57.8163 71.4478L81.0188 71.4194L34.3672 100Z" fill="#017F36"/>
<path id="path_8" d="M0.0136719 78.2186L34.4578 57.1187L22.8778 50.0137L12.1095 56.6153L0.0136719 78.2186Z" fill="#984995"/>
<path id="path_9" fill-rule="evenodd" clip-rule="evenodd" d="M132.403 53.3992C140.218 53.3992 146.022 48.6076 146.022 41.3436C146.022 34.3123 141.74 29.7477 134.584 29.7477C131.282 29.7477 128.557 30.9098 126.504 32.9158C126.994 28.7703 130.5 25.743 134.36 25.743C135.251 25.743 141.957 25.7292 141.957 25.7292L145.75 18.4717C145.75 18.4717 137.33 18.6637 133.416 18.6637C124.472 18.8192 118.432 26.9482 118.432 36.8213C118.432 48.3243 124.323 53.3992 132.403 53.3992ZM132.451 36.1759C135.353 36.1759 137.364 38.0827 137.364 41.3427C137.364 44.2765 135.577 46.6943 132.451 46.7008C129.461 46.7008 127.449 44.4604 127.449 41.3924C127.449 38.1315 129.461 36.1759 132.451 36.1759ZM176.198 28.077V52.5252H167.468V35.3751H159.062V52.5252H150.332V28.0753L176.198 28.077ZM106.185 45.7536C109.264 45.5289 111.326 44.34 111.326 44.34L114.556 50.3173C112.487 51.6463 109.092 52.5105 106.631 52.6017C97.8274 52.7636 91.7031 47.4064 91.7031 39.6012C91.7031 31.8945 98.2188 26.4095 106.631 26.4095C109.965 26.4095 112.831 27.3039 114.982 28.9347C114.529 29.7371 113.914 30.8488 113.329 31.9124L112.392 33.6198L111.539 35.179C111.539 35.179 108.439 33.5547 106.096 33.5547C102.274 33.5547 99.4908 35.7755 99.4908 39.65C99.4908 43.623 102.645 45.8585 106.185 45.7536ZM99.4932 68.9786C99.2267 69.3188 98.876 69.576 98.4552 69.7493C98.0231 69.9251 97.5613 70.0146 97.095 70.0121C96.6315 70.0187 96.1705 69.9413 95.7343 69.7843C95.3424 69.6419 94.9844 69.4197 94.6825 69.1324C94.3846 68.8443 94.1506 68.4969 93.996 68.1119C93.8284 67.6912 93.745 67.2412 93.7502 66.7879C93.7502 66.3378 93.8276 65.9212 93.9883 65.5265C94.1425 65.131 94.3667 64.7916 94.6475 64.5068C94.7748 64.375 94.9136 64.257 95.0625 64.1512L95.1536 64.0893C95.2493 64.0266 95.349 63.968 95.4523 63.9143L95.5634 63.859L95.6436 63.8208C96.0293 63.6539 96.45 63.5636 96.9127 63.5636C97.4107 63.5636 97.8734 63.6263 98.2941 63.7508C98.5598 63.8289 98.7999 63.9404 99.0147 64.0852C99.1409 64.1707 99.258 64.2675 99.3667 64.3758L98.8552 65.2425C98.6074 65.0179 98.3161 64.8478 97.9991 64.742C97.698 64.6451 97.3831 64.5963 97.0669 64.5971C96.7865 64.5971 96.52 64.6525 96.2608 64.7566C96.0057 64.8592 95.7721 65.0097 95.5736 65.201C95.3701 65.3963 95.2102 65.6331 95.1032 65.8943C94.9844 66.1637 94.9282 66.4623 94.9282 66.7952C94.9282 67.1345 94.9909 67.4397 95.1101 67.7034C95.2301 67.9736 95.3909 68.2031 95.5943 68.3968C95.7974 68.5913 96.0358 68.7361 96.3092 68.8338C96.4207 68.8761 96.5347 68.9095 96.651 68.9339C96.8207 68.9697 96.9965 68.9868 97.1792 68.9868C97.5576 68.9868 97.9018 68.9095 98.196 68.7638C98.3503 68.6889 98.4963 68.5994 98.6322 68.496C98.7527 68.4041 98.865 68.3015 98.9675 68.1892L99.4932 68.9786ZM100.938 69.8665V63.6954H102.046V68.2934L105.65 63.6954H106.758V69.8673H105.65V65.2701L102.046 69.8673L100.938 69.8665ZM114.1 68.9786C113.828 69.322 113.47 69.5873 113.063 69.7493C112.815 69.8494 112.558 69.9218 112.295 69.965C112.099 69.9967 111.901 70.013 111.702 70.0121C111.516 70.0146 111.33 70.004 111.147 69.9796C110.873 69.9438 110.603 69.8787 110.342 69.7843C110.252 69.7517 110.164 69.7151 110.078 69.6744C109.975 69.6248 109.874 69.5694 109.776 69.5092C109.602 69.401 109.439 69.2748 109.289 69.1324C108.991 68.8443 108.757 68.4969 108.603 68.1119C108.435 67.6912 108.351 67.2412 108.357 66.7879C108.357 66.3378 108.434 65.9212 108.595 65.5265C108.75 65.131 108.974 64.7916 109.254 64.5068C109.535 64.2154 109.872 63.9941 110.25 63.8208C110.65 63.645 111.083 63.5571 111.519 63.5636C111.809 63.5636 112.086 63.5847 112.35 63.6271L112.505 63.6539C112.564 63.6653 112.622 63.6783 112.679 63.6922L112.781 63.7174L112.901 63.7508C113.322 63.8753 113.679 64.0836 113.974 64.3758L113.462 65.2425C113.215 65.0179 112.923 64.8478 112.607 64.742C112.531 64.7176 112.454 64.6956 112.376 64.6769C112.323 64.6647 112.269 64.6541 112.215 64.6443C112.164 64.6354 112.113 64.6272 112.062 64.6207L111.948 64.6085C111.857 64.6004 111.766 64.5963 111.674 64.5971C111.117 64.5987 110.582 64.8152 110.18 65.201C110.128 65.2522 110.079 65.3051 110.032 65.3613C109.977 65.4272 109.927 65.4972 109.88 65.5696C109.814 65.673 109.757 65.7812 109.71 65.8943C109.684 65.9529 109.661 66.0131 109.641 66.075C109.618 66.1458 109.599 66.2182 109.584 66.2923C109.551 66.451 109.535 66.6178 109.535 66.7952C109.535 66.9555 109.549 67.1077 109.576 67.2517C109.593 67.3372 109.613 67.4186 109.638 67.4975C109.661 67.5691 109.688 67.6375 109.717 67.7034C109.793 67.8743 109.885 68.0289 109.993 68.1681C110.057 68.2495 110.126 68.3251 110.201 68.3968C110.404 68.5913 110.644 68.7361 110.917 68.8338C111.19 68.9306 111.478 68.9868 111.786 68.9868C111.915 68.9868 112.04 68.9778 112.16 68.9599C112.391 68.9265 112.604 68.8598 112.803 68.7638C113.094 68.623 113.356 68.4277 113.574 68.1892L114.1 68.9786ZM114.675 63.6954H120.355V64.7916H118.069V69.8665H116.961V64.7916H114.675V63.6954ZM126.617 69.1943C126.309 69.471 125.952 69.6728 125.53 69.8046C125.125 69.9357 124.702 70.0032 124.276 70.0056C124.105 70.0081 123.934 69.9991 123.765 69.9796C123.468 69.9446 123.176 69.8771 122.894 69.777C122.48 69.6248 122.13 69.4091 121.842 69.1251C121.548 68.837 121.319 68.4895 121.169 68.1062C121.015 67.7107 120.93 67.2672 120.93 66.7814C120.926 66.3509 121 65.9236 121.148 65.52C121.283 65.1399 121.495 64.7932 121.771 64.5003C121.903 64.3644 122.047 64.2407 122.202 64.1316C122.38 64.0055 122.572 63.8989 122.775 63.8134C123.006 63.7174 123.256 63.6466 123.527 63.6043C123.723 63.5734 123.93 63.5571 124.149 63.5571C124.278 63.5563 124.406 63.5636 124.532 63.5791C124.647 63.5929 124.761 63.6132 124.873 63.6393C125.01 63.6718 125.146 63.7141 125.278 63.7654C125.622 63.8932 125.937 64.0885 126.204 64.3408C126.272 64.4067 126.336 64.475 126.397 64.5475C126.447 64.6069 126.495 64.6679 126.54 64.7314C126.608 64.8282 126.671 64.9308 126.726 65.0358C126.76 65.1009 126.792 65.1676 126.821 65.2351C126.884 65.3784 126.935 65.5273 126.972 65.6827C127.025 65.9033 127.052 66.1376 127.052 66.3867C127.052 66.6707 127.031 66.9132 126.982 67.128H122.186C122.235 67.7115 122.452 68.1681 122.851 68.4944C123.251 68.8207 123.756 68.9794 124.366 68.9794C124.574 68.9794 124.773 68.9632 124.962 68.9306C125.142 68.8997 125.313 68.8541 125.475 68.7931C125.804 68.6678 126.077 68.5156 126.281 68.3349L126.617 69.1943ZM124.1 64.5906C123.525 64.5906 123.069 64.7428 122.726 65.0545C122.386 65.3613 122.169 65.7804 122.116 66.2337H125.902C125.874 65.721 125.707 65.319 125.39 65.0276C125.338 64.9788 125.282 64.9348 125.224 64.895C125.168 64.8567 125.11 64.8225 125.049 64.7916C125.003 64.768 124.955 64.7469 124.905 64.7273C124.671 64.6362 124.402 64.5906 124.1 64.5906ZM128.56 63.6954H129.57L131.968 66.7537L134.24 63.6954H135.222V69.8673H134.114V65.367L131.954 68.2307H131.911L129.668 65.3662V69.8665H128.56V63.6954ZM137.752 63.8818C137.909 63.8151 138.071 63.7597 138.236 63.7166C138.594 63.6197 138.965 63.5644 139.359 63.5644C139.742 63.5644 140.076 63.6059 140.36 63.6889C140.55 63.7443 140.718 63.8183 140.864 63.9103C141.002 63.9973 141.12 64.1015 141.217 64.2228C141.373 64.414 141.495 64.6411 141.582 64.9031C141.694 65.2408 141.749 65.6363 141.749 66.0888V69.8746H140.712V69.0771C140.53 69.3131 140.277 69.5206 139.961 69.7013C139.646 69.8811 139.232 69.9715 138.713 69.9715C138.337 69.9715 138.01 69.9007 137.73 69.7591C137.669 69.7281 137.61 69.694 137.554 69.6565C137.516 69.6305 137.478 69.6028 137.442 69.5743C137.402 69.5426 137.363 69.5084 137.325 69.4726C136.974 69.1398 136.799 68.6678 136.799 68.0647C136.795 67.7742 136.858 67.4877 136.981 67.2249C137.097 66.9856 137.265 66.7748 137.472 66.6088C137.676 66.442 137.928 66.3167 138.222 66.2337C138.28 66.2174 138.339 66.2019 138.399 66.1881L138.488 66.1686L138.589 66.1507C138.771 66.1189 138.959 66.1018 139.155 66.1018C139.424 66.1051 139.691 66.1328 139.955 66.1857C140.227 66.2329 140.485 66.3395 140.712 66.4982C140.712 66.3753 140.709 66.2565 140.704 66.1417L140.693 65.9733C140.685 65.8821 140.676 65.7934 140.663 65.7071C140.628 65.4646 140.565 65.2571 140.467 65.0903C140.42 65.0122 140.365 64.9397 140.3 64.8763C140.269 64.8461 140.237 64.8177 140.202 64.7916C140.178 64.7745 140.153 64.7574 140.127 64.742C140.099 64.7249 140.07 64.7094 140.039 64.6948C139.85 64.5979 139.604 64.5483 139.295 64.5483C138.91 64.5483 138.587 64.5906 138.335 64.6809L138.2 64.7306L138.087 64.7737L137.954 64.8282C137.828 64.8811 137.703 64.9381 137.577 65L137.283 64.1251C137.433 64.0323 137.59 63.951 137.752 63.8818ZM139.1 68.9794C139.506 68.9794 139.836 68.8972 140.089 68.7166C140.316 68.5652 140.524 68.3854 140.705 68.1819V67.3982C140.583 67.3103 140.452 67.2371 140.314 67.1777C140.236 67.1443 140.156 67.1158 140.073 67.0922C140.016 67.076 139.957 67.0613 139.897 67.0483C139.829 67.0336 139.759 67.0222 139.687 67.0133C139.564 66.9978 139.436 66.9897 139.303 66.9897C139.135 66.9897 138.974 67.01 138.812 67.0515C138.732 67.0711 138.654 67.0979 138.579 67.1321C138.512 67.1622 138.447 67.198 138.385 67.2395C138.266 67.3225 138.161 67.4267 138.083 67.5585L138.067 67.587C138.055 67.609 138.045 67.631 138.035 67.6538C138.025 67.679 138.016 67.705 138.008 67.7319C138.001 67.7563 137.995 67.7815 137.989 67.8076C137.977 67.8702 137.971 67.937 137.971 68.0086C137.971 68.2999 138.069 68.5359 138.266 68.7158C138.379 68.8159 138.52 68.8883 138.688 68.9314C138.811 68.9632 138.948 68.9794 139.1 68.9794ZM152.164 60.992C151.967 61.2483 151.757 61.4217 151.533 61.525C151.308 61.6292 151.063 61.6992 150.796 61.7545C150.596 61.796 150.387 61.8343 150.168 61.8741L149.948 61.9148C149.616 61.9759 149.293 62.0808 148.987 62.2265C148.871 62.2762 148.76 62.3364 148.655 62.4056C148.581 62.4552 148.509 62.5089 148.441 62.5675L148.359 62.6416L148.31 62.6912L148.258 62.7457C148.22 62.7905 148.183 62.8361 148.148 62.8824C148.078 62.9744 148.014 63.0696 147.956 63.1689C147.897 63.269 147.843 63.3732 147.796 63.4814C147.676 63.7508 147.585 64.0364 147.521 64.3343C147.459 64.6329 147.424 64.9235 147.402 65.2075H147.431C147.529 64.9861 147.669 64.7916 147.837 64.6175C148.009 64.4417 148.205 64.2903 148.419 64.1674C148.466 64.1406 148.513 64.1145 148.561 64.0893C148.615 64.0616 148.67 64.0356 148.726 64.0112C148.854 63.955 148.985 63.9078 149.12 63.8696C149.373 63.8004 149.632 63.7654 149.899 63.7654C150.159 63.7622 150.418 63.7906 150.671 63.85C150.818 63.885 150.963 63.9306 151.105 63.9868C151.453 64.1251 151.767 64.3391 152.024 64.6118C152.28 64.8901 152.476 65.218 152.599 65.5753C152.732 65.9505 152.802 66.3728 152.802 66.8367C152.802 67.2672 152.725 67.6757 152.564 68.0574C152.497 68.2218 152.418 68.3789 152.326 68.527C152.205 68.7223 152.064 68.9013 151.904 69.0633C151.616 69.3562 151.273 69.589 150.895 69.7493C150.502 69.9161 150.067 70.0065 149.597 70.0065C149.085 70.0065 148.63 69.9161 148.223 69.7363C147.816 69.5564 147.472 69.3058 147.185 68.9729C146.897 68.6466 146.681 68.2454 146.526 67.7661C146.371 67.2875 146.295 66.7545 146.295 66.1645C146.295 65.7071 146.322 65.2294 146.379 64.7298C146.434 64.2399 146.544 63.7589 146.708 63.2942C146.869 62.8361 147.108 62.4202 147.41 62.0532C147.711 61.6853 148.111 61.3948 148.609 61.1792L148.718 61.132C148.771 61.11 148.825 61.0888 148.879 61.0693C148.977 61.0335 149.077 61.0009 149.177 60.9716C149.237 60.9545 149.298 60.9383 149.359 60.9236C149.435 60.9049 149.513 60.8886 149.59 60.8748L149.974 60.8089L150.18 60.7731L150.39 60.7356C150.513 60.7145 150.635 60.686 150.755 60.6502C150.849 60.6225 150.943 60.5908 151.035 60.555C151.085 60.5354 151.135 60.5102 151.183 60.4817L151.246 60.441C151.359 60.3621 151.464 60.2563 151.561 60.1253L152.164 60.992ZM147.48 66.3728C147.473 66.739 147.525 67.1044 147.634 67.4544C147.726 67.7506 147.871 68.0273 148.061 68.2731C148.243 68.4928 148.47 68.6702 148.728 68.7931C148.987 68.9176 149.268 68.9803 149.576 68.9803C149.809 68.9803 150.023 68.9485 150.223 68.8842L150.295 68.8598C150.334 68.846 150.373 68.8305 150.411 68.8134C150.654 68.7109 150.873 68.5595 151.056 68.3707C151.239 68.1811 151.382 67.9565 151.477 67.7107C151.574 67.4617 151.631 67.1907 151.631 66.8928C151.631 66.2898 151.463 65.7901 151.119 65.3889C151.004 65.2555 150.872 65.1448 150.722 65.0561C150.6 64.9829 150.466 64.9251 150.32 64.8819C150.114 64.8217 149.885 64.7916 149.632 64.7916C149.109 64.7875 148.6 64.9609 148.188 65.284C148.006 65.4305 147.851 65.5965 147.732 65.7836C147.691 65.8455 147.653 65.9098 147.62 65.9765C147.594 66.0302 147.57 66.0847 147.549 66.1401C147.521 66.2158 147.497 66.2939 147.48 66.3728ZM160.193 63.6962H161.301V69.8681H160.193V63.6962ZM155.509 63.6962H154.4H154.394V69.8746H156.406C156.507 69.8746 156.604 69.8714 156.698 69.8657C156.757 69.8624 156.814 69.8575 156.87 69.8518C156.921 69.847 156.97 69.8413 157.019 69.8339C157.249 69.8014 157.455 69.7493 157.641 69.6809C157.719 69.6516 157.793 69.6207 157.864 69.5873L157.955 69.5418L158.026 69.5035C158.077 69.4742 158.125 69.4433 158.171 69.4108C158.201 69.3904 158.229 69.3692 158.257 69.3481C158.291 69.3212 158.323 69.2936 158.355 69.2651C158.384 69.2382 158.413 69.2097 158.44 69.1813C158.636 68.9729 158.784 68.7442 158.868 68.4814C158.922 68.3251 158.959 68.1689 158.98 68.0102C158.994 67.9003 159.001 67.7888 159.001 67.6757C159.001 67.6163 158.999 67.5577 158.995 67.4991C158.992 67.4479 158.987 67.3974 158.981 67.347C158.961 67.1874 158.928 67.032 158.882 66.8782C158.805 66.6227 158.671 66.394 158.482 66.1995C158.293 66.005 158.041 65.8463 157.725 65.7275C157.409 65.6103 157.016 65.5476 156.533 65.5476H155.509V63.6962ZM156.315 68.8411H155.509V66.5804V66.5657H156.33C156.433 66.5657 156.531 66.569 156.623 66.5763C156.765 66.5877 156.893 66.608 157.008 66.6365C157.094 66.6577 157.173 66.6845 157.245 66.7154C157.336 66.7553 157.414 66.8025 157.48 66.8579C157.554 66.923 157.617 66.997 157.667 67.0817C157.723 67.1744 157.765 67.2794 157.79 67.3958C157.812 67.4926 157.823 67.5976 157.823 67.7107C157.823 68.0786 157.711 68.3553 157.486 68.5498C157.388 68.6344 157.258 68.7011 157.097 68.7491C156.889 68.8102 156.627 68.8411 156.315 68.8411ZM168.63 68.9786C168.363 69.3188 168.012 69.576 167.592 69.7493C167.16 69.9243 166.698 70.0138 166.231 70.0121C165.768 70.0187 165.307 69.9413 164.871 69.7843C164.479 69.6419 164.121 69.4197 163.819 69.1324C163.705 69.0218 163.6 68.9021 163.505 68.7752L163.428 68.6669C163.4 68.6262 163.374 68.5847 163.348 68.5424L163.313 68.483C163.29 68.4431 163.268 68.4025 163.246 68.3609C163.218 68.3064 163.191 68.2511 163.166 68.1941L163.132 68.1119C162.965 67.6912 162.881 67.2412 162.887 66.7879C162.887 66.3378 162.963 65.9212 163.125 65.5265C163.279 65.131 163.503 64.7916 163.784 64.5068C164.065 64.2154 164.401 63.9941 164.78 63.8208C165.18 63.645 165.613 63.5571 166.049 63.5636C166.546 63.5636 167.01 63.6263 167.431 63.7508C167.852 63.8753 168.209 64.0836 168.503 64.3758L167.992 65.2425C167.888 65.1481 167.776 65.0634 167.658 64.9894C167.6 64.9527 167.54 64.9186 167.479 64.8868C167.431 64.8624 167.382 64.8396 167.332 64.8177L167.239 64.7794L167.136 64.742C166.834 64.6451 166.52 64.5963 166.203 64.5971C166.091 64.5971 165.98 64.6061 165.871 64.6232C165.709 64.6492 165.552 64.6948 165.396 64.7566C165.141 64.8592 164.908 65.0105 164.71 65.201C164.645 65.2644 164.584 65.332 164.529 65.4028L164.48 65.4671C164.384 65.5997 164.303 65.743 164.24 65.8943C164.121 66.1637 164.065 66.4623 164.065 66.7952C164.065 67.1345 164.127 67.4397 164.247 67.7034C164.366 67.9736 164.527 68.2031 164.731 68.3968C164.934 68.5913 165.172 68.7361 165.446 68.8338C165.72 68.9306 166.007 68.9868 166.316 68.9868C166.544 68.9868 166.756 68.9591 166.955 68.9046C167.005 68.8907 167.054 68.8753 167.103 68.8582C167.182 68.8313 167.258 68.7996 167.333 68.7638C167.624 68.623 167.886 68.4277 168.104 68.1892L168.63 68.9786ZM169.205 63.6954H174.885V64.7916H172.598V69.8665H171.491V64.7916H169.205V63.6954ZM176.091 63.6971H177.199V64.4246C177.409 64.1739 177.711 63.9746 178.097 63.8077C178.482 63.6409 178.889 63.5579 179.323 63.5579C179.393 63.5563 179.463 63.5579 179.533 63.562C179.675 63.5701 179.815 63.588 179.953 63.6157C180.147 63.6547 180.338 63.7141 180.522 63.7931C180.868 63.9379 181.178 64.1585 181.427 64.4384C181.681 64.7257 181.877 65.0602 182.003 65.4223C182.067 65.6079 182.117 65.8024 182.151 66.0066C182.187 66.2231 182.206 66.4493 182.206 66.6853C182.206 67.1492 182.128 67.587 181.974 67.9947C181.82 68.4041 181.602 68.7508 181.315 69.0502C181.023 69.3481 180.675 69.5857 180.292 69.7501C179.892 69.9161 179.45 70.0056 178.959 70.0056C178.629 70.0056 178.307 69.9715 177.998 69.9023C177.69 69.8331 177.423 69.7289 177.199 69.5833V72.6131H176.091V63.6971ZM179.002 64.5906C178.63 64.5906 178.286 64.6744 177.971 64.8413C177.656 65.0073 177.396 65.2083 177.2 65.4435V68.5017C177.451 68.6702 177.728 68.7971 178.02 68.8769C178.286 68.9461 178.567 68.9803 178.868 68.9803C179.179 68.9859 179.487 68.9265 179.773 68.8069C180.03 68.7019 180.262 68.5432 180.453 68.3422C180.643 68.1388 180.79 67.8979 180.882 67.635C180.979 67.3575 181.036 67.0597 181.036 66.7268C181.036 66.6568 181.034 66.5877 181.029 66.5201L181.02 66.4103L181.011 66.3321L180.999 66.2516L180.984 66.1743L180.965 66.0839C180.947 66.0099 180.927 65.9374 180.902 65.8666C180.818 65.6038 180.685 65.3816 180.51 65.1871C180.334 64.9934 180.124 64.8478 179.872 64.7436C179.612 64.6394 179.324 64.5906 179.002 64.5906ZM189.597 63.6962H190.705V69.8673H189.597V63.6962ZM184.906 63.6962H183.797H183.791V69.8738H185.803C186.294 69.8738 186.701 69.8046 187.038 69.6809C187.374 69.5556 187.641 69.3896 187.837 69.1813C188.033 68.9729 188.18 68.7442 188.265 68.4806C188.355 68.2177 188.397 67.9532 188.397 67.6757C188.397 67.3982 188.355 67.1354 188.278 66.8782C188.202 66.6227 188.068 66.3932 187.879 66.1995C187.69 66.005 187.437 65.8455 187.121 65.7275C186.806 65.6103 186.413 65.5476 185.929 65.5476H184.906V63.6962ZM185.72 68.8411H184.913V66.5804V66.5657H185.734C186.266 66.5657 186.652 66.6634 186.884 66.8579C187.108 67.0524 187.227 67.3356 187.227 67.7107C187.227 68.0786 187.115 68.3553 186.891 68.5489C186.666 68.7442 186.273 68.8411 185.72 68.8411ZM196.021 66.6707L198.39 69.8673H197.031L195.2 67.3706L193.342 69.8673H192.051L194.407 66.7252L192.191 63.6954H193.552L195.242 66.0253L196.96 63.6954H198.25L196.021 66.6707ZM98.6733 77.4942H95.2725V82.6399H94.1641V76.4688H99.7809V82.6399H98.6733V77.4942ZM106.071 77.5634H103.883L103.812 78.6035C103.764 79.1576 103.705 79.6427 103.631 80.061C103.587 80.3075 103.538 80.5313 103.483 80.7324C103.336 81.2735 103.153 81.6894 102.943 81.9807C102.733 82.2721 102.487 82.4731 102.206 82.5707C101.917 82.6757 101.61 82.727 101.302 82.7229L101.218 81.6544C101.337 81.6609 101.477 81.634 101.632 81.5649C101.787 81.4957 101.941 81.3427 102.087 81.1148C102.235 80.878 102.368 80.5452 102.487 80.1155C102.606 79.6785 102.684 79.1104 102.726 78.3951L102.838 76.4745H107.179V82.6464H106.071V77.5634ZM109.212 76.8912C109.485 76.7179 109.808 76.5795 110.166 76.4827C110.532 76.3818 110.909 76.3305 111.288 76.3305C112.171 76.3305 112.796 76.551 113.146 76.9889C113.504 77.4259 113.68 78.0501 113.68 78.8541V82.6399H112.641V81.8424C112.459 82.0784 112.206 82.2867 111.892 82.4666C111.575 82.6472 111.162 82.7376 110.643 82.7376C110.068 82.7376 109.605 82.5707 109.255 82.2379C109.062 82.0564 108.923 81.8326 108.836 81.5681C108.764 81.3492 108.729 81.1034 108.729 80.8308C108.728 80.7869 108.729 80.7429 108.732 80.699C108.737 80.6021 108.749 80.5069 108.769 80.4133C108.8 80.2677 108.847 80.1261 108.911 79.991C109.026 79.7517 109.194 79.5409 109.401 79.3749C109.512 79.2838 109.637 79.2057 109.775 79.1397C109.892 79.0844 110.017 79.038 110.152 78.9998C110.446 78.916 110.755 78.8679 111.085 78.8679C111.353 78.8712 111.621 78.8989 111.884 78.9509C111.985 78.9688 112.084 78.9949 112.18 79.0283C112.343 79.0852 112.499 79.1642 112.641 79.2626C112.641 78.9786 112.627 78.7158 112.592 78.4724C112.573 78.3438 112.547 78.225 112.512 78.1168C112.493 78.0615 112.473 78.0086 112.45 77.9589C112.433 77.9231 112.416 77.8881 112.396 77.8556C112.298 77.6887 112.158 77.5504 111.968 77.4601C111.845 77.3974 111.698 77.3543 111.525 77.3323L111.441 77.3233C111.372 77.3176 111.3 77.3144 111.225 77.3144C110.84 77.3144 110.516 77.3567 110.264 77.4462C110.191 77.4723 110.117 77.4999 110.044 77.5284C109.866 77.5984 109.687 77.6765 109.507 77.7652L109.212 76.8912ZM111.036 81.7455C111.291 81.7455 111.515 81.713 111.708 81.6446C111.825 81.6031 111.93 81.5494 112.025 81.4811C112.252 81.3305 112.46 81.1506 112.642 80.9472V80.1635C112.256 79.8868 111.786 79.7558 111.24 79.7558C111.176 79.7558 111.112 79.7582 111.048 79.7639C110.947 79.7737 110.847 79.7916 110.749 79.8168C110.587 79.8591 110.44 79.921 110.321 80.0048C110.202 80.0878 110.096 80.192 110.02 80.3238C109.942 80.4557 109.907 80.6013 109.907 80.7747C109.907 81.0652 110.006 81.3012 110.202 81.4811C110.398 81.6552 110.671 81.7455 111.036 81.7455ZM114.773 76.4688H120.454V77.5642H118.167V82.6399H117.059V77.565H114.773V76.4688ZM126.129 82.3722C125.973 82.4535 125.807 82.5219 125.629 82.5772C125.208 82.7091 124.787 82.7791 124.373 82.7791C123.903 82.7848 123.435 82.7075 122.992 82.5496C122.578 82.3974 122.227 82.1817 121.94 81.8977C121.652 81.6137 121.422 81.2735 121.266 80.8788C121.112 80.4825 121.028 80.0398 121.028 79.554C121.024 79.1235 121.098 78.6962 121.246 78.2918C121.309 78.1152 121.389 77.9459 121.484 77.7856C121.593 77.6017 121.722 77.4291 121.87 77.2729C122.154 76.9783 122.496 76.7447 122.873 76.586C123.273 76.4192 123.728 76.3297 124.247 76.3297C124.634 76.3272 125.016 76.398 125.377 76.538C125.72 76.6658 126.035 76.8619 126.301 77.1134C126.566 77.3673 126.776 77.6716 126.919 78.0077C127.073 78.3544 127.151 78.7361 127.151 79.1585C127.151 79.4433 127.129 79.6866 127.081 79.9007H122.284C122.333 80.4833 122.55 80.9415 122.95 81.267C123.35 81.5925 123.855 81.752 124.465 81.752C124.872 81.752 125.243 81.6902 125.572 81.5657C125.902 81.4404 126.176 81.2882 126.379 81.1067L126.716 81.9669C126.537 82.1264 126.343 82.2615 126.129 82.3722ZM124.192 77.3559C123.616 77.3559 123.161 77.5089 122.817 77.8206C122.478 78.1266 122.261 78.5457 122.207 78.9998H125.994C125.966 78.4863 125.797 78.0842 125.482 77.7929C125.167 77.5089 124.739 77.3559 124.192 77.3559ZM129.093 76.4688H127.691L129.983 79.4433L127.586 82.6399H128.946L131.231 79.4441L129.093 76.4688ZM132.613 76.4688H131.505V82.6399H132.613V76.4688ZM134.135 79.4433L136.575 82.6399H135.201L132.886 79.4433L135.039 76.468H136.414L134.135 79.4433ZM142.725 81.9669C142.416 82.2436 142.059 82.4454 141.638 82.5772C141.232 82.7075 140.809 82.7758 140.383 82.7791C139.913 82.7848 139.445 82.7075 139.002 82.5496C138.587 82.3974 138.238 82.1817 137.95 81.8977C137.662 81.6137 137.431 81.2735 137.276 80.8788C137.122 80.4825 137.038 80.0398 137.038 79.554C137.034 79.1235 137.108 78.6962 137.256 78.2918C137.39 77.9125 137.603 77.565 137.88 77.2729C138.164 76.9783 138.505 76.7447 138.882 76.586C139.282 76.4192 139.738 76.3297 140.257 76.3297C140.643 76.3272 141.026 76.398 141.386 76.538C141.73 76.6658 142.044 76.8619 142.311 77.1134C142.575 77.3673 142.785 77.6716 142.928 78.0077C143.083 78.3544 143.16 78.7361 143.16 79.1585C143.16 79.4433 143.139 79.6866 143.09 79.9007H138.293C138.342 80.4833 138.56 80.9415 138.959 81.267C139.359 81.5925 139.864 81.752 140.474 81.752C140.881 81.752 141.252 81.6902 141.582 81.5657C141.911 81.4404 142.185 81.2882 142.388 81.1067L142.725 81.9669ZM140.202 77.3559C139.627 77.3559 139.171 77.5089 138.827 77.8206C138.487 78.1266 138.27 78.5457 138.216 78.9998H142.003C141.976 78.4863 141.807 78.0842 141.491 77.7929C141.176 77.5089 140.742 77.3559 140.202 77.3559ZM146.887 74.1121C147.065 74.3009 147.322 74.3953 147.656 74.3953C148.272 74.3953 148.616 74.0348 148.666 73.3137H149.703C149.703 73.5904 149.654 73.8403 149.556 74.0763C149.458 74.3123 149.317 74.5133 149.142 74.6793C149.064 74.7509 148.98 74.8176 148.89 74.8779C148.771 74.9576 148.641 75.026 148.498 75.0813C148.355 75.1399 148.203 75.1806 148.041 75.2058C147.916 75.2245 147.785 75.2335 147.648 75.2335C147.516 75.2335 147.39 75.2262 147.27 75.2115C147.079 75.1879 146.904 75.1456 146.744 75.0813C146.485 74.978 146.26 74.8461 146.085 74.6793C145.979 74.5792 145.888 74.4653 145.813 74.3391C145.764 74.2569 145.721 74.169 145.685 74.0763C145.634 73.9453 145.597 73.8093 145.574 73.6669C145.555 73.5538 145.545 73.4366 145.545 73.3137H146.59C146.617 73.6661 146.716 73.9322 146.887 74.1121ZM145.769 82.6399H144.661V76.468H145.769V81.0652L149.373 76.468H150.482V82.6399H149.373V78.0419L145.769 82.6399Z" fill="black"/>
</g>
</svg>
