<svg width="19" height="18" viewBox="0 0 19 18" fill="none" xmlns="http://www.w3.org/2000/svg">
<path d="M17.2667 18L10.9667 11.7C10.4667 12.1 9.89175 12.4167 9.24175 12.65C8.59175 12.8833 7.90008 13 7.16675 13C5.35008 13 3.81258 12.3708 2.55425 11.1125C1.29591 9.85417 0.666748 8.31667 0.666748 6.5C0.666748 4.68333 1.29591 3.14583 2.55425 1.8875C3.81258 0.629167 5.35008 0 7.16675 0C8.98341 0 10.5209 0.629167 11.7792 1.8875C13.0376 3.14583 13.6667 4.68333 13.6667 6.5C13.6667 7.23333 13.5501 7.925 13.3167 8.575C13.0834 9.225 12.7667 9.8 12.3667 10.3L18.6667 16.6L17.2667 18ZM7.16675 11C8.41675 11 9.47925 10.5625 10.3542 9.6875C11.2292 8.8125 11.6667 7.75 11.6667 6.5C11.6667 5.25 11.2292 4.1875 10.3542 3.3125C9.47925 2.4375 8.41675 2 7.16675 2C5.91675 2 4.85425 2.4375 3.97925 3.3125C3.10425 4.1875 2.66675 5.25 2.66675 6.5C2.66675 7.75 3.10425 8.8125 3.97925 9.6875C4.85425 10.5625 5.91675 11 7.16675 11Z" fill="black"/>
</svg>
