<svg width="36" height="36" viewBox="0 0 36 36" fill="none" xmlns="http://www.w3.org/2000/svg">
<g id="ph:star-fill">
<path id="Vector" d="M32.9765 16.0849L26.6344 21.6199L28.5342 29.8605C28.6347 30.2913 28.6061 30.7422 28.4517 31.1568C28.2974 31.5713 28.0243 31.9312 27.6666 32.1914C27.3088 32.4517 26.8823 32.6006 26.4403 32.6198C25.9984 32.6389 25.5606 32.5273 25.1817 32.299L17.9944 27.9396L10.8225 32.299C10.4436 32.5273 10.0058 32.6389 9.56385 32.6198C9.12189 32.6006 8.69538 32.4517 8.33763 32.1914C7.97988 31.9312 7.70678 31.5713 7.55246 31.1568C7.39814 30.7422 7.36945 30.2913 7.46998 29.8605L9.36701 21.6283L3.02342 16.0849C2.6879 15.7955 2.44529 15.4135 2.326 14.9868C2.20671 14.5601 2.21606 14.1077 2.35288 13.6863C2.4897 13.2649 2.74789 12.8932 3.09508 12.6179C3.44227 12.3427 3.863 12.1761 4.30451 12.139L12.6661 11.4147L15.93 3.62974C16.1004 3.22125 16.3879 2.87232 16.7563 2.62688C17.1246 2.38145 17.5574 2.25049 18 2.25049C18.4426 2.25049 18.8753 2.38145 19.2437 2.62688C19.612 2.87232 19.8995 3.22125 20.07 3.62974L23.3437 11.4147L31.7025 12.139C32.144 12.1761 32.5647 12.3427 32.9119 12.6179C33.2591 12.8932 33.5173 13.2649 33.6541 13.6863C33.7909 14.1077 33.8003 14.5601 33.681 14.9868C33.5617 15.4135 33.3191 15.7955 32.9836 16.0849H32.9765Z" fill="#2767FF"/>
</g>
</svg>
