<svg width="40" height="40" viewBox="0 0 40 40" fill="none" xmlns="http://www.w3.org/2000/svg">
<rect width="40" height="40" rx="10" fill="#E8F4FF"/>
<g clip-path="url(#clip0_302_601)">
<path d="M20 31C26.0751 31 31 26.0751 31 20C31 13.9249 26.0751 9 20 9C13.9249 9 9 13.9249 9 20C9 26.0751 13.9249 31 20 31Z" fill="url(#paint0_linear_302_601)"/>
<path d="M16.446 20.8041L17.751 24.4163C17.751 24.4163 17.9142 24.7543 18.0889 24.7543C18.2636 24.7543 20.8623 22.0508 20.8623 22.0508L23.7521 16.4692L16.4926 19.8716L16.446 20.8041Z" fill="#C8DAEA"/>
<path d="M18.1764 21.7305L17.9258 24.393C17.9258 24.393 17.821 25.2089 18.6366 24.393C19.4523 23.5772 20.233 22.9481 20.233 22.9481" fill="#A9C6D8"/>
<path d="M16.4696 20.933L13.785 20.0583C13.785 20.0583 13.4642 19.9282 13.5675 19.633C13.5888 19.5721 13.6317 19.5203 13.76 19.4313C14.3548 19.0167 24.7697 15.2733 24.7697 15.2733C24.7697 15.2733 25.0638 15.1742 25.2372 15.2401C25.2801 15.2534 25.3187 15.2779 25.3491 15.311C25.3794 15.3441 25.4005 15.3846 25.41 15.4285C25.4287 15.506 25.4366 15.5858 25.4333 15.6655C25.4325 15.7344 25.4241 15.7983 25.4178 15.8985C25.3544 16.922 23.4561 24.5604 23.4561 24.5604C23.4561 24.5604 23.3426 25.0073 22.9356 25.0226C22.8356 25.0259 22.736 25.0089 22.6427 24.9728C22.5494 24.9367 22.4643 24.8822 22.3925 24.8125C21.594 24.1257 18.8341 22.2709 18.2243 21.863C18.2105 21.8536 18.1989 21.8414 18.1903 21.8272C18.1816 21.8129 18.1762 21.797 18.1742 21.7805C18.1657 21.7375 18.2124 21.6842 18.2124 21.6842C18.2124 21.6842 23.0181 17.4126 23.146 16.9641C23.1559 16.9294 23.1185 16.9122 23.0683 16.9275C22.7491 17.0449 17.2159 20.5391 16.6052 20.9248C16.5613 20.9381 16.5148 20.9409 16.4696 20.933Z" fill="white"/>
</g>
<defs>
<linearGradient id="paint0_linear_302_601" x1="20" y1="31" x2="20" y2="9" gradientUnits="userSpaceOnUse">
<stop stop-color="#1D93D2"/>
<stop offset="1" stop-color="#38B0E3"/>
</linearGradient>
<clipPath id="clip0_302_601">
<rect width="22" height="22" fill="white" transform="translate(9 9)"/>
</clipPath>
</defs>
</svg>
