<svg width="23" height="22" viewBox="0 0 23 22" fill="none" xmlns="http://www.w3.org/2000/svg">
<g clip-path="url(#clip0_618_3042)">
<path d="M11.3333 22C17.4084 22 22.3333 17.0751 22.3333 11C22.3333 4.92487 17.4084 0 11.3333 0C5.25812 0 0.333252 4.92487 0.333252 11C0.333252 17.0751 5.25812 22 11.3333 22Z" fill="url(#paint0_linear_618_3042)"/>
<path d="M7.7793 11.8041L9.08436 15.4163C9.08436 15.4163 9.24752 15.7543 9.42224 15.7543C9.59696 15.7543 12.1956 13.0508 12.1956 13.0508L15.0854 7.46924L7.82586 10.8716L7.7793 11.8041Z" fill="#C8DAEA"/>
<path d="M9.50955 12.7305L9.25903 15.393C9.25903 15.393 9.15416 16.2089 9.96981 15.393C10.7855 14.5772 11.5662 13.9481 11.5662 13.9481" fill="#A9C6D8"/>
<path d="M7.8027 11.933L5.11815 11.0583C5.11815 11.0583 4.79731 10.9282 4.90062 10.633C4.92189 10.5721 4.96479 10.5203 5.09312 10.4313C5.68795 10.0167 16.1028 6.27333 16.1028 6.27333C16.1028 6.27333 16.3969 6.17424 16.5703 6.24015C16.6132 6.25343 16.6519 6.27787 16.6822 6.31097C16.7126 6.34407 16.7336 6.38464 16.7431 6.42852C16.7619 6.50604 16.7697 6.5858 16.7664 6.66548C16.7656 6.73442 16.7572 6.79831 16.7509 6.8985C16.6875 7.92196 14.7893 15.5604 14.7893 15.5604C14.7893 15.5604 14.6757 16.0073 14.2688 16.0226C14.1688 16.0259 14.0692 16.0089 13.9758 15.9728C13.8825 15.9367 13.7974 15.8822 13.7256 15.8125C12.9271 15.1257 10.1672 13.2709 9.55738 12.863C9.54363 12.8536 9.53204 12.8414 9.52341 12.8272C9.51477 12.8129 9.50929 12.797 9.50733 12.7805C9.49881 12.7375 9.54556 12.6842 9.54556 12.6842C9.54556 12.6842 14.3513 8.41256 14.4791 7.96412C14.489 7.92938 14.4516 7.91224 14.4014 7.92746C14.0822 8.04488 8.54905 11.5391 7.93836 11.9248C7.89441 11.9381 7.84794 11.9409 7.8027 11.933Z" fill="white"/>
</g>
<defs>
<linearGradient id="paint0_linear_618_3042" x1="11.3333" y1="22" x2="11.3333" y2="0" gradientUnits="userSpaceOnUse">
<stop stop-color="#1D93D2"/>
<stop offset="1" stop-color="#38B0E3"/>
</linearGradient>
<clipPath id="clip0_618_3042">
<rect width="22" height="22" fill="white" transform="translate(0.333252)"/>
</clipPath>
</defs>
</svg>
