<svg width="75" height="75" viewBox="0 0 75 75" fill="none" xmlns="http://www.w3.org/2000/svg">
<g id="mingcute:telegram-fill" clip-path="url(#clip0_1449_81)">
<g id="Group">
<path id="Vector" fill-rule="evenodd" clip-rule="evenodd" d="M61.8028 13.8436C62.575 13.5186 63.4203 13.4065 64.2505 13.519C65.0808 13.6315 65.8658 13.9645 66.5237 14.4833C67.1816 15.0021 67.6884 15.6877 67.9914 16.4689C68.2944 17.2501 68.3825 18.0981 68.2465 18.9249L61.159 61.9155C60.4715 66.0624 55.9215 68.4405 52.1184 66.3749C48.9371 64.6468 44.2122 61.9843 39.9622 59.2061C37.8372 57.8155 31.3278 53.3624 32.1278 50.1936C32.8153 47.4843 43.7528 37.303 50.0028 31.2499C52.4559 28.8718 51.3372 27.4999 48.4403 29.6874C41.2465 35.1186 29.6965 43.378 25.8778 45.703C22.509 47.753 20.7528 48.103 18.6528 47.753C14.8215 47.1155 11.2684 46.128 8.3684 44.9249C4.44965 43.2999 4.64027 37.9124 8.36527 36.3436L61.8028 13.8436Z" fill="#2767FE"/>
</g>
</g>
<defs>
<clipPath id="clip0_1449_81">
<rect width="75" height="75" fill="white"/>
</clipPath>
</defs>
</svg>
