<svg width="40" height="40" viewBox="0 0 40 40" fill="none" xmlns="http://www.w3.org/2000/svg">
<g clip-path="url(#clip0_1100_120)">
<path d="M20 0C14.6969 0 9.60625 2.10844 5.85938 5.85781C2.10863 9.60868 0.00103897 14.6956 0 20C0 25.3022 2.10938 30.3928 5.85938 34.1422C9.60625 37.8916 14.6969 40 20 40C25.3031 40 30.3937 37.8916 34.1406 34.1422C37.8906 30.3928 40 25.3022 40 20C40 14.6978 37.8906 9.60719 34.1406 5.85781C30.3937 2.10844 25.3031 0 20 0Z" fill="url(#paint0_linear_1100_120)"/>
<path d="M9.05291 19.7888C14.8842 17.2488 18.7717 15.5741 20.7154 14.765C26.2717 12.4547 27.4248 12.0534 28.1779 12.0399C28.3435 12.0372 28.7123 12.0781 28.9529 12.2727C29.1529 12.4367 29.2092 12.6586 29.2373 12.8144C29.2623 12.97 29.2967 13.3247 29.2685 13.6016C28.9685 16.7641 27.6654 24.4384 27.0029 27.9806C26.7248 29.4794 26.1717 29.9819 25.6373 30.0309C24.4748 30.1378 23.5935 29.2634 22.4685 28.5263C20.7092 27.3722 19.7154 26.6541 18.006 25.5281C16.031 24.2269 17.3123 23.5116 18.4373 22.3428C18.731 22.0369 23.8498 17.3822 23.9467 16.96C23.9592 16.9072 23.9717 16.7103 23.8529 16.6066C23.7373 16.5025 23.5654 16.5381 23.4404 16.5663C23.2623 16.6063 20.4529 18.465 15.0029 22.1422C14.206 22.6903 13.4842 22.9575 12.8342 22.9434C12.1217 22.9281 10.7467 22.5397 9.72479 22.2078C8.47479 21.8006 7.47791 21.5853 7.56541 20.8938C7.60916 20.5338 8.10603 20.1653 9.05291 19.7888Z" fill="white"/>
</g>
<defs>
<linearGradient id="paint0_linear_1100_120" x1="2000" y1="0" x2="2000" y2="4000" gradientUnits="userSpaceOnUse">
<stop stop-color="#2AABEE"/>
<stop offset="1" stop-color="#229ED9"/>
</linearGradient>
<clipPath id="clip0_1100_120">
<rect width="40" height="40" fill="white"/>
</clipPath>
</defs>
</svg>
