<svg width="26" height="26" viewBox="0 0 26 26" fill="none" xmlns="http://www.w3.org/2000/svg">
<g id="gravity-ui:trash-bin">
<path id="Vector" fill-rule="evenodd" clip-rule="evenodd" d="M14.6253 3.25H11.3753C11.1598 3.25 10.9532 3.3356 10.8008 3.48798C10.6484 3.64035 10.5628 3.84701 10.5628 4.0625V4.875H15.4378V4.0625C15.4378 3.84701 15.3522 3.64035 15.1999 3.48798C15.0475 3.3356 14.8408 3.25 14.6253 3.25ZM17.8753 4.875V4.0625C17.8753 3.20055 17.5329 2.3739 16.9234 1.7644C16.3139 1.15491 15.4873 0.8125 14.6253 0.8125H11.3753C10.5134 0.8125 9.68672 1.15491 9.07723 1.7644C8.46774 2.3739 8.12533 3.20055 8.12533 4.0625V4.875H3.6582C3.33497 4.875 3.02498 5.0034 2.79642 5.23196C2.56786 5.46052 2.43945 5.77052 2.43945 6.09375C2.43945 6.41698 2.56786 6.72698 2.79642 6.95554C3.02498 7.1841 3.33497 7.3125 3.6582 7.3125H4.1652L4.68033 19.7031C4.73274 20.96 5.26896 22.1479 6.17688 23.0186C7.08481 23.8892 8.29415 24.3753 9.55208 24.375H16.4502C17.7079 24.3748 18.9168 23.8886 19.8244 23.018C20.7319 22.1474 21.2679 20.9597 21.3203 19.7031L21.8371 7.3125H22.3441C22.6673 7.3125 22.9773 7.1841 23.2059 6.95554C23.4344 6.72698 23.5628 6.41698 23.5628 6.09375C23.5628 5.77052 23.4344 5.46052 23.2059 5.23196C22.9773 5.0034 22.6673 4.875 22.3441 4.875H17.8753ZM19.3963 7.3125H6.60433L7.1162 19.6007C7.14221 20.2293 7.41023 20.8235 7.86421 21.259C8.31819 21.6945 8.92298 21.9376 9.55208 21.9375H16.4502C17.079 21.9372 17.6834 21.6939 18.137 21.2584C18.5907 20.823 18.8585 20.229 18.8845 19.6007L19.3963 7.3125ZM9.34408 10.5625V18.6875C9.34408 19.0107 9.47248 19.3207 9.70104 19.5493C9.9296 19.7778 10.2396 19.9062 10.5628 19.9062C10.8861 19.9062 11.1961 19.7778 11.4246 19.5493C11.6532 19.3207 11.7816 19.0107 11.7816 18.6875V10.5625C11.7816 10.2393 11.6532 9.92927 11.4246 9.70071C11.1961 9.47215 10.8861 9.34375 10.5628 9.34375C10.2396 9.34375 9.9296 9.47215 9.70104 9.70071C9.47248 9.92927 9.34408 10.2393 9.34408 10.5625ZM15.4378 9.34375C15.7611 9.34375 16.0711 9.47215 16.2996 9.70071C16.5282 9.92927 16.6566 10.2393 16.6566 10.5625V18.6875C16.6566 19.0107 16.5282 19.3207 16.2996 19.5493C16.0711 19.7778 15.7611 19.9062 15.4378 19.9062C15.1146 19.9062 14.8046 19.7778 14.576 19.5493C14.3475 19.3207 14.2191 19.0107 14.2191 18.6875V10.5625C14.2191 10.2393 14.3475 9.92927 14.576 9.70071C14.8046 9.47215 15.1146 9.34375 15.4378 9.34375Z" fill="white"/>
</g>
</svg>
