<svg width="35" height="35" viewBox="0 0 35 35" fill="none" xmlns="http://www.w3.org/2000/svg">
<g id="gravity-ui:trash-bin">
<path id="Vector" fill-rule="evenodd" clip-rule="evenodd" d="M19.6875 4.375H15.3125C15.0224 4.375 14.7442 4.49023 14.5391 4.69535C14.334 4.90047 14.2188 5.17867 14.2188 5.46875V6.5625H20.7813V5.46875C20.7813 5.17867 20.666 4.90047 20.4609 4.69535C20.2558 4.49023 19.9776 4.375 19.6875 4.375ZM24.0625 6.5625V5.46875C24.0625 4.30843 23.6016 3.19563 22.7811 2.37516C21.9606 1.55469 20.8478 1.09375 19.6875 1.09375H15.3125C14.1522 1.09375 13.0394 1.55469 12.2189 2.37516C11.3984 3.19563 10.9375 4.30843 10.9375 5.46875V6.5625H4.92407C4.48895 6.5625 4.07165 6.73535 3.76397 7.04303C3.4563 7.3507 3.28345 7.768 3.28345 8.20312C3.28345 8.63825 3.4563 9.05555 3.76397 9.36322C4.07165 9.6709 4.48895 9.84375 4.92407 9.84375H5.60657L6.30001 26.5234C6.37057 28.2153 7.0924 29.8145 8.3146 30.9865C9.53681 32.1586 11.1648 32.8128 12.8581 32.8125H22.1441C23.8371 32.8123 25.4645 32.1578 26.6862 30.9858C27.9079 29.8138 28.6295 28.215 28.7 26.5234L29.3956 9.84375H30.0781C30.5133 9.84375 30.9306 9.6709 31.2382 9.36322C31.5459 9.05555 31.7188 8.63825 31.7188 8.20312C31.7188 7.768 31.5459 7.3507 31.2382 7.04303C30.9306 6.73535 30.5133 6.5625 30.0781 6.5625H24.0625ZM26.11 9.84375H8.89001L9.57907 26.3856C9.61408 27.2318 9.97487 28.0316 10.586 28.6179C11.1971 29.2041 12.0113 29.5314 12.8581 29.5312H22.1441C22.9906 29.5308 23.8041 29.2033 24.4148 28.6171C25.0255 28.0309 25.386 27.2314 25.4209 26.3856L26.11 9.84375ZM12.5781 14.2188V25.1562C12.5781 25.5914 12.751 26.0087 13.0587 26.3163C13.3663 26.624 13.7836 26.7969 14.2188 26.7969C14.6539 26.7969 15.0712 26.624 15.3789 26.3163C15.6865 26.0087 15.8594 25.5914 15.8594 25.1562V14.2188C15.8594 13.7836 15.6865 13.3663 15.3789 13.0587C15.0712 12.751 14.6539 12.5781 14.2188 12.5781C13.7836 12.5781 13.3663 12.751 13.0587 13.0587C12.751 13.3663 12.5781 13.7836 12.5781 14.2188ZM20.7813 12.5781C21.2164 12.5781 21.6337 12.751 21.9414 13.0587C22.249 13.3663 22.4219 13.7836 22.4219 14.2188V25.1562C22.4219 25.5914 22.249 26.0087 21.9414 26.3163C21.6337 26.624 21.2164 26.7969 20.7813 26.7969C20.3461 26.7969 19.9288 26.624 19.6212 26.3163C19.3135 26.0087 19.1406 25.5914 19.1406 25.1562V14.2188C19.1406 13.7836 19.3135 13.3663 19.6212 13.0587C19.9288 12.751 20.3461 12.5781 20.7813 12.5781Z" fill="#2767FE"/>
</g>
</svg>
