<svg width="24" height="24" viewBox="0 0 24 24" fill="none" xmlns="http://www.w3.org/2000/svg">
<mask id="mask0_618_3053" style="mask-type:alpha" maskUnits="userSpaceOnUse" x="0" y="0" width="24" height="24">
<rect width="24" height="24" fill="#D9D9D9"/>
</mask>
<g mask="url(#mask0_618_3053)">
<path d="M12 22C10.6111 22 9.31019 21.7361 8.09722 21.2083C6.88426 20.6806 5.8287 19.9676 4.93056 19.0694C4.03241 18.1713 3.31944 17.1157 2.79167 15.9028C2.26389 14.6898 2 13.3889 2 12C2 10.6111 2.26389 9.31019 2.79167 8.09722C3.31944 6.88426 4.03241 5.8287 4.93056 4.93056C5.8287 4.03241 6.88426 3.31944 8.09722 2.79167C9.31019 2.26389 10.6111 2 12 2C13.5185 2 14.9583 2.32407 16.3194 2.97222C17.6806 3.62037 18.8333 4.53704 19.7778 5.72222V3.11111H22V9.77778H15.3333V7.55556H18.3889C17.6296 6.51852 16.6944 5.7037 15.5833 5.11111C14.4722 4.51852 13.2778 4.22222 12 4.22222C9.83333 4.22222 7.99537 4.97685 6.48611 6.48611C4.97685 7.99537 4.22222 9.83333 4.22222 12C4.22222 14.1667 4.97685 16.0046 6.48611 17.5139C7.99537 19.0231 9.83333 19.7778 12 19.7778C13.9444 19.7778 15.6435 19.1481 17.0972 17.8889C18.5509 16.6296 19.4074 15.037 19.6667 13.1111H21.9444C21.6667 15.6481 20.5787 17.7639 18.6806 19.4583C16.7824 21.1528 14.5556 22 12 22ZM15.1111 16.6667L10.8889 12.4444V6.44444H13.1111V11.5556L16.6667 15.1111L15.1111 16.6667Z" fill="#1C1B1F"/>
</g>
</svg>
