<svg width="75" height="75" viewBox="0 0 75 75" fill="none" xmlns="http://www.w3.org/2000/svg">
<g id="ic:round-history">
<path id="Vector" d="M41.4384 9.37516C25.5321 8.93766 12.5009 21.7189 12.5009 37.5002H6.90714C5.50089 37.5002 4.81339 39.1877 5.81339 40.1564L14.5321 48.9064C15.1571 49.5314 16.1259 49.5314 16.7509 48.9064L25.4696 40.1564C25.6856 39.9361 25.8315 39.6568 25.889 39.3537C25.9464 39.0507 25.9129 38.7373 25.7926 38.4533C25.6723 38.1692 25.4706 37.9271 25.2129 37.7575C24.9552 37.5879 24.6531 37.4984 24.3446 37.5002H18.7509C18.7509 25.3127 28.6884 15.4689 40.9384 15.6252C52.5634 15.7814 62.3446 25.5627 62.5009 37.1877C62.6571 49.4064 52.8134 59.3752 40.6259 59.3752C35.5946 59.3752 30.9384 57.6564 27.2509 54.7502C26.6523 54.2787 25.9014 54.0436 25.1408 54.0897C24.3802 54.1358 23.6631 54.4598 23.1259 55.0002C21.8134 56.3127 21.9071 58.5314 23.3759 59.6564C28.2857 63.5391 34.3664 65.6432 40.6259 65.6252C56.4071 65.6252 69.1884 52.5939 68.7509 36.6877C68.3446 22.0314 56.0946 9.78141 41.4384 9.37516ZM39.8446 25.0002C38.5634 25.0002 37.5009 26.0627 37.5009 27.3439V38.8439C37.5009 39.9377 38.0946 40.9689 39.0321 41.5314L48.7821 47.3127C49.9071 47.9689 51.3446 47.5939 52.0009 46.5002C52.6571 45.3752 52.2821 43.9377 51.1884 43.2814L42.1884 37.9377V27.3127C42.1884 26.0627 41.1259 25.0002 39.8446 25.0002Z" fill="#2767FE"/>
</g>
</svg>
