<svg width="30" height="30" viewBox="0 0 30 30" fill="none" xmlns="http://www.w3.org/2000/svg">
<g id="mingcute:upload-line" clip-path="url(#clip0_696_3796)">
<g id="Group">
<path id="Vector" d="M10 11.2501V13.7501H6.25V25.0001H23.75V13.7501H20V11.2501H23.75C24.413 11.2501 25.0489 11.5135 25.5178 11.9823C25.9866 12.4511 26.25 13.087 26.25 13.7501V25.0001C26.25 25.6631 25.9866 26.299 25.5178 26.7678C25.0489 27.2367 24.413 27.5001 23.75 27.5001H6.25C5.58696 27.5001 4.95107 27.2367 4.48223 26.7678C4.01339 26.299 3.75 25.6631 3.75 25.0001V13.7501C3.75 13.087 4.01339 12.4511 4.48223 11.9823C4.95107 11.5135 5.58696 11.2501 6.25 11.2501H10ZM16.105 3.08632L20.3037 7.28382C20.5383 7.51837 20.6701 7.83649 20.6701 8.16819C20.6701 8.4999 20.5383 8.81802 20.3037 9.05257C20.0692 9.28712 19.7511 9.41889 19.4194 9.41889C19.0877 9.41889 18.7696 9.28712 18.535 9.05257L16.25 6.76632V18.7501C16.25 19.0816 16.1183 19.3995 15.8839 19.6339C15.6495 19.8684 15.3315 20.0001 15 20.0001C14.6685 20.0001 14.3505 19.8684 14.1161 19.6339C13.8817 19.3995 13.75 19.0816 13.75 18.7501V6.76632L11.465 9.05257C11.3489 9.1687 11.211 9.26083 11.0592 9.32368C10.9075 9.38654 10.7449 9.41889 10.5806 9.41889C10.4164 9.41889 10.2537 9.38654 10.102 9.32368C9.95026 9.26083 9.81239 9.1687 9.69625 9.05257C9.58011 8.93643 9.48799 8.79855 9.42513 8.64681C9.36228 8.49507 9.32993 8.33244 9.32993 8.16819C9.32993 8.00395 9.36228 7.84131 9.42513 7.68957C9.48799 7.53783 9.58011 7.39995 9.69625 7.28382L13.8962 3.08632C14.1892 2.79358 14.5865 2.62915 15.0006 2.62915C15.4148 2.62915 15.812 2.79358 16.105 3.08632Z" fill="#2667FF"/>
</g>
</g>
<defs>
<clipPath id="clip0_696_3796">
<rect width="30" height="30" fill="white"/>
</clipPath>
</defs>
</svg>
