<svg width="40" height="40" viewBox="0 0 40 40" fill="none" xmlns="http://www.w3.org/2000/svg">
<rect width="40" height="40" rx="10" fill="#EAFFE8"/>
<g clip-path="url(#clip0_302_567)">
<path d="M9.4695 19.8684C9.46898 21.7168 9.95573 23.5216 10.8813 25.1125L9.38098 30.5478L14.9869 29.0893C16.5374 29.9269 18.2746 30.3657 20.04 30.3658H20.0446C25.8725 30.3658 30.6165 25.6603 30.619 19.8766C30.6201 17.074 29.5211 14.4386 27.5245 12.4559C25.5281 10.4733 22.8731 9.38092 20.0442 9.37964C14.2157 9.37964 9.47199 14.0849 9.46958 19.8684" fill="url(#paint0_linear_302_567)"/>
<path d="M9.09195 19.8649C9.09135 21.7799 9.59555 23.6493 10.5541 25.2971L9 30.9273L14.8069 29.4165C16.4069 30.2821 18.2083 30.7385 20.0413 30.7392H20.0461C26.083 30.7392 30.9974 25.8644 31 19.8736C31.001 16.9703 29.8625 14.2402 27.7945 12.1864C25.7263 10.1329 22.9763 9.00119 20.0461 9C14.0081 9 9.09436 13.8741 9.09195 19.8649ZM12.5501 25.0133L12.3333 24.6718C11.4218 23.2337 10.9407 21.572 10.9414 19.8656C10.9434 14.8862 15.0275 10.835 20.0495 10.835C22.4815 10.8361 24.7671 11.7768 26.4862 13.4836C28.2052 15.1905 29.1511 17.4596 29.1505 19.8729C29.1483 24.8524 25.0641 28.904 20.0461 28.904H20.0425C18.4085 28.9032 16.806 28.4678 15.4085 27.645L15.076 27.4493L11.63 28.3458L12.5501 25.0132V25.0133Z" fill="url(#paint1_linear_302_567)"/>
<path d="M17.3082 15.3227C17.1032 14.8705 16.8874 14.8614 16.6924 14.8534C16.5327 14.8466 16.3502 14.8471 16.1679 14.8471C15.9853 14.8471 15.6888 14.9152 15.4381 15.1868C15.1871 15.4587 14.48 16.1156 14.48 17.4517C14.48 18.7879 15.4608 20.0792 15.5976 20.2606C15.7345 20.4416 17.491 23.2712 20.273 24.3598C22.5851 25.2645 23.0556 25.0845 23.5574 25.0392C24.0592 24.994 25.1768 24.3824 25.4048 23.7482C25.6329 23.1142 25.6329 22.5707 25.5645 22.4571C25.4961 22.3439 25.3136 22.276 25.0399 22.1402C24.7661 22.0044 23.4205 21.3473 23.1696 21.2567C22.9187 21.1661 22.7362 21.121 22.5537 21.3929C22.3712 21.6644 21.847 22.276 21.6873 22.4571C21.5277 22.6386 21.3679 22.6612 21.0943 22.5254C20.8204 22.3891 19.939 22.1027 18.8932 21.1776C18.0795 20.4577 17.5302 19.5688 17.3705 19.2968C17.2109 19.0253 17.3534 18.8781 17.4907 18.7428C17.6137 18.6211 17.7645 18.4257 17.9015 18.2672C18.0379 18.1086 18.0835 17.9954 18.1748 17.8143C18.2661 17.633 18.2204 17.4744 18.1521 17.3386C18.0835 17.2027 17.5516 15.8596 17.3082 15.3227Z" fill="white"/>
</g>
<defs>
<linearGradient id="paint0_linear_302_567" x1="1071.28" y1="2126.2" x2="1071.28" y2="9.37964" gradientUnits="userSpaceOnUse">
<stop stop-color="#1FAF38"/>
<stop offset="1" stop-color="#60D669"/>
</linearGradient>
<linearGradient id="paint1_linear_302_567" x1="1109" y1="2201.73" x2="1109" y2="9" gradientUnits="userSpaceOnUse">
<stop stop-color="#F9F9F9"/>
<stop offset="1" stop-color="white"/>
</linearGradient>
<clipPath id="clip0_302_567">
<rect width="22" height="22" fill="white" transform="translate(9 9)"/>
</clipPath>
</defs>
</svg>
