<svg width="23" height="22" viewBox="0 0 23 22" fill="none" xmlns="http://www.w3.org/2000/svg">
<g clip-path="url(#clip0_618_3027)">
<path d="M0.802627 10.8684C0.802111 12.7168 1.28886 14.5216 2.21441 16.1125L0.714111 21.5478L6.31999 20.0893C7.8705 20.9269 9.60773 21.3657 11.3731 21.3658H11.3778C17.2056 21.3658 21.9496 16.6603 21.9521 10.8766C21.9532 8.07401 20.8543 5.43862 18.8576 3.45589C16.8613 1.47333 14.2062 0.380918 11.3773 0.379639C5.54878 0.379639 0.805119 5.08491 0.802713 10.8684" fill="url(#paint0_linear_618_3027)"/>
<path d="M0.425205 10.8649C0.424604 12.7799 0.928799 14.6493 1.88735 16.2971L0.333252 21.9273L6.14013 20.4165C7.74012 21.2821 9.54154 21.7385 11.3746 21.7392H11.3793C17.4163 21.7392 22.3307 16.8644 22.3333 10.8736C22.3343 7.97031 21.1958 5.24018 19.1278 3.18642C17.0595 1.13291 14.3095 0.0011938 11.3793 0C5.34135 0 0.427611 4.87411 0.425205 10.8649ZM3.88333 16.0133L3.66651 15.6718C2.75506 14.2337 2.27398 12.572 2.27467 10.8656C2.27664 5.88619 6.36074 1.83504 11.3828 1.83504C13.8148 1.83606 16.1004 2.77678 17.8195 4.48357C19.5385 6.19053 20.4844 8.4596 20.4838 10.8729C20.4816 15.8524 16.3974 19.904 11.3793 19.904H11.3757C9.74178 19.9032 8.1393 19.4678 6.74178 18.645L6.40921 18.4493L2.96328 19.3458L3.88333 16.0132V16.0133Z" fill="url(#paint1_linear_618_3027)"/>
<path d="M8.64144 6.32274C8.43639 5.87054 8.2206 5.86142 8.02561 5.85349C7.86594 5.84666 7.6834 5.84718 7.50104 5.84718C7.31851 5.84718 7.02194 5.91531 6.77126 6.1869C6.52033 6.45874 5.81323 7.11567 5.81323 8.45179C5.81323 9.78799 6.79404 11.0793 6.93076 11.2606C7.06766 11.4417 8.82422 14.2713 11.6062 15.3599C13.9183 16.2645 14.3888 16.0846 14.8906 16.0392C15.3924 15.994 16.51 15.3825 16.738 14.7483C16.9661 14.1142 16.9661 13.5707 16.8977 13.4571C16.8293 13.344 16.6468 13.276 16.3731 13.1403C16.0993 13.0044 14.7537 12.3474 14.5028 12.2568C14.2519 12.1662 14.0694 12.121 13.8869 12.3929C13.7044 12.6644 13.1802 13.276 13.0205 13.4571C12.8609 13.6387 12.7011 13.6613 12.4275 13.5254C12.1536 13.3892 11.2722 13.1027 10.2264 12.1776C9.41272 11.4578 8.86341 10.5688 8.70374 10.2969C8.54407 10.0254 8.68664 9.87821 8.82388 9.74288C8.94686 9.6212 9.09768 9.42576 9.23466 9.26724C9.37113 9.10863 9.41668 8.99548 9.50794 8.81436C9.59929 8.63308 9.55358 8.47447 9.48526 8.33863C9.41668 8.2028 8.88481 6.85969 8.64144 6.32274Z" fill="white"/>
</g>
<defs>
<linearGradient id="paint0_linear_618_3027" x1="1062.61" y1="2117.2" x2="1062.61" y2="0.379639" gradientUnits="userSpaceOnUse">
<stop stop-color="#1FAF38"/>
<stop offset="1" stop-color="#60D669"/>
</linearGradient>
<linearGradient id="paint1_linear_618_3027" x1="1100.33" y1="2192.73" x2="1100.33" y2="0" gradientUnits="userSpaceOnUse">
<stop stop-color="#F9F9F9"/>
<stop offset="1" stop-color="white"/>
</linearGradient>
<clipPath id="clip0_618_3027">
<rect width="22" height="22" fill="white" transform="translate(0.333252)"/>
</clipPath>
</defs>
</svg>
