<svg width="80" height="80" viewBox="0 0 80 80" fill="none" xmlns="http://www.w3.org/2000/svg">
<g id="mdi:hours-24">
<path id="Vector" d="M43.3334 6.83366V13.567C56.5001 15.2003 66.6668 26.4003 66.6668 40.0003C66.6668 50.7003 60.2668 60.0003 50.9334 64.267L43.3334 56.667V73.3337H60.0001L55.9334 69.267C66.3668 63.567 73.3334 52.5337 73.3334 40.0003C73.3334 22.7337 60.1668 8.50033 43.3334 6.83366ZM36.6667 6.66699C30.1667 7.33366 24.0001 9.86699 18.9334 14.0337L23.6667 18.767C27.4504 15.8503 31.9329 13.9768 36.6667 13.3337V6.66699ZM14.0001 18.9337C9.86675 24.0003 7.33341 30.167 6.66675 36.667H13.3334C13.9667 31.9337 15.8334 27.4337 18.7667 23.667L14.0001 18.9337ZM20.0001 26.667V33.3337H30.0001V36.667H26.6667C23.0001 36.667 20.0001 39.667 20.0001 43.3337V53.3337H36.6667V46.667H26.6667V43.3337H30.0001C33.7001 43.3337 36.6667 40.367 36.6667 36.667V33.3337C36.6667 31.5655 35.9644 29.8699 34.7141 28.6196C33.4639 27.3694 31.7682 26.667 30.0001 26.667H20.0001ZM40.0001 26.667V43.3337H50.0001V53.3337H56.6668V43.3337H60.0001V36.667H56.6668V26.667H50.0001V36.667H46.6667V26.667H40.0001ZM6.66675 43.3337C7.33341 49.8337 9.90008 56.0003 14.0667 61.067L18.8001 56.3337C15.8734 52.5523 13.9886 48.0702 13.3334 43.3337H6.66675ZM23.7001 61.2337L18.9334 65.967C23.998 70.1021 30.1629 72.6631 36.6667 73.3337V66.667C31.939 66.0384 27.4637 64.1632 23.7001 61.2337Z" fill="white"/>
</g>
</svg>
