<svg width="24" height="26" viewBox="0 0 24 26" fill="none" xmlns="http://www.w3.org/2000/svg">
<g id="ep:arrow-up-bold" clip-path="url(#clip0_696_3761)">
<path id="Vector" d="M7.93967 2.65839C7.65847 2.96313 7.50049 3.37638 7.50049 3.80727C7.50049 4.23816 7.65847 4.65141 7.93967 4.95614L15.3647 12.9999L7.93967 21.0436C7.66644 21.3501 7.51524 21.7606 7.51866 22.1867C7.52208 22.6127 7.67983 23.0203 7.95794 23.3216C8.23606 23.6229 8.61228 23.7938 9.00557 23.7975C9.39887 23.8012 9.77777 23.6374 10.0607 23.3414L18.5462 14.1488C18.8274 13.844 18.9854 13.4308 18.9854 12.9999C18.9854 12.569 18.8274 12.1558 18.5462 11.851L10.0607 2.65839C9.77938 2.35375 9.39792 2.18262 9.00017 2.18262C8.60243 2.18262 8.22096 2.35375 7.93967 2.65839Z" fill="#3E3E3E"/>
</g>
<defs>
<clipPath id="clip0_696_3761">
<rect width="26" height="24" fill="white" transform="translate(24) rotate(90)"/>
</clipPath>
</defs>
</svg>
