<svg width="35" height="35" viewBox="0 0 35 35" fill="none" xmlns="http://www.w3.org/2000/svg">
<g id="humbleicons:cart">
<g id="Group">
<path id="Vector" d="M10.9375 29.1665C12.1456 29.1665 13.125 28.1871 13.125 26.979C13.125 25.7709 12.1456 24.7915 10.9375 24.7915C9.72938 24.7915 8.75 25.7709 8.75 26.979C8.75 28.1871 9.72938 29.1665 10.9375 29.1665Z" fill="#2767FE"/>
<path id="Vector_2" d="M24.0625 29.1665C25.2706 29.1665 26.25 28.1871 26.25 26.979C26.25 25.7709 25.2706 24.7915 24.0625 24.7915C22.8544 24.7915 21.875 25.7709 21.875 26.979C21.875 28.1871 22.8544 29.1665 24.0625 29.1665Z" fill="#2767FE"/>
<path id="Vector_3" d="M4.375 7.2915H7.29167L8.16667 11.6665M8.16667 11.6665L10.2083 21.8748H24.7917L27.7083 11.6665H8.16667Z" stroke="#2767FE" stroke-width="3" stroke-linecap="round" stroke-linejoin="round"/>
</g>
</g>
</svg>
