<svg width="20" height="20" viewBox="0 0 20 20" fill="none" xmlns="http://www.w3.org/2000/svg">
<g id="ph:check-bold">
<path id="Vector" d="M18.1637 6.28815L8.16374 16.2882C8.07664 16.3756 7.97315 16.4449 7.85919 16.4922C7.74524 16.5395 7.62306 16.5639 7.49967 16.5639C7.37628 16.5639 7.25411 16.5395 7.14016 16.4922C7.0262 16.4449 6.92271 16.3756 6.83561 16.2882L2.46061 11.9132C2.3734 11.8259 2.30423 11.7224 2.25703 11.6085C2.20984 11.4945 2.18555 11.3724 2.18555 11.2491C2.18555 11.1258 2.20984 11.0036 2.25703 10.8897C2.30423 10.7758 2.3734 10.6722 2.46061 10.585C2.54782 10.4978 2.65134 10.4286 2.76528 10.3814C2.87922 10.3343 3.00135 10.31 3.12467 10.31C3.248 10.31 3.37012 10.3343 3.48406 10.3814C3.598 10.4286 3.70153 10.4978 3.78874 10.585L7.50045 14.2967L16.8372 4.96159C17.0133 4.78547 17.2522 4.68652 17.5012 4.68652C17.7503 4.68652 17.9892 4.78547 18.1653 4.96159C18.3414 5.13771 18.4404 5.37658 18.4404 5.62565C18.4404 5.87472 18.3414 6.11359 18.1653 6.28971L18.1637 6.28815Z" fill="white"/>
</g>
</svg>
