<svg width="75" height="75" viewBox="0 0 75 75" fill="none" xmlns="http://www.w3.org/2000/svg">
<g id="ph:x">
<path id="Vector" d="M60.2513 56.9354C60.4691 57.1531 60.6418 57.4117 60.7596 57.6962C60.8775 57.9807 60.9382 58.2856 60.9382 58.5936C60.9382 58.9015 60.8775 59.2065 60.7596 59.491C60.6418 59.7755 60.4691 60.034 60.2513 60.2518C60.0335 60.4696 59.775 60.6423 59.4905 60.7601C59.206 60.878 58.9011 60.9386 58.5931 60.9386C58.2851 60.9386 57.9802 60.878 57.6957 60.7601C57.4112 60.6423 57.1527 60.4696 56.9349 60.2518L37.4993 40.8133L18.0638 60.2518C17.624 60.6916 17.0275 60.9386 16.4056 60.9386C15.7837 60.9386 15.1872 60.6916 14.7474 60.2518C14.3076 59.812 14.0605 59.2155 14.0605 58.5936C14.0605 57.9716 14.3076 57.3752 14.7474 56.9354L34.1859 37.4998L14.7474 18.0643C14.3076 17.6245 14.0605 17.028 14.0605 16.4061C14.0605 15.7841 14.3076 15.1877 14.7474 14.7479C15.1872 14.3081 15.7837 14.061 16.4056 14.061C17.0275 14.061 17.624 14.3081 18.0638 14.7479L37.4993 34.1864L56.9349 14.7479C57.3747 14.3081 57.9712 14.061 58.5931 14.061C59.215 14.061 59.8115 14.3081 60.2513 14.7479C60.6911 15.1877 60.9382 15.7841 60.9382 16.4061C60.9382 17.028 60.6911 17.6245 60.2513 18.0643L40.8128 37.4998L60.2513 56.9354Z" fill="#2767FE"/>
</g>
</svg>
