<svg width="49" height="49" viewBox="0 0 49 49" fill="none" xmlns="http://www.w3.org/2000/svg">
<g id="nimbus:drag-dots">
<path id="Vector" fill-rule="evenodd" clip-rule="evenodd" d="M22.5859 11.2394C22.5859 9.26406 20.8709 7.65625 18.7578 7.65625C16.6447 7.65625 14.9297 9.26406 14.9297 11.2394C14.9297 13.2178 16.6447 14.8225 18.7578 14.8225C20.8709 14.8225 22.5859 13.2178 22.5859 11.2394ZM22.5859 37.7606C22.5859 35.7822 20.8709 34.1775 18.7578 34.1775C16.6447 34.1775 14.9297 35.7822 14.9297 37.7606C14.9297 39.7359 16.6447 41.3438 18.7578 41.3438C20.8709 41.3438 22.5859 39.7359 22.5859 37.7606ZM18.7578 20.9169C20.8709 20.9169 22.5859 22.5247 22.5859 24.5C22.5859 26.4753 20.8709 28.0831 18.7578 28.0831C16.6447 28.0831 14.9297 26.4753 14.9297 24.5C14.9297 22.5247 16.6447 20.9169 18.7578 20.9169ZM34.0703 11.2394C34.0703 9.26406 32.3553 7.65625 30.2422 7.65625C28.1291 7.65625 26.4141 9.26406 26.4141 11.2394C26.4141 13.2178 28.1291 14.8225 30.2422 14.8225C32.3553 14.8225 34.0703 13.2178 34.0703 11.2394ZM30.2422 34.1775C32.3553 34.1775 34.0703 35.7822 34.0703 37.7606C34.0703 39.7359 32.3553 41.3438 30.2422 41.3438C28.1291 41.3438 26.4141 39.7359 26.4141 37.7606C26.4141 35.7822 28.1291 34.1775 30.2422 34.1775ZM34.0703 24.5C34.0703 22.5247 32.3553 20.9169 30.2422 20.9169C28.1291 20.9169 26.4141 22.5247 26.4141 24.5C26.4141 26.4753 28.1291 28.0831 30.2422 28.0831C32.3553 28.0831 34.0703 26.4753 34.0703 24.5Z" fill="black" fill-opacity="0.6"/>
</g>
</svg>
