<svg width="14" height="14" viewBox="0 0 14 14" fill="none" xmlns="http://www.w3.org/2000/svg">
<g id="ep:arrow-up-bold">
<path id="Vector" d="M12.568 4.63139C12.4039 4.46736 12.1814 4.37521 11.9494 4.37521C11.7174 4.37521 11.4949 4.46736 11.3308 4.63139L6.99953 8.96264L2.66828 4.63139C2.50325 4.472 2.28223 4.38381 2.0528 4.3858C1.82338 4.3878 1.60392 4.47982 1.44169 4.64205C1.27946 4.80428 1.18743 5.02374 1.18544 5.25317C1.18345 5.48259 1.27164 5.70362 1.43103 5.86864L6.38091 10.8185C6.54499 10.9826 6.76751 11.0747 6.99953 11.0747C7.23155 11.0747 7.45407 10.9826 7.61816 10.8185L12.568 5.86864C12.7321 5.70456 12.8242 5.48204 12.8242 5.25002C12.8242 5.018 12.7321 4.79548 12.568 4.63139Z" fill="white"/>
</g>
</svg>
