<svg width="243" height="51" viewBox="0 0 243 51" fill="none" xmlns="http://www.w3.org/2000/svg">
<g id="Group 175">
<g id="Vector">
<path d="M0 0H53V18.36H0V0Z" fill="#2667FF"/>
<path d="M0 20.4H53V34.68H0V20.4Z" fill="#2667FF"/>
<path d="M0 36.72H53V44.88H0V36.72Z" fill="#2667FF"/>
<path d="M0 46.92H53V51H0V46.92Z" fill="#2667FF"/>
</g>
<g id="LoftSoft">
<path id="Vector_2" d="M220.177 0.517578H242.184V6.99014H234.74V45.8255H227.62V6.99014H220.177V0.517578Z" fill="black"/>
<path id="Vector_3" d="M207.409 20.6472H216.6V27.1198H207.409V45.8255H200.289V0.517578H219.124V6.99014H207.409V20.6472Z" fill="black"/>
<path id="Vector_4" d="M182.625 35.4049C182.625 37.0446 182.949 38.2097 183.596 38.9001C184.286 39.5473 185.193 39.871 186.315 39.871C187.436 39.871 188.321 39.5473 188.968 38.9001C189.659 38.2097 190.004 37.0446 190.004 35.4049V10.9386C190.004 9.29891 189.659 8.15542 188.968 7.50817C188.321 6.81776 187.436 6.47256 186.315 6.47256C185.193 6.47256 184.286 6.81776 183.596 7.50817C182.949 8.15542 182.625 9.29891 182.625 10.9386V35.4049ZM175.505 11.3917C175.505 7.72392 176.433 4.91914 178.289 2.97737C180.144 0.992458 182.819 0 186.315 0C189.81 0 192.485 0.992458 194.341 2.97737C196.196 4.91914 197.124 7.72392 197.124 11.3917V34.9518C197.124 38.6196 196.196 41.4459 194.341 43.4309C192.485 45.3726 189.81 46.3435 186.315 46.3435C182.819 46.3435 180.144 45.3726 178.289 43.4309C176.433 41.4459 175.505 38.6196 175.505 34.9518V11.3917Z" fill="black"/>
<path id="Vector_5" d="M151.802 11.3917C151.802 7.72392 152.665 4.91914 154.391 2.97737C156.16 0.992458 158.792 0 162.287 0C165.783 0 168.393 0.992458 170.119 2.97737C171.888 4.91914 172.773 7.72392 172.773 11.3917V13.1393H166.041V10.9386C166.041 9.29891 165.718 8.15542 165.071 7.50817C164.466 6.81776 163.603 6.47256 162.482 6.47256C161.36 6.47256 160.475 6.81776 159.828 7.50817C159.224 8.15542 158.922 9.29891 158.922 10.9386C158.922 12.492 159.267 13.8728 159.957 15.0811C160.648 16.2461 161.511 17.368 162.546 18.4468C163.582 19.4824 164.682 20.5396 165.847 21.6183C167.056 22.654 168.177 23.7974 169.213 25.0488C170.249 26.3002 171.112 27.7241 171.802 29.3207C172.492 30.9172 172.838 32.7943 172.838 34.9518C172.838 38.6196 171.932 41.4459 170.119 43.4309C168.35 45.3726 165.718 46.3435 162.223 46.3435C158.727 46.3435 156.074 45.3726 154.261 43.4309C152.492 41.4459 151.608 38.6196 151.608 34.9518V31.845H158.339V35.4049C158.339 37.0446 158.663 38.1881 159.31 38.8354C160 39.4826 160.907 39.8062 162.028 39.8062C163.15 39.8062 164.035 39.4826 164.682 38.8354C165.373 38.1881 165.718 37.0446 165.718 35.4049C165.718 33.8515 165.373 32.4922 164.682 31.3272C163.992 30.119 163.129 28.9971 162.093 27.9614C161.058 26.8827 159.936 25.8255 158.727 24.7899C157.562 23.7111 156.462 22.5461 155.426 21.2947C154.391 20.0434 153.528 18.6194 152.837 17.0228C152.147 15.4263 151.802 13.5492 151.802 11.3917Z" fill="black"/>
<path id="Vector_6" d="M128.272 0.517578H150.278V6.99014H142.835V45.8255H135.715V6.99014H128.272V0.517578Z" fill="black"/>
<path id="Vector_7" d="M115.504 20.6472H124.695V27.1198H115.504V45.8255H108.384V0.517578H127.219V6.99014H115.504V20.6472Z" fill="black"/>
<path id="Vector_8" d="M90.7199 35.4049C90.7199 37.0446 91.0435 38.2097 91.6908 38.9001C92.3812 39.5473 93.2874 39.871 94.4093 39.871C95.5312 39.871 96.4158 39.5473 97.063 38.9001C97.7534 38.2097 98.0986 37.0446 98.0986 35.4049V10.9386C98.0986 9.29891 97.7534 8.15542 97.063 7.50817C96.4158 6.81776 95.5312 6.47256 94.4093 6.47256C93.2874 6.47256 92.3812 6.81776 91.6908 7.50817C91.0435 8.15542 90.7199 9.29891 90.7199 10.9386V35.4049ZM83.6001 11.3917C83.6001 7.72392 84.5278 4.91914 86.3833 2.97737C88.2388 0.992458 90.9141 0 94.4093 0C97.9045 0 100.58 0.992458 102.435 2.97737C104.291 4.91914 105.218 7.72392 105.218 11.3917V34.9518C105.218 38.6196 104.291 41.4459 102.435 43.4309C100.58 45.3726 97.9045 46.3435 94.4093 46.3435C90.9141 46.3435 88.2388 45.3726 86.3833 43.4309C84.5278 41.4459 83.6001 38.6196 83.6001 34.9518V11.3917Z" fill="black"/>
<path id="Vector_9" d="M63 0.517578H70.1198V39.3529H81.8351V45.8255H63V0.517578Z" fill="black"/>
</g>
</g>
</svg>
