<svg width="126" height="32" viewBox="0 0 126 32" fill="none" xmlns="http://www.w3.org/2000/svg">
<path d="M0 0H26V9H0V0Z" fill="#2667FF"/>
<path d="M0 10H26V17H0V10Z" fill="#2667FF"/>
<path d="M0 18H26V22H0V18Z" fill="#2667FF"/>
<path d="M0 23H26V25H0V23Z" fill="#2667FF"/>
<path d="M36.832 1.6H40.352V20.8H46.144V24H36.832V1.6ZM50.5365 18.848C50.5365 19.6587 50.6965 20.2347 51.0165 20.576C51.3578 20.896 51.8058 21.056 52.3605 21.056C52.9152 21.056 53.3525 20.896 53.6725 20.576C54.0138 20.2347 54.1845 19.6587 54.1845 18.848V6.752C54.1845 5.94133 54.0138 5.376 53.6725 5.056C53.3525 4.71467 52.9152 4.544 52.3605 4.544C51.8058 4.544 51.3578 4.71467 51.0165 5.056C50.6965 5.376 50.5365 5.94133 50.5365 6.752V18.848ZM47.0165 6.976C47.0165 5.16267 47.4752 3.776 48.3925 2.816C49.3098 1.83467 50.6325 1.344 52.3605 1.344C54.0885 1.344 55.4112 1.83467 56.3285 2.816C57.2458 3.776 57.7045 5.16267 57.7045 6.976V18.624C57.7045 20.4373 57.2458 21.8347 56.3285 22.816C55.4112 23.776 54.0885 24.256 52.3605 24.256C50.6325 24.256 49.3098 23.776 48.3925 22.816C47.4752 21.8347 47.0165 20.4373 47.0165 18.624V6.976ZM62.7895 11.552H67.3335V14.752H62.7895V24H59.2695V1.6H68.5815V4.8H62.7895V11.552ZM69.102 1.6H79.982V4.8H76.302V24H72.782V4.8H69.102V1.6ZM80.7353 6.976C80.7353 5.16267 81.1619 3.776 82.0153 2.816C82.8899 1.83467 84.1913 1.344 85.9193 1.344C87.6473 1.344 88.9379 1.83467 89.7913 2.816C90.6659 3.776 91.1033 5.16267 91.1033 6.976V7.84H87.7753V6.752C87.7753 5.94133 87.6153 5.376 87.2953 5.056C86.9966 4.71467 86.5699 4.544 86.0153 4.544C85.4606 4.544 85.0233 4.71467 84.7033 5.056C84.4046 5.376 84.2552 5.94133 84.2552 6.752C84.2552 7.52 84.4259 8.20267 84.7673 8.8C85.1086 9.376 85.5353 9.93067 86.0473 10.464C86.5593 10.976 87.1033 11.4987 87.6793 12.032C88.2766 12.544 88.8313 13.1093 89.3433 13.728C89.8553 14.3467 90.2819 15.0507 90.6233 15.84C90.9646 16.6293 91.1353 17.5573 91.1353 18.624C91.1353 20.4373 90.6873 21.8347 89.7913 22.816C88.9166 23.776 87.6153 24.256 85.8873 24.256C84.1593 24.256 82.8473 23.776 81.9513 22.816C81.0766 21.8347 80.6393 20.4373 80.6393 18.624V17.088H83.9673V18.848C83.9673 19.6587 84.1273 20.224 84.4473 20.544C84.7886 20.864 85.2366 21.024 85.7913 21.024C86.3459 21.024 86.7833 20.864 87.1033 20.544C87.4446 20.224 87.6153 19.6587 87.6153 18.848C87.6153 18.08 87.4446 17.408 87.1033 16.832C86.7619 16.2347 86.3353 15.68 85.8233 15.168C85.3113 14.6347 84.7566 14.112 84.1593 13.6C83.5833 13.0667 83.0393 12.4907 82.5273 11.872C82.0153 11.2533 81.5886 10.5493 81.2473 9.76C80.9059 8.97067 80.7353 8.04267 80.7353 6.976ZM95.974 18.848C95.974 19.6587 96.134 20.2347 96.454 20.576C96.7953 20.896 97.2433 21.056 97.798 21.056C98.3527 21.056 98.79 20.896 99.11 20.576C99.4513 20.2347 99.622 19.6587 99.622 18.848V6.752C99.622 5.94133 99.4513 5.376 99.11 5.056C98.79 4.71467 98.3527 4.544 97.798 4.544C97.2433 4.544 96.7953 4.71467 96.454 5.056C96.134 5.376 95.974 5.94133 95.974 6.752V18.848ZM92.454 6.976C92.454 5.16267 92.9127 3.776 93.83 2.816C94.7473 1.83467 96.07 1.344 97.798 1.344C99.526 1.344 100.849 1.83467 101.766 2.816C102.683 3.776 103.142 5.16267 103.142 6.976V18.624C103.142 20.4373 102.683 21.8347 101.766 22.816C100.849 23.776 99.526 24.256 97.798 24.256C96.07 24.256 94.7473 23.776 93.83 22.816C92.9127 21.8347 92.454 20.4373 92.454 18.624V6.976ZM108.227 11.552H112.771V14.752H108.227V24H104.707V1.6H114.019V4.8H108.227V11.552ZM114.54 1.6H125.42V4.8H121.74V24H118.22V4.8H114.54V1.6Z" fill="black"/>
</svg>
