<svg width="42" height="40" viewBox="0 0 42 40" fill="none" xmlns="http://www.w3.org/2000/svg">
<path d="M11.6667 11.75H28.3333M11.6667 20.0834H24.1667M19.9792 31.7625L11.6667 36.75V30.5H7.5C5.8424 30.5 4.25269 29.8416 3.08058 28.6695C1.90848 27.4974 1.25 25.9076 1.25 24.25V7.58337C1.25 5.92577 1.90848 4.33606 3.08058 3.16396C4.25269 1.99185 5.8424 1.33337 7.5 1.33337H32.5C34.1576 1.33337 35.7473 1.99185 36.9194 3.16396C38.0915 4.33606 38.75 5.92577 38.75 7.58337V19.0417M34.5833 38.8334V26.3334M34.5833 26.3334L40.8333 32.5834M34.5833 26.3334L28.3333 32.5834" stroke="black" stroke-width="2" stroke-linecap="round" stroke-linejoin="round"/>
</svg>
