<svg width="20" height="21" viewBox="0 0 20 21" fill="none" xmlns="http://www.w3.org/2000/svg">
<g id="ph:plus-bold">
<path id="Vector" d="M17.8125 10.5C17.8125 10.7486 17.7137 10.9871 17.5379 11.1629C17.3621 11.3387 17.1236 11.4375 16.875 11.4375H10.9375V17.375C10.9375 17.6236 10.8387 17.8621 10.6629 18.0379C10.4871 18.2137 10.2486 18.3125 10 18.3125C9.75136 18.3125 9.5129 18.2137 9.33709 18.0379C9.16127 17.8621 9.0625 17.6236 9.0625 17.375V11.4375H3.125C2.87636 11.4375 2.6379 11.3387 2.46209 11.1629C2.28627 10.9871 2.1875 10.7486 2.1875 10.5C2.1875 10.2514 2.28627 10.0129 2.46209 9.83709C2.6379 9.66127 2.87636 9.5625 3.125 9.5625H9.0625V3.625C9.0625 3.37636 9.16127 3.1379 9.33709 2.96209C9.5129 2.78627 9.75136 2.6875 10 2.6875C10.2486 2.6875 10.4871 2.78627 10.6629 2.96209C10.8387 3.1379 10.9375 3.37636 10.9375 3.625V9.5625H16.875C17.1236 9.5625 17.3621 9.66127 17.5379 9.83709C17.7137 10.0129 17.8125 10.2514 17.8125 10.5Z" fill="black"/>
</g>
</svg>
