<svg width="24" height="25" viewBox="0 0 24 25" fill="none" xmlns="http://www.w3.org/2000/svg">
<g id="solar:restart-linear">
<path id="Vector" d="M18.3645 8.54988L17.6575 7.84288C16.3185 6.50357 14.5477 5.68273 12.6603 5.52641C10.7729 5.3701 8.89126 5.88844 7.35015 6.98922C5.80904 8.08999 4.70842 9.70181 4.24414 11.5379C3.77985 13.374 3.98199 15.3152 4.81461 17.0162C5.64723 18.7173 7.05632 20.0677 8.79116 20.8274C10.526 21.587 12.4741 21.7066 14.2888 21.1647C16.1035 20.6229 17.6671 19.4548 18.7015 17.8684C19.7358 16.2819 20.1738 14.38 19.9375 12.5009M18.3645 8.54988L14.1215 8.55088M18.3645 8.54988V4.30688" stroke="white" stroke-width="1.5" stroke-linecap="round" stroke-linejoin="round"/>
</g>
</svg>
