<svg width="31" height="31" viewBox="0 0 31 31" fill="none" xmlns="http://www.w3.org/2000/svg">
<g id="ic:outline-save">
<path id="Vector" d="M21.9583 3.875H6.45833C5.77319 3.875 5.11611 4.14717 4.63164 4.63164C4.14717 5.11611 3.875 5.77319 3.875 6.45833V24.5417C3.875 25.2268 4.14717 25.8839 4.63164 26.3684C5.11611 26.8528 5.77319 27.125 6.45833 27.125H24.5417C25.9625 27.125 27.125 25.9625 27.125 24.5417V9.04167L21.9583 3.875ZM24.5417 24.5417H6.45833V6.45833H20.8862L24.5417 10.1137V24.5417ZM15.5 15.5C13.3558 15.5 11.625 17.2308 11.625 19.375C11.625 21.5192 13.3558 23.25 15.5 23.25C17.6442 23.25 19.375 21.5192 19.375 19.375C19.375 17.2308 17.6442 15.5 15.5 15.5ZM7.75 7.75H19.375V12.9167H7.75V7.75Z" fill="#2667FF"/>
</g>
</svg>
