<svg width="24" height="25" viewBox="0 0 24 25" fill="none" xmlns="http://www.w3.org/2000/svg">
<path d="M17 3.5H5C4.46957 3.5 3.96086 3.71071 3.58579 4.08579C3.21071 4.46086 3 4.96957 3 5.5V19.5C3 20.0304 3.21071 20.5391 3.58579 20.9142C3.96086 21.2893 4.46957 21.5 5 21.5H19C20.1 21.5 21 20.6 21 19.5V7.5L17 3.5ZM19 19.5H5V5.5H16.17L19 8.33V19.5ZM12 12.5C10.34 12.5 9 13.84 9 15.5C9 17.16 10.34 18.5 12 18.5C13.66 18.5 15 17.16 15 15.5C15 13.84 13.66 12.5 12 12.5ZM6 6.5H15V10.5H6V6.5Z" fill="white"/>
</svg>
