<svg width="30" height="30" viewBox="0 0 30 30" fill="none" xmlns="http://www.w3.org/2000/svg">
<path d="M3 6.53003L6.633 13.0238V16.9848L3.00425 23.4658L3 6.53003Z" fill="#5B57A2"/>
<path d="M16.9492 10.6609L20.3535 8.57437L27.3205 8.56787L16.9492 14.9214V10.6609Z" fill="#D90751"/>
<path d="M16.9299 6.49174L16.9491 15.0892L13.3076 12.8517V0L16.9301 6.49174H16.9299Z" fill="#FAB718"/>
<path d="M27.3204 8.56774L20.3531 8.57424L16.9299 6.49174L13.3076 0L27.3201 8.56774H27.3204Z" fill="#ED6F26"/>
<path d="M16.9491 23.5017V19.3305L13.3076 17.1355L13.3096 30L16.9491 23.5017Z" fill="#63B22F"/>
<path d="M20.345 21.4343L6.63275 13.0238L3 6.53003L27.3057 21.4258L20.3447 21.4343H20.345Z" fill="#1487C9"/>
<path d="M13.3096 30L16.9486 23.5018L20.3443 21.4343L27.3051 21.4258L13.3096 30Z" fill="#017F36"/>
<path d="M3.00391 23.4656L13.3371 17.1356L9.86315 15.0042L6.63265 16.9846L3.00391 23.4656Z" fill="#984995"/>
</svg>
