<svg width="26" height="26" viewBox="0 0 26 26" fill="none" xmlns="http://www.w3.org/2000/svg">
<g id="ph:star-fill">
<path id="Vector" d="M23.8157 11.6165L19.2352 15.614L20.6073 21.5656C20.6799 21.8767 20.6592 22.2023 20.5478 22.5018C20.4363 22.8012 20.2391 23.0611 19.9807 23.249C19.7223 23.437 19.4143 23.5445 19.0951 23.5584C18.7759 23.5722 18.4597 23.4916 18.1861 23.3267L12.9952 20.1782L7.81551 23.3267C7.54187 23.4916 7.22568 23.5722 6.90649 23.5584C6.5873 23.5445 6.27926 23.437 6.02089 23.249C5.76251 23.0611 5.56527 22.8012 5.45381 22.5018C5.34236 22.2023 5.32164 21.8767 5.39425 21.5656L6.76433 15.6201L2.18284 11.6165C1.94052 11.4075 1.76529 11.1316 1.67914 10.8235C1.59299 10.5153 1.59974 10.1885 1.69856 9.88417C1.79737 9.57982 1.98384 9.31141 2.23459 9.11261C2.48534 8.91381 2.7892 8.79347 3.10807 8.76667L9.14699 8.24362L11.5043 2.62113C11.6274 2.3261 11.835 2.0741 12.101 1.89684C12.3671 1.71958 12.6796 1.625 12.9993 1.625C13.3189 1.625 13.6315 1.71958 13.8975 1.89684C14.1635 2.0741 14.3712 2.3261 14.4943 2.62113L16.8587 8.24362L22.8955 8.76667C23.2144 8.79347 23.5183 8.91381 23.769 9.11261C24.0198 9.31141 24.2062 9.57982 24.3051 9.88417C24.4039 10.1885 24.4106 10.5153 24.3245 10.8235C24.2383 11.1316 24.0631 11.4075 23.8208 11.6165H23.8157Z" fill="#FF2727"/>
</g>
</svg>
