<svg width="21" height="8" viewBox="0 0 21 8" fill="none" xmlns="http://www.w3.org/2000/svg">
<path d="M1.00781 6.46875L2.57812 4.3125L0.21875 3.60938L0.585938 2.4375L2.94531 3.30469L2.875 0.617188H4.0625L3.98438 3.35156L6.3125 2.48438L6.67188 3.67969L4.27344 4.39062L5.8125 6.50781L4.84375 7.23438L3.39844 4.98438L1.98438 7.17969L1.00781 6.46875ZM7.89844 6.46875L9.46875 4.3125L7.10938 3.60938L7.47656 2.4375L9.83594 3.30469L9.76562 0.617188H10.9531L10.875 3.35156L13.2031 2.48438L13.5625 3.67969L11.1641 4.39062L12.7031 6.50781L11.7344 7.23438L10.2891 4.98438L8.875 7.17969L7.89844 6.46875ZM14.7891 6.46875L16.3594 4.3125L14 3.60938L14.3672 2.4375L16.7266 3.30469L16.6562 0.617188H17.8438L17.7656 3.35156L20.0938 2.48438L20.4531 3.67969L18.0547 4.39062L19.5938 6.50781L18.625 7.23438L17.1797 4.98438L15.7656 7.17969L14.7891 6.46875Z" fill="black"/>
</svg>
