<svg width="30" height="30" viewBox="0 0 30 30" fill="none" xmlns="http://www.w3.org/2000/svg">
<g id="ph:wallet-fill">
<path id="Vector" d="M25.3125 8.4375H6.5625C6.31386 8.4375 6.0754 8.33873 5.89959 8.16291C5.72377 7.9871 5.625 7.74864 5.625 7.5C5.625 7.25136 5.72377 7.0129 5.89959 6.83709C6.0754 6.66127 6.31386 6.5625 6.5625 6.5625H22.5C22.7486 6.5625 22.9871 6.46373 23.1629 6.28791C23.3387 6.1121 23.4375 5.87364 23.4375 5.625C23.4375 5.37636 23.3387 5.1379 23.1629 4.96209C22.9871 4.78627 22.7486 4.6875 22.5 4.6875H6.5625C5.81658 4.6875 5.10121 4.98382 4.57376 5.51126C4.04632 6.03871 3.75 6.75408 3.75 7.5V22.5C3.75 23.2459 4.04632 23.9613 4.57376 24.4887C5.10121 25.0162 5.81658 25.3125 6.5625 25.3125H25.3125C25.8098 25.3125 26.2867 25.115 26.6383 24.7633C26.99 24.4117 27.1875 23.9348 27.1875 23.4375V10.3125C27.1875 9.81522 26.99 9.33831 26.6383 8.98668C26.2867 8.63504 25.8098 8.4375 25.3125 8.4375ZM21.0938 17.8125C20.8156 17.8125 20.5437 17.73 20.3125 17.5755C20.0812 17.421 19.901 17.2014 19.7945 16.9444C19.6881 16.6874 19.6603 16.4047 19.7145 16.1319C19.7688 15.8591 19.9027 15.6085 20.0994 15.4119C20.296 15.2152 20.5466 15.0813 20.8194 15.027C21.0922 14.9728 21.3749 15.0006 21.6319 15.107C21.8889 15.2135 22.1085 15.3937 22.263 15.625C22.4175 15.8562 22.5 16.1281 22.5 16.4062C22.5 16.7792 22.3518 17.1369 22.0881 17.4006C21.8244 17.6643 21.4667 17.8125 21.0938 17.8125Z" fill="#2667FF"/>
</g>
</svg>
